<svg width="160" height="160" viewBox="0 0 160 160" fill="none" xmlns="http://www.w3.org/2000/svg">
<rect x="37" y="37" width="95" height="95" rx="6" fill="#A8C8FB"/>
<rect x="27" y="27" width="95" height="95" rx="6" fill="#ECF1FF"/>
<path d="M122 77.8034V116C122 119.314 119.314 122 116 122H33C29.6863 122 27 119.314 27 116V104.912L51.5547 80.3577C55.1445 76.7679 60.9648 76.7679 64.5547 80.3578C68.1445 83.9476 73.9648 83.9477 77.5547 80.3578L93.9836 63.9289C97.8888 60.0237 104.221 60.0237 108.126 63.929L122 77.8034Z" fill="#BED7FF"/>
<circle cx="50.5" cy="50.5" r="13.5" fill="#BED7FF"/>
<rect x="28" y="28" width="93" height="93" rx="5" stroke="#ECF1FF" stroke-width="2"/>
</svg>
