<svg width="107" height="136" viewBox="0 0 107 136" fill="none" xmlns="http://www.w3.org/2000/svg">
<path d="M91.5389 135.9C92.1658 135.931 94.6568 135.926 96.8912 135.916C98.9473 135.907 100.668 134.341 100.871 132.295L106.786 72.7049C106.922 71.3199 105.909 70.2002 104.529 70.2002H20.7634C19.3765 70.2002 18.1445 71.3199 18.009 72.7049L15.1289 101.751L30.1975 130.798C30.0621 132.183 31.0748 133.302 32.4552 133.302C32.4552 133.302 90.4643 135.847 91.5389 135.9Z" fill="#47505F"/>
<path fill-rule="evenodd" clip-rule="evenodd" d="M43.1685 79.1974H87.6876C89.0863 79.1974 90.42 80.3794 90.6738 81.8379L99.5737 133.26C99.8274 134.718 98.8971 135.9 97.5048 135.9H13.0207C11.622 135.9 10.2883 134.718 10.0346 133.26L1.13468 81.8379L0.0417121 75.5407C-0.212013 74.0822 0.718313 72.9001 2.11055 72.9001H39.5448C40.9436 72.9001 42.2772 74.0822 42.531 75.5407L43.162 79.1974H43.1685Z" fill="#92BBFF"/>
<path fill-rule="evenodd" clip-rule="evenodd" d="M72.3083 4.01869C72.5166 2.78656 73.2054 1.68463 74.2199 0.958878L76.9409 4.8037L79.6619 8.64852C78.8475 9.22988 77.8716 9.5343 76.8874 9.52013C76.3178 10.4877 75.4133 11.2225 74.3475 11.5814C73.1678 11.9832 71.8764 11.8937 70.7577 11.3373C69.6391 10.781 68.7893 9.80368 68.3903 8.6138C67.99 7.43026 68.0795 6.1345 68.6342 5.01205L72.8332 7.10246C72.3111 6.16498 72.1219 5.07695 72.302 4.01741L72.3083 4.01869Z" fill="#47505F"/>
<path d="M55.0257 75.6C54.8184 75.6 54.6193 75.5094 54.4866 75.3283C53.9392 74.5875 53.4167 73.8301 52.944 73.081C52.7449 72.7682 52.8444 72.3566 53.1596 72.1673C53.4748 71.9779 53.8895 72.0685 54.0885 72.3813C54.5364 73.1057 55.034 73.8301 55.5648 74.5381C55.7888 74.8344 55.7224 75.2543 55.4238 75.4683C55.3077 75.5588 55.1667 75.6 55.0257 75.6ZM52.2141 71.0642C51.9653 71.0642 51.7331 70.9325 51.6087 70.6937C51.194 69.8705 50.8207 69.0309 50.4973 68.1912C50.3646 67.8455 50.5388 67.4586 50.8871 67.3268C51.2354 67.1951 51.6252 67.368 51.7579 67.7138C52.0648 68.5123 52.4215 69.3108 52.8113 70.0928C52.9771 70.4221 52.8444 70.8254 52.5127 70.9901C52.4132 71.0395 52.3136 71.0642 52.2141 71.0642ZM50.2982 66.092C49.9996 66.092 49.726 65.8945 49.6513 65.5981C49.4191 64.7091 49.2283 63.8036 49.0956 62.9145C49.0459 62.5523 49.2947 62.2148 49.6596 62.1572C50.0245 62.1078 50.3646 62.3547 50.4226 62.7169C50.547 63.5566 50.7212 64.4127 50.9451 65.2524C51.0364 65.6064 50.829 65.9768 50.4641 66.0674C50.406 66.0838 50.348 66.092 50.2899 66.092H50.2982ZM49.5352 60.8236C49.1703 60.8236 48.8717 60.5355 48.8634 60.1733C48.8634 59.9675 48.8634 59.7699 48.8634 59.5641C48.8634 58.8644 48.8966 58.1564 48.9629 57.4567C48.6809 57.3661 48.4072 57.2674 48.1418 57.1686C47.7935 57.0369 47.6193 56.6582 47.7437 56.3125C47.8764 55.9667 48.2579 55.7938 48.6063 55.9173C49.3942 56.2054 50.2402 56.4606 51.1027 56.6664C51.4594 56.7487 51.6833 57.111 51.6004 57.4732C51.5174 57.8271 51.1525 58.0494 50.7876 57.9671C50.6134 57.9259 50.4475 57.8848 50.2816 57.8436C50.2319 58.4116 50.2153 58.9878 50.2153 59.5641C50.2153 59.7534 50.2153 59.9428 50.2153 60.1403C50.2236 60.5108 49.9333 60.8153 49.5601 60.8236C49.5601 60.8236 49.5518 60.8236 49.5435 60.8236H49.5352ZM56.2532 58.6833C56.2532 58.6833 56.2366 58.6833 56.2283 58.6833C55.3077 58.6503 54.3788 58.5845 53.4831 58.4692C53.1181 58.4198 52.8527 58.0906 52.9025 57.7201C52.9523 57.3579 53.284 57.1027 53.6572 57.1439C54.5115 57.2509 55.3906 57.325 56.2698 57.3497C56.643 57.3579 56.9333 57.6707 56.9167 58.0329C56.9084 58.3951 56.6098 58.675 56.2449 58.675L56.2532 58.6833ZM58.9404 58.6421C58.5921 58.6421 58.2935 58.3704 58.2686 58.0165C58.2437 57.646 58.5257 57.3332 58.8989 57.3085C59.7698 57.2509 60.6489 57.1603 61.5115 57.0286C61.8681 56.971 62.2248 57.218 62.2745 57.5884C62.3243 57.9588 62.0838 58.2964 61.7189 58.354C60.8148 58.4939 59.8942 58.5927 58.9819 58.6503C58.9653 58.6503 58.957 58.6503 58.9404 58.6503V58.6421ZM64.2402 57.8189C63.9416 57.8189 63.6679 57.6213 63.5933 57.3168C63.502 56.9628 63.7177 56.6006 64.0743 56.5018C64.9369 56.2795 65.7745 56.0161 66.5708 55.7197C66.9191 55.588 67.3089 55.7609 67.4333 56.1067C67.566 56.4524 67.3918 56.8393 67.0435 56.9628C66.2058 57.2756 65.3184 57.5555 64.4144 57.786C64.3563 57.8024 64.2982 57.8107 64.2485 57.8107L64.2402 57.8189ZM45.9191 56.1149C45.8113 56.1149 45.7034 56.0902 45.5956 56.0326C44.7579 55.5798 43.97 55.0777 43.2568 54.5179C42.9665 54.2956 42.9084 53.8758 43.1406 53.5794C43.3646 53.2913 43.7876 53.2337 44.0861 53.4642C44.7413 53.9746 45.4712 54.4438 46.2425 54.8554C46.566 55.0283 46.6904 55.4316 46.5162 55.7609C46.3918 55.9832 46.1679 56.1067 45.9274 56.1067L45.9191 56.1149ZM69.258 55.9255C69.0174 55.9255 68.7852 55.7938 68.6608 55.5716C68.4866 55.2423 68.611 54.8389 68.9428 54.6743C69.7307 54.2627 70.4689 53.8099 71.1324 53.316C71.431 53.0937 71.8539 53.1596 72.0696 53.456C72.2852 53.7523 72.2272 54.1721 71.9286 54.3862C71.207 54.913 70.4108 55.4069 69.5648 55.8515C69.4653 55.9009 69.3575 55.9255 69.2497 55.9255H69.258ZM50.0411 55.5304C49.9914 55.5304 49.9416 55.5304 49.9001 55.5139C49.5352 55.4316 49.3113 55.0777 49.3859 54.7237C49.585 53.8346 49.8338 52.9456 50.1406 52.0812C50.2651 51.7355 50.6466 51.5544 50.9949 51.6696C51.3433 51.7931 51.534 52.1718 51.4096 52.5175C51.1276 53.3242 50.8871 54.1639 50.6963 55.0036C50.63 55.3164 50.348 55.5304 50.0411 55.5304ZM41.7141 52.8468C41.5316 52.8468 41.3409 52.7727 41.2082 52.6245C40.5861 51.9166 40.0304 51.151 39.5743 50.3525C39.3918 50.0314 39.4996 49.6281 39.8231 49.447C40.1466 49.2659 40.553 49.3729 40.7354 49.6939C41.1501 50.4183 41.6477 51.1098 42.2117 51.7519C42.4605 52.0318 42.4274 52.4516 42.1537 52.6904C42.0293 52.8056 41.8717 52.855 41.7141 52.855V52.8468ZM73.5376 52.748C73.3717 52.748 73.2058 52.6904 73.0731 52.5669C72.8077 52.3117 72.7911 51.8919 73.0482 51.6202C73.6703 50.9699 74.2011 50.2949 74.6241 49.6363C74.8231 49.3235 75.2378 49.2247 75.553 49.4223C75.8682 49.6198 75.9594 50.0314 75.7686 50.3443C75.3042 51.0851 74.7153 51.826 74.0269 52.5422C73.8942 52.6821 73.7201 52.748 73.5376 52.748ZM51.8077 50.5007C51.7082 50.5007 51.6087 50.476 51.5091 50.4348C51.1774 50.2702 51.0364 49.875 51.2023 49.5458C51.6004 48.7308 52.0648 47.9241 52.5624 47.1585C52.7615 46.8457 53.1762 46.7633 53.4914 46.9609C53.8065 47.1585 53.8895 47.5701 53.6904 47.8829C53.2177 48.6073 52.7864 49.3647 52.4132 50.1385C52.297 50.3772 52.0565 50.5089 51.8077 50.5089V50.5007ZM39.0767 48.2451C38.7947 48.2451 38.5293 48.064 38.438 47.7841C38.156 46.9198 37.9487 46.006 37.8326 45.0676C37.7828 44.7053 38.0482 44.3678 38.4131 44.3184C38.7781 44.2691 39.1181 44.5325 39.1679 44.8947C39.2757 45.7508 39.4665 46.5905 39.7236 47.3725C39.8397 47.7265 39.6406 48.0969 39.2923 48.2122C39.2259 48.2369 39.1513 48.2451 39.0849 48.2451H39.0767ZM76.2828 48.2286C76.2248 48.2286 76.1667 48.2286 76.1087 48.2039C75.752 48.1134 75.5364 47.743 75.6276 47.389C75.7603 46.8786 75.835 46.3682 75.835 45.8743C75.835 45.5862 75.8101 45.298 75.7686 45.0264C75.7106 44.6642 75.9594 44.3184 76.3243 44.2608C76.681 44.2032 77.0376 44.4502 77.0956 44.8124C77.1537 45.1581 77.1786 45.5203 77.1786 45.8743C77.1786 46.4835 77.0956 47.1091 76.9298 47.7265C76.8468 48.0228 76.5814 48.2204 76.2828 48.2204V48.2286ZM54.7106 46.0307C54.5613 46.0307 54.412 45.9813 54.2876 45.8825C53.9973 45.652 53.9558 45.2322 54.1963 44.9441C54.7769 44.2444 55.4072 43.5611 56.0707 42.9272C56.3362 42.672 56.7591 42.6803 57.0245 42.9437C57.2816 43.2071 57.2734 43.627 57.0079 43.8904C56.3859 44.4913 55.7888 45.1252 55.2414 45.792C55.1087 45.9566 54.9179 46.0389 54.7188 46.0389L54.7106 46.0307ZM75.4452 43.133C75.2295 43.133 75.0139 43.026 74.8895 42.8367C74.4499 42.1946 73.8776 41.6101 73.181 41.108C72.8824 40.8939 72.816 40.4741 73.0317 40.1778C73.2473 39.8814 73.6703 39.8155 73.9689 40.0296C74.79 40.6223 75.4784 41.322 76.0009 42.0958C76.2082 42.4004 76.1253 42.812 75.8184 43.0178C75.7023 43.0919 75.5779 43.133 75.4452 43.133ZM38.3634 42.9931H38.3468C37.9736 42.9849 37.6833 42.672 37.6916 42.3098C37.7165 41.429 37.8077 40.507 37.957 39.5686C38.015 39.2064 38.3551 38.9512 38.7283 39.017C39.0932 39.0747 39.3421 39.4122 39.284 39.7826C39.143 40.6634 39.0601 41.5278 39.0352 42.351C39.0269 42.7132 38.7283 43.0013 38.3634 43.0013V42.9931ZM58.5672 42.3345C58.3598 42.3345 58.1608 42.244 58.0281 42.0711C57.8042 41.7748 57.8622 41.3632 58.1525 41.1409C58.4594 40.9104 58.7745 40.6881 59.0897 40.4741C59.5459 40.1695 60.0103 39.8814 60.4914 39.6262C60.8231 39.4533 61.2295 39.5768 61.4037 39.8979C61.5779 40.2189 61.4535 40.6223 61.13 40.8034C60.6987 41.0339 60.2674 41.2891 59.8527 41.5772C59.5542 41.783 59.2639 41.9888 58.9736 42.2111C58.8492 42.3016 58.7082 42.351 58.5672 42.351V42.3345ZM71.207 39.9884C71.1324 39.9884 71.0494 39.972 70.9748 39.9473C70.2035 39.6591 69.3741 39.4698 68.5198 39.3628C68.1549 39.3216 67.8895 38.9841 67.9309 38.6219C67.9724 38.2597 68.3042 37.988 68.6774 38.0374C69.6395 38.1527 70.5601 38.375 71.4392 38.696C71.7876 38.8195 71.9618 39.2064 71.8373 39.5521C71.7378 39.8238 71.4807 39.9884 71.207 39.9884ZM63.2864 39.8485C62.9961 39.8485 62.7307 39.6674 62.6478 39.3793C62.5399 39.0253 62.739 38.6548 63.0956 38.5478C63.9997 38.2762 64.9286 38.0951 65.8658 38.0045C66.2307 37.9716 66.5625 38.2432 66.5956 38.6054C66.6288 38.9759 66.3551 39.2969 65.9902 39.3299C65.1525 39.4039 64.3065 39.5686 63.4937 39.8155C63.4274 39.832 63.361 39.8485 63.2947 39.8485H63.2864ZM39.1845 37.7329C39.1264 37.7329 39.0684 37.7329 39.0103 37.7082C38.6537 37.6094 38.438 37.2472 38.5376 36.8932C38.7781 36.0124 39.0601 35.1398 39.3918 34.2919C39.5245 33.9461 39.9143 33.7815 40.2627 33.9132C40.611 34.0449 40.7769 34.4318 40.6442 34.7776C40.329 35.5761 40.0553 36.4075 39.8314 37.2389C39.7485 37.5353 39.4831 37.7329 39.1845 37.7329ZM41.1169 32.7772C41.0174 32.7772 40.9096 32.7525 40.8101 32.7031C40.4783 32.5385 40.3539 32.1351 40.5198 31.8058C40.9345 31.0073 41.3989 30.2088 41.9049 29.4432C42.1039 29.1387 42.5269 29.0481 42.8338 29.2539C43.1406 29.4597 43.2319 29.8713 43.0245 30.1759C42.5435 30.9003 42.1039 31.6576 41.7058 32.415C41.5897 32.6455 41.3492 32.7772 41.1086 32.7772H41.1169ZM44.0447 28.3237C43.8954 28.3237 43.7461 28.2743 43.6217 28.1755C43.3314 27.945 43.2899 27.5252 43.5222 27.2371C44.0861 26.5456 44.6999 25.8541 45.3468 25.1955C45.6039 24.9321 46.0269 24.9239 46.3006 25.1791C46.566 25.4343 46.5743 25.8541 46.3172 26.1258C45.7034 26.7596 45.1146 27.4099 44.5755 28.0767C44.4428 28.2414 44.252 28.3237 44.053 28.3237H44.0447ZM47.7852 24.4958C47.5944 24.4958 47.412 24.4217 47.2793 24.2653C47.0387 23.9854 47.0636 23.5656 47.3456 23.3269C48.0174 22.7424 48.739 22.1744 49.4854 21.6229C49.784 21.4006 50.207 21.4664 50.4226 21.7628C50.6466 22.0592 50.5802 22.479 50.2816 22.693C49.5684 23.2199 48.8717 23.7714 48.2248 24.3312C48.1004 24.4382 47.9428 24.4958 47.7852 24.4958ZM52.098 21.3183C51.8741 21.3183 51.6584 21.2113 51.534 21.0055C51.335 20.6926 51.4262 20.281 51.7414 20.0835C52.4961 19.606 53.2923 19.1368 54.0885 18.7005C54.412 18.5194 54.8184 18.6429 55.0008 18.9639C55.175 19.285 55.0589 19.6883 54.7354 19.8694C53.9558 20.2893 53.1928 20.742 52.4629 21.203C52.3551 21.2771 52.2224 21.31 52.1063 21.31L52.098 21.3183ZM56.8006 18.7417C56.5518 18.7417 56.3113 18.6017 56.1952 18.363C56.0376 18.0337 56.1786 17.6303 56.5186 17.4739C57.3314 17.0953 58.1774 16.7248 59.0151 16.3873C59.3551 16.2474 59.7532 16.412 59.8859 16.7578C60.0269 17.0953 59.861 17.4904 59.5127 17.6221C58.6916 17.9514 57.8788 18.3054 57.0909 18.6758C56.9997 18.717 56.9001 18.7417 56.8006 18.7417ZM61.7852 16.7413C61.5032 16.7413 61.2461 16.5684 61.1466 16.2885C61.0305 15.9428 61.2129 15.5641 61.5613 15.4406C62.4238 15.1525 63.2947 14.8809 64.1655 14.6339C64.5222 14.5351 64.8954 14.7409 64.9949 15.0949C65.0944 15.4489 64.8871 15.8193 64.5305 15.9181C63.6845 16.1568 62.8385 16.412 62.0008 16.7001C61.9262 16.7248 61.8516 16.7331 61.7852 16.7331V16.7413ZM66.9606 15.3007C66.6537 15.3007 66.3717 15.0867 66.3054 14.7738C66.2307 14.4116 66.4546 14.0577 66.8196 13.9836C67.7568 13.786 68.6608 13.6214 69.5151 13.5061C69.88 13.4567 70.22 13.7119 70.2698 14.0741C70.3196 14.4363 70.0625 14.7738 69.6975 14.8232C68.8764 14.9385 68.0056 15.0949 67.1016 15.2842C67.0518 15.2925 67.002 15.3007 66.9606 15.3007Z" fill="#92BBFF"/>
<path d="M77.855 16.9847C80.4008 17.4995 82.881 15.8462 83.3946 13.2919C83.9082 10.7376 82.2608 8.24955 79.715 7.7347C77.1692 7.21986 74.6891 8.87317 74.1755 11.4275C73.6618 13.9818 75.3092 16.4698 77.855 16.9847Z" fill="#92BBFF"/>
</svg>
