<svg xmlns="http://www.w3.org/2000/svg" xmlns:xlink="http://www.w3.org/1999/xlink" width="180" height="180" viewBox="0 0 180 180">
  <defs>
    <clipPath id="clip-Widget-boxplot-dark">
      <rect width="180" height="180"/>
    </clipPath>
  </defs>
  <g id="Widget-boxplot-dark" clip-path="url(#clip-Widget-boxplot-dark)">
    <g id="Grupo_29" data-name="Grupo 29" transform="translate(-0.516 8.772)">
      <g id="Grupo_8" data-name="Grupo 8" transform="translate(37.959 26.228)">
        <line id="Línea_6" data-name="Línea 6" y2="90.333" transform="translate(6.452 0)" fill="none" stroke="#757575" stroke-linecap="round" stroke-width="3"/>
        <line id="Línea_7" data-name="Línea 7" x1="12.905" transform="translate(0 0)" fill="none" stroke="#757575" stroke-linecap="round" stroke-width="3"/>
        <line id="Línea_8" data-name="Línea 8" x1="12.905" transform="translate(0 90.333)" fill="none" stroke="#757575" stroke-linecap="round" stroke-width="3"/>
      </g>
      <g id="Grupo_10" data-name="Grupo 10" transform="translate(130.597 45.585)">
        <line id="Línea_6-2" data-name="Línea 6" y2="90" transform="translate(6.403 0.415)" fill="none" stroke="#757575" stroke-linecap="round" stroke-width="3"/>
        <line id="Línea_7-2" data-name="Línea 7" x1="13" transform="translate(0.403 0.415)" fill="none" stroke="#757575" stroke-linecap="round" stroke-width="3"/>
        <line id="Línea_8-2" data-name="Línea 8" x1="13" transform="translate(0.403 90.415)" fill="none" stroke="#757575" stroke-linecap="round" stroke-width="3"/>
      </g>
      <g id="Grupo_9" data-name="Grupo 9" transform="translate(84.048 26.228)">
        <line id="Línea_6-3" data-name="Línea 6" y2="105.081" transform="translate(6.452 0)" fill="none" stroke="#757575" stroke-linecap="round" stroke-width="3"/>
        <line id="Línea_7-3" data-name="Línea 7" x1="12.905" transform="translate(0 0)" fill="none" stroke="#757575" stroke-linecap="round" stroke-width="3"/>
        <line id="Línea_8-3" data-name="Línea 8" x1="12.905" transform="translate(0 105.081)" fill="none" stroke="#757575" stroke-linecap="round" stroke-width="3"/>
      </g>
      <path id="Rectángulo_14" data-name="Rectángulo 14" d="M0,0H36.871a0,0,0,0,1,0,0V12.592a4,4,0,0,1-4,4H4a4,4,0,0,1-4-4V0A0,0,0,0,1,0,0Z" transform="translate(25.516 68.168)" fill="#b9f6ca"/>
      <path id="Rectángulo_15" data-name="Rectángulo 15" d="M0,0H37.792a0,0,0,0,1,0,0V38.4a4,4,0,0,1-4,4H4a4,4,0,0,1-4-4V0A0,0,0,0,1,0,0Z" transform="translate(71.604 53.42)" fill="#b9f6ca"/>
      <path id="Rectángulo_13" data-name="Rectángulo 13" d="M4,0H32.871a4,4,0,0,1,4,4V14.748a0,0,0,0,1,0,0H0a0,0,0,0,1,0,0V4A4,4,0,0,1,4,0Z" transform="translate(25.516 53.42)" fill="#6b9ff3"/>
      <path id="Rectángulo_16" data-name="Rectángulo 16" d="M4,0H33.792a4,4,0,0,1,4,4V15.67a0,0,0,0,1,0,0H0a0,0,0,0,1,0,0V4A4,4,0,0,1,4,0Z" transform="translate(71.604 37.75)" fill="#6b9ff3"/>
      <path id="Rectángulo_17" data-name="Rectángulo 17" d="M0,0H36.871a0,0,0,0,1,0,0V14.435a4,4,0,0,1-4,4H4a4,4,0,0,1-4-4V0A0,0,0,0,1,0,0Z" transform="translate(118.614 93.056)" fill="#b9f6ca"/>
      <path id="Rectángulo_18" data-name="Rectángulo 18" d="M4,0H32.871a4,4,0,0,1,4,4V20.279a0,0,0,0,1,0,0H0a0,0,0,0,1,0,0V4A4,4,0,0,1,4,0Z" transform="translate(118.614 72.777)" fill="#6b9ff3"/>
    </g>
  </g>
</svg>
