<svg xmlns="http://www.w3.org/2000/svg" width="421.579" height="151.152" viewBox="0 0 421.579 151.152">
  <g id="dashboard" transform="translate(0.427)">
    <rect id="Rectángulo_1" data-name="Rectángulo 1" width="29" height="74" rx="3" transform="translate(-0.427 77.152)" fill="#3e4249"/>
    <rect id="Rectángulo_2" data-name="Rectángulo 2" width="31" height="97" rx="3" transform="translate(33.573 54.152)" fill="#3e4249"/>
    <rect id="Rectángulo_1-2" data-name="Rectángulo 1" width="29" height="74" rx="3" transform="translate(68.573 77.152)" fill="#3e4249"/>
    <rect id="Rectángulo_2-2" data-name="Rectángulo 2" width="31" height="84" rx="3" transform="translate(102.573 67.152)" fill="#3e4249"/>
    <rect id="Rectángulo_1-3" data-name="Rectángulo 1" width="29" height="121" rx="3" transform="translate(137.573 30.152)" fill="#3e4249"/>
    <rect id="Rectángulo_33" data-name="Rectángulo 33" width="29" height="48" rx="3" transform="translate(205.573 103.152)" fill="#3e4249"/>
    <rect id="Rectángulo_2-3" data-name="Rectángulo 2" width="29" height="97" rx="3" transform="translate(171.573 54.152)" fill="#3e4249"/>
    <path id="Trazado_14" data-name="Trazado 14" d="M130.951,357.913A57.955,57.955,0,0,1,73.133,302.75H55.426a75.573,75.573,0,0,0,151.05,0H188.769A57.955,57.955,0,0,1,130.951,357.913Z" transform="translate(214.676 -224.497)" fill="#3e4249"/>
    <path id="Trazado_15" data-name="Trazado 15" d="M168.014,318.1h17.707a75.664,75.664,0,0,0-72.971-72.8V263A57.956,57.956,0,0,1,168.014,318.1Z" transform="translate(235.431 -245.298)" fill="#3e4249"/>
    <path id="Trazado_16" data-name="Trazado 16" d="M128.057,263.011V245.3a75.667,75.667,0,0,0-72.631,72.8H73.133A57.962,57.962,0,0,1,128.057,263.011Z" transform="translate(214.676 -245.296)" fill="#3e4249"/>
  </g>
</svg>
