<svg width="160" height="160" viewBox="0 0 160 160" fill="none" xmlns="http://www.w3.org/2000/svg">
<g filter="url(#filter0_d_6655_33517)">
<path d="M20 56C20 47.1634 27.1634 40 36 40H124C132.837 40 140 47.1634 140 56V104C140 112.837 132.837 120 124 120H36C27.1634 120 20 112.837 20 104V56Z" fill="#2C2F34"/>
</g>
<g filter="url(#filter1_d_6655_33517)">
<path fill-rule="evenodd" clip-rule="evenodd" d="M124 42H36C28.268 42 22 48.268 22 56V104C22 111.732 28.268 118 36 118H124C131.732 118 138 111.732 138 104V56C138 48.268 131.732 42 124 42ZM36 40C27.1634 40 20 47.1634 20 56V104C20 112.837 27.1634 120 36 120H124C132.837 120 140 112.837 140 104V56C140 47.1634 132.837 40 124 40H36Z" fill="#344155"/>
</g>
<path d="M98.0005 80.5138C98.0005 81.0661 97.5528 81.5138 97.0005 81.5138H81.1311C80.6072 81.5138 80.1721 81.1094 80.1338 80.5869L79.9889 78.6105C79.9733 78.3973 80.0264 78.1847 80.1404 78.0039L89.8389 62.625C90.0221 62.3346 90.3414 62.1584 90.6848 62.1584H92.4589C93.2293 62.1584 93.7104 62.993 93.3243 63.6596L89.8625 69.6367L84.9898 77.4025H97.0005C97.5528 77.4025 98.0005 77.8502 98.0005 78.4025V80.5138ZM95.2766 85.7925C95.2766 86.3448 94.8288 86.7925 94.2766 86.7925H91.1839C90.6316 86.7925 90.1839 86.3448 90.1839 85.7925V63.1584C90.1839 62.6062 90.6316 62.1584 91.1839 62.1584H94.2766C94.8288 62.1584 95.2766 62.6062 95.2766 63.1584V85.7925Z" fill="#5788D9"/>
<path d="M78.644 85.7927C78.644 86.345 78.1963 86.7927 77.644 86.7927H62.6742C62.122 86.7927 61.6742 86.345 61.6742 85.7927V83.7036C61.6742 83.4491 61.7713 83.2042 61.9456 83.0187L69.6262 74.8479C70.4157 73.9907 71.0361 73.2406 71.4873 72.5977C71.9497 71.9435 72.2768 71.3513 72.4686 70.8212C72.6603 70.2911 72.7562 69.7948 72.7562 69.3323C72.7562 68.2608 72.4911 67.4261 71.961 66.8283C71.4422 66.2192 70.6921 65.9147 69.7108 65.9147C68.9776 65.9147 68.3573 66.0951 67.8497 66.4561C67.3421 66.8057 66.953 67.2851 66.6823 67.8942C66.5396 68.223 66.4361 68.5791 66.3719 68.9625C66.2807 69.5072 65.8454 69.9583 65.2931 69.9583H62.1836C61.6313 69.9583 61.1769 69.5091 61.2381 68.9602C61.3612 67.8565 61.6927 66.83 62.2326 65.8808C62.9319 64.6401 63.9245 63.6532 65.2103 62.92C66.5074 62.1756 68.0414 61.8033 69.8123 61.8033C72.4404 61.8033 74.4425 62.4293 75.8185 63.6814C77.1946 64.9334 77.8827 66.6535 77.8827 68.8417C77.8827 69.9583 77.6571 71.0242 77.2059 72.0393C76.7547 73.0545 76.1118 74.0753 75.2771 75.1017C74.4537 76.1281 73.4837 77.2222 72.3671 78.384L68.2727 82.6814H77.644C78.1963 82.6814 78.644 83.1291 78.644 83.6814V85.7927Z" fill="#5788D9"/>
<rect x="59" y="96.6545" width="12.5091" height="4.69091" rx="2.34545" fill="#344155"/>
<rect x="74.6367" y="96.6545" width="27.3636" height="4.69091" rx="2.34545" fill="#344155"/>
<defs>
<filter id="filter0_d_6655_33517" x="12" y="35" width="136" height="96" filterUnits="userSpaceOnUse" color-interpolation-filters="sRGB">
<feFlood flood-opacity="0" result="BackgroundImageFix"/>
<feColorMatrix in="SourceAlpha" type="matrix" values="0 0 0 0 0 0 0 0 0 0 0 0 0 0 0 0 0 0 127 0" result="hardAlpha"/>
<feOffset dy="3"/>
<feGaussianBlur stdDeviation="4"/>
<feComposite in2="hardAlpha" operator="out"/>
<feColorMatrix type="matrix" values="0 0 0 0 0 0 0 0 0 0 0 0 0 0 0 0 0 0 0.1 0"/>
<feBlend mode="normal" in2="BackgroundImageFix" result="effect1_dropShadow_6655_33517"/>
<feBlend mode="normal" in="SourceGraphic" in2="effect1_dropShadow_6655_33517" result="shape"/>
</filter>
<filter id="filter1_d_6655_33517" x="12" y="35" width="136" height="96" filterUnits="userSpaceOnUse" color-interpolation-filters="sRGB">
<feFlood flood-opacity="0" result="BackgroundImageFix"/>
<feColorMatrix in="SourceAlpha" type="matrix" values="0 0 0 0 0 0 0 0 0 0 0 0 0 0 0 0 0 0 127 0" result="hardAlpha"/>
<feOffset dy="3"/>
<feGaussianBlur stdDeviation="4"/>
<feComposite in2="hardAlpha" operator="out"/>
<feColorMatrix type="matrix" values="0 0 0 0 0 0 0 0 0 0 0 0 0 0 0 0 0 0 0.1 0"/>
<feBlend mode="normal" in2="BackgroundImageFix" result="effect1_dropShadow_6655_33517"/>
<feBlend mode="normal" in="SourceGraphic" in2="effect1_dropShadow_6655_33517" result="shape"/>
</filter>
</defs>
</svg>
