<svg xmlns="http://www.w3.org/2000/svg" xmlns:xlink="http://www.w3.org/1999/xlink" width="180" height="180" viewBox="0 0 180 180">
  <defs>
    <linearGradient id="linear-gradient" x1="0.5" y1="0.284" x2="0.5" y2="1.239" gradientUnits="objectBoundingBox">
      <stop offset="0" stop-color="#6b9ff3"/>
      <stop offset="1" stop-color="#cce0f4" stop-opacity="0"/>
    </linearGradient>
    <clipPath id="clip-Widget-mixed-dark">
      <rect width="180" height="180"/>
    </clipPath>
  </defs>
  <g id="Widget-mixed-dark" clip-path="url(#clip-Widget-mixed-dark)">
    <g id="Grupo_1" data-name="Grupo 1" transform="translate(-8.282 10.053)">
      <path id="Trazado_5" data-name="Trazado 5" d="M37.5,134.422C47.793,79.34,56.486,62.394,63.549,62.476c8.56.1,12.923,25.185,23.568,24.809,4.451-.158,8.132-4.7,18.607-24.809,13.224-25.391,13.608-35.505,17.366-35.973,5.478-.682,15.6,18.953,35.973,107.919" transform="translate(0)" opacity="0.47" fill="url(#linear-gradient)"/>
    </g>
    <g id="Grupo_5" data-name="Grupo 5" transform="translate(55 37.274)">
      <g id="Grupo_4" data-name="Grupo 4" transform="translate(47 23)">
        <rect id="Rect치ngulo_1" data-name="Rect치ngulo 1" width="25" height="64" rx="3" transform="translate(0 19.726)" fill="#b9f6ca"/>
        <rect id="Rect치ngulo_2" data-name="Rect치ngulo 2" width="25" height="84" rx="3" transform="translate(29 -0.274)" fill="#6b9ff3"/>
      </g>
    </g>
    <g id="Grupo_3" data-name="Grupo 3" transform="translate(-0.203 22.448)">
      <path id="Trazado_2" data-name="Trazado 2" d="M26.3,84.939l24.447,27.219,29.1-32.514h24.906L126.1,59.552" transform="translate(-0.373 -33)" fill="none" stroke="#b9f6ca" stroke-linecap="round" stroke-linejoin="round" stroke-width="5"/>
    </g>
  </g>
</svg>
