<svg xmlns="http://www.w3.org/2000/svg" xmlns:xlink="http://www.w3.org/1999/xlink" width="180" height="180" viewBox="0 0 180 180">
  <defs>
    <linearGradient id="linear-gradient" x1="0.5" x2="0.5" y2="1" gradientUnits="objectBoundingBox">
      <stop offset="0" stop-color="#4687f1"/>
      <stop offset="1" stop-color="#fff" stop-opacity="0"/>
    </linearGradient>
    <linearGradient id="linear-gradient-2" x1="0.5" x2="0.5" y2="1" gradientUnits="objectBoundingBox">
      <stop offset="0" stop-color="#51de8c"/>
      <stop offset="1" stop-color="#fff" stop-opacity="0"/>
    </linearGradient>
    <clipPath id="clip-Widget-radar-dark">
      <rect width="180" height="180"/>
    </clipPath>
  </defs>
  <g id="Widget-radar-dark" clip-path="url(#clip-Widget-radar-dark)">
    <g id="Grupo_26" data-name="Grupo 26" transform="translate(18 19.92)">
      <g id="Polígono_1" data-name="Polígono 1" transform="translate(0 0.08)" fill="none">
        <path d="M72,0l57.74,27.729L144,90.035,104.043,140H39.957L0,90.035,14.26,27.729Z" stroke="none"/>
        <path d="M 72 1.109329223632812 L 15.12774658203125 28.42156982421875 L 1.082504272460938 89.787109375 L 40.43770599365234 139 L 103.5622940063477 138.9999847412109 L 142.9174957275391 89.78709411621094 L 128.8722381591797 28.42154693603516 L 72 1.109329223632812 M 72 0 L 129.7395172119141 27.72872161865234 L 144 90.03457641601562 L 104.0430145263672 139.9999847412109 L 39.95697784423828 140 L 0 90.03459930419922 L 14.26046752929688 27.72873687744141 L 72 0 Z" stroke="none" fill="#8c8c8c"/>
      </g>
      <g id="Polígono_2" data-name="Polígono 2" transform="translate(11 10.08)" fill="none">
        <path d="M61,0l48.918,23.767L122,77.172,88.148,120h-54.3L0,77.173,12.082,23.767Z" stroke="none"/>
        <path d="M 61 1.111778259277344 L 12.95108032226562 24.45690155029297 L 1.080764770507812 76.92717742919922 L 34.33669281005859 119 L 87.66330718994141 118.9999847412109 L 120.9192352294922 76.92717742919922 L 109.0488967895508 24.45688629150391 L 61 1.111778259277344 M 61 0 L 109.9181976318359 23.76746368408203 L 122 77.17250061035156 L 88.14755249023438 119.9999847412109 L 33.85244750976562 120 L 0 77.17250061035156 L 12.081787109375 23.76748657226562 L 61 0 Z" stroke="none" fill="#8c8c8c"/>
      </g>
      <g id="Polígono_3" data-name="Polígono 3" transform="translate(22 22.08)" fill="none">
        <path d="M50,0,90.1,19.014,100,61.738,72.252,96h-44.5L0,61.738,9.9,19.014Z" stroke="none"/>
        <path d="M 49.9999885559082 1.106742858886719 L 10.76815795898438 19.71051025390625 L 1.084434509277344 61.48812866210938 L 28.22483825683594 95 L 71.77516174316406 95 L 98.91556549072266 61.48811340332031 L 89.23181915283203 19.71050262451172 L 49.9999885559082 1.106742858886719 M 49.9999885559082 0 L 90.09687805175781 19.01397705078125 L 100 61.73799896240234 L 72.25209045410156 96 L 27.74790954589844 96 L 0 61.73801422119141 L 9.903091430664062 19.01398468017578 L 49.9999885559082 0 Z" stroke="none" fill="#8c8c8c"/>
      </g>
      <g id="Polígono_4" data-name="Polígono 4" transform="translate(35 34.08)" fill="none">
        <path d="M37,0,66.672,14.26,74,46.3,53.467,72H20.533L0,46.3,7.328,14.26Z" stroke="none"/>
        <path d="M 36.9999885559082 1.1094970703125 L 8.195709228515625 14.95310211181641 L 1.082389831542969 46.05615615844727 L 21.0144157409668 71 L 52.98557281494141 71 L 72.91761016845703 46.05614471435547 L 65.80427551269531 14.95309066772461 L 36.9999885559082 1.1094970703125 M 36.9999885559082 0 L 66.67169189453125 14.26047897338867 L 74 46.30349731445312 L 53.46653747558594 72 L 20.53345108032227 72 L 0 46.30351257324219 L 7.328292846679688 14.26049041748047 L 36.9999885559082 0 Z" stroke="none" fill="#8c8c8c"/>
      </g>
      <g id="Polígono_5" data-name="Polígono 5" transform="translate(47 45.08)" fill="none">
        <path d="M25,0,45.048,9.9,50,32.155,36.126,50H13.874L0,32.155,4.952,9.9Z" stroke="none"/>
        <path d="M 25 1.115345001220703 L 5.823688507080078 10.58766555786133 L 1.078361511230469 31.91299438476562 L 14.36315155029297 49 L 35.6368408203125 48.9999885559082 L 48.92163848876953 31.91298484802246 L 44.17630004882812 10.58765411376953 L 25 1.115345001220703 M 25 0 L 45.04843902587891 9.903110504150391 L 50 32.15519714355469 L 36.12604141235352 49.9999885559082 L 13.87395095825195 50 L 0 32.15521240234375 L 4.951549530029297 9.903118133544922 L 25 0 Z" stroke="none" fill="#8c8c8c"/>
      </g>
      <g id="Polígono_6" data-name="Polígono 6" transform="translate(57 55.08)" fill="none">
        <path d="M15,0,27.029,5.942,30,19.293,21.676,30H8.324L0,19.293,2.971,5.942Z" stroke="none"/>
        <path d="M 15 1.115345001220703 L 3.843069076538086 6.626413345336914 L 1.078361511230469 19.0509147644043 L 8.813570022583008 29 L 21.18642997741699 29 L 28.92163848876953 19.05090522766113 L 26.15692138671875 6.626413345336914 L 15 1.115345001220703 M 15 0 L 27.02906036376953 5.941869735717773 L 30 19.29312133789062 L 21.67562866210938 30 L 8.324369430541992 30 L 0 19.29312896728516 L 2.970930099487305 5.941869735717773 L 15 0 Z" stroke="none" fill="#8c8c8c"/>
      </g>
      <g id="Polígono_7" data-name="Polígono 7" transform="translate(65 63.08)" fill="none">
        <path d="M7,0l5.614,2.773L14,9l-3.885,5H3.885L0,9,1.386,2.773Z" stroke="none"/>
        <path d="M 6.99999475479126 1.115342140197754 L 2.258569717407227 3.45740795135498 L 1.078361511230469 8.76124382019043 L 4.373908996582031 13 L 9.626091003417969 13 L 12.92163848876953 8.761244773864746 L 11.74142169952393 3.457413673400879 L 6.99999475479126 1.115342140197754 M 7 0 L 12.61355972290039 2.772870063781738 L 14 9.003459930419922 L 10.11528968811035 14 L 3.884710311889648 14 L 0 9.003459930419922 L 1.386429786682129 2.772870063781738 L 7 0 Z" stroke="none" fill="#8c8c8c"/>
      </g>
    </g>
    <g id="Grupo_27" data-name="Grupo 27" transform="translate(18 19.92)">
      <path id="Trazado_27" data-name="Trazado 27" d="M3072,17V87.08" transform="translate(-3000 -17)" fill="none" stroke="#8c8c8c" stroke-width="1"/>
      <path id="Trazado_28" data-name="Trazado 28" d="M3039.122,160.071l31.616-70.291,31.4,70.291" transform="translate(-2998.685 -19.911)" fill="none" stroke="#8c8c8c" stroke-width="1"/>
      <path id="Trazado_29" data-name="Trazado 29" d="M2997,109.862l71.835-19.5,71.425,19.5" transform="translate(-2997 -19.934)" fill="none" stroke="#8c8c8c" stroke-width="1"/>
      <path id="Trazado_30" data-name="Trazado 30" d="M3012.007,45.656l57.607,42.781,57.614-41.258" transform="translate(-2997.6 -18.146)" fill="none" stroke="#8c8c8c" stroke-width="1"/>
    </g>
    <path id="Trazado_24" data-name="Trazado 24" d="M3070.337,17l-39.914,41.909,66.143,87.489L3085.6,90.625l42.344-45.366-57.608,17.525Z" transform="translate(-2980.337 2.92)" stroke="#4687f1" stroke-linecap="round" stroke-linejoin="round" stroke-width="1" fill="url(#linear-gradient)"/>
    <path id="Trazado_26" data-name="Trazado 26" d="M3008.41,105.022l33.785,42.49,76.414-44.8-68.974-29.371-39.019-27.682,9.414,57.054Z" transform="translate(-2979.456 1.774)" stroke="#69f0ae" stroke-linecap="round" stroke-linejoin="round" stroke-width="1" fill="url(#linear-gradient-2)"/>
  </g>
</svg>
