<svg xmlns="http://www.w3.org/2000/svg" xmlns:xlink="http://www.w3.org/1999/xlink" width="180" height="180" viewBox="0 0 180 180">
  <defs>
    <clipPath id="clip-Widget-timeline-dark">
      <rect width="180" height="180"/>
    </clipPath>
  </defs>
  <g id="Widget-timeline-dark" clip-path="url(#clip-Widget-timeline-dark)">
    <g id="Grupo_6" data-name="Grupo 6" transform="translate(0 -1.295)">
      <rect id="Rectángulo_1" data-name="Rectángulo 1" width="14.752" height="37.91" rx="3" transform="translate(61.91 45.295) rotate(90)" fill="#b9f6ca"/>
      <rect id="Rectángulo_10" data-name="Rectángulo 10" width="14.752" height="37.91" rx="3" transform="translate(142.654 45.295) rotate(90)" fill="#b9f6ca"/>
      <rect id="Rectángulo_11" data-name="Rectángulo 11" width="14.752" height="37.91" rx="3" transform="translate(142.654 97.295) rotate(90)" fill="#b9f6ca"/>
      <rect id="Rectángulo_7" data-name="Rectángulo 7" width="14.752" height="37.91" rx="3" transform="translate(61.91 97.295) rotate(90)" fill="#b9f6ca"/>
      <rect id="Rectángulo_3" data-name="Rectángulo 3" width="14.752" height="24.565" rx="3" transform="translate(95.609 45.295) rotate(90)" fill="#b9f6ca"/>
      <rect id="Rectángulo_6" data-name="Rectángulo 6" width="14.752" height="24.565" rx="3" transform="translate(95.609 97.295) rotate(90)" fill="#b9f6ca"/>
      <rect id="Rectángulo_5" data-name="Rectángulo 5" width="14.752" height="24.565" rx="3" transform="translate(120.174 71.295) rotate(90)" fill="#6b9ff3"/>
      <rect id="Rectángulo_8" data-name="Rectángulo 8" width="14.752" height="24.565" rx="3" transform="translate(120.174 123.295) rotate(90)" fill="#6b9ff3"/>
      <rect id="Rectángulo_4" data-name="Rectángulo 4" width="14.752" height="62.565" rx="3" transform="translate(86.564 71.295) rotate(90)" fill="#6b9ff3"/>
      <rect id="Rectángulo_9" data-name="Rectángulo 9" width="14.752" height="62.565" rx="3" transform="translate(86.564 123.295) rotate(90)" fill="#6b9ff3"/>
    </g>
  </g>
</svg>
