<svg xmlns="http://www.w3.org/2000/svg" width="52" height="52" viewBox="0 0 52 52"><g transform="translate(-512 -426)"><circle cx="26" cy="26" r="26" transform="translate(512 426)" fill="rgba(107,159,243,0.15)"/><g transform="translate(519.561 433.561)"><path d="M0,0H36.879V36.879H0Z" fill="none"/><path d="M0,0H36.879V36.879H0Z" fill="none"/><path d="M2,15.451A8.447,8.447,0,0,1,10.451,7H26.586a6.146,6.146,0,0,1,0,12.293H13.525a3.842,3.842,0,0,1,0-7.683H25.049v3.073H13.386c-.845,0-.845,1.537,0,1.537h13.2a3.073,3.073,0,0,0,0-6.146H10.451a5.378,5.378,0,0,0,0,10.756h14.6V23.9h-14.6A8.447,8.447,0,0,1,2,15.451Z" transform="translate(1.073 3.756)" fill="#6b9ff3"/></g></g></svg>