<svg xmlns="http://www.w3.org/2000/svg" width="52" height="52" viewBox="0 0 52 52"><g transform="translate(-840 -570)"><circle cx="26" cy="26" r="26" transform="translate(840 570)" fill="rgba(107,159,243,0.15)"/><path d="M20.691-20.086l-4.227-4.228A3.642,3.642,0,0,0,13.9-25.375H3.625A3.625,3.625,0,0,0,0-21.75V0A3.625,3.625,0,0,0,3.625,3.625h14.5A3.636,3.636,0,0,0,21.75,0V-17.525A3.628,3.628,0,0,0,20.691-20.086ZM19.031,0a.906.906,0,0,1-.906.906H3.626A.906.906,0,0,1,2.72,0V-21.743a.906.906,0,0,1,.906-.906h9.062v4.524A1.813,1.813,0,0,0,14.5-16.312h4.48V0Zm-7.59-9.17q.075-.228.146-.461a14.275,14.275,0,0,0,.424-2.972,1.9,1.9,0,0,0-1.9-1.9,1.9,1.9,0,0,0-1.9,1.9A10.425,10.425,0,0,0,9-9.074,28.415,28.415,0,0,1,7.564-5.793,10.274,10.274,0,0,0,4.573-3.75a1.936,1.936,0,0,0-.531,1.4,1.9,1.9,0,0,0,1.9,1.9A1.9,1.9,0,0,0,7.48-1.246,28.156,28.156,0,0,0,9.205-4.019a18.739,18.739,0,0,1,3.052-.906,10,10,0,0,0,2.589,1.3,2.521,2.521,0,0,0,.817.133A2.045,2.045,0,0,0,17.71-5.58a2.091,2.091,0,0,0-2.088-2.088h-.21a23.144,23.144,0,0,0-2.57.3,6.939,6.939,0,0,1-1.4-1.806Zm-5.2,7.04a.388.388,0,0,1-.681-.3.371.371,0,0,1,.1-.258,7.935,7.935,0,0,1,1.8-1.344c-.535.923-.988,1.58-1.221,1.9Zm3.874-10.852a.38.38,0,0,1,.38.38,12.437,12.437,0,0,1-.325,2.385A8.249,8.249,0,0,1,9.737-12.6.38.38,0,0,1,10.116-12.982ZM9.193-5.647c.374-.764.749-1.612,1.1-2.532A8.515,8.515,0,0,0,11.7-6.368,22.41,22.41,0,0,0,9.193-5.647Zm6.236-.5h.19a.58.58,0,0,1,.569.611.529.529,0,0,1-.528.528,1.02,1.02,0,0,1-.331-.053,8.721,8.721,0,0,1-1.843-.86C14.63-6.1,15.412-6.146,15.429-6.146Z" transform="translate(855 607)" fill="#6b9ff3"/></g></svg>