<svg xmlns="http://www.w3.org/2000/svg" width="52" height="52" viewBox="0 0 52 52"><g transform="translate(-903 -570)"><circle cx="26" cy="26" r="26" transform="translate(903 570)" fill="rgba(107,159,243,0.15)"/><path d="M18.975-15.463,12.688-9.17,9.974-11.838a1.359,1.359,0,0,0-1.922,0,1.359,1.359,0,0,0,0,1.922l3.625,3.625a1.535,1.535,0,0,0,1.01.4,1.35,1.35,0,0,0,.961-.4l7.25-7.25a1.359,1.359,0,0,0,0-1.922A1.365,1.365,0,0,0,18.975-15.463ZM14.5-25.375A14.5,14.5,0,0,0,0-10.875a14.5,14.5,0,0,0,14.5,14.5A14.5,14.5,0,0,0,29-10.875,14.5,14.5,0,0,0,14.5-25.375ZM14.5.906A11.794,11.794,0,0,1,2.719-10.875,11.794,11.794,0,0,1,14.5-22.656,11.794,11.794,0,0,1,26.281-10.875,11.794,11.794,0,0,1,14.5.906Z" transform="translate(915 607.375)" fill="#6b9ff3"/></g></svg>