<svg xmlns="http://www.w3.org/2000/svg" width="52" height="52" viewBox="0 0 52 52"><g transform="translate(-778 -570)"><circle cx="26" cy="26" r="26" transform="translate(778 570)" fill="rgba(107,159,243,0.15)"/><path d="M0,0H34.248V34.248H0Z" transform="translate(787 579)" fill="none"/><path d="M8.708,20.978H18.7v2.854H8.708Zm0-5.708h14.27v2.854H8.708Zm0-5.708h14.27v2.854H8.708ZM25.832,3.854H19.867a4.264,4.264,0,0,0-8.048,0H5.854a2.5,2.5,0,0,0-.571.057,2.883,2.883,0,0,0-2.055,1.7A2.749,2.749,0,0,0,3,6.708V26.686A2.928,2.928,0,0,0,3.228,27.8a3.024,3.024,0,0,0,.614.913,2.865,2.865,0,0,0,1.441.785,3.7,3.7,0,0,0,.571.043H25.832a2.862,2.862,0,0,0,2.854-2.854V6.708A2.862,2.862,0,0,0,25.832,3.854ZM15.843,3.5a1.07,1.07,0,1,1-1.07,1.07A1.078,1.078,0,0,1,15.843,3.5Zm9.989,23.188H5.854V6.708H25.832Z" transform="translate(788.281 579.427)" fill="#6b9ff3"/></g></svg>