<svg xmlns="http://www.w3.org/2000/svg" width="52" height="52" viewBox="0 0 52 52"><g transform="translate(-320 -275)"><circle cx="26" cy="26" r="26" transform="translate(320 275)" fill="rgba(107,159,243,0.15)"/><path d="M12.234-18.578H27.641A1.356,1.356,0,0,0,29-19.937,1.359,1.359,0,0,0,27.641-21.3H12.234a1.358,1.358,0,0,0-1.359,1.359A1.356,1.356,0,0,0,12.234-18.578ZM2.722-3.625A1.815,1.815,0,0,0,.906-1.812,1.816,1.816,0,0,0,2.722,0,1.809,1.809,0,0,0,4.531-1.812,1.809,1.809,0,0,0,2.722-3.625Zm24.918-8.609H12.234a1.356,1.356,0,0,0-1.359,1.359,1.36,1.36,0,0,0,1.359,1.359H27.641A1.356,1.356,0,0,0,29-10.875,1.356,1.356,0,0,0,27.641-12.234Zm0,9.063H10.422A1.356,1.356,0,0,0,9.063-1.812,1.36,1.36,0,0,0,10.422-.453H27.641A1.36,1.36,0,0,0,29-1.812,1.356,1.356,0,0,0,27.641-3.172ZM6.695-23.113,3.573-19.649,2.321-20.9A1.359,1.359,0,0,0,.4-20.9a1.359,1.359,0,0,0,0,1.922l2.266,2.266a1.322,1.322,0,0,0,.91.4h.035a1.36,1.36,0,0,0,.975-.449l4.078-4.531a1.361,1.361,0,0,0-.1-1.921A1.3,1.3,0,0,0,6.695-23.113Zm0,9.06L3.573-10.586,2.321-11.838a1.359,1.359,0,0,0-1.922,0,1.359,1.359,0,0,0,0,1.922L2.664-7.65a1.322,1.322,0,0,0,.91.4h.035A1.36,1.36,0,0,0,4.585-7.7l4.078-4.531a1.361,1.361,0,0,0-.1-1.921A1.3,1.3,0,0,0,6.695-14.053Z" transform="translate(332 312)" fill="#6b9ff3"/></g></svg>