<svg xmlns="http://www.w3.org/2000/svg" width="52" height="52" viewBox="0 0 52 52"><g transform="translate(-245 -570)"><circle cx="26" cy="26" r="26" transform="translate(245 570)" fill="rgba(107,159,243,0.15)"/><path d="M2.722-12.687A1.815,1.815,0,0,0,.906-10.875,1.816,1.816,0,0,0,2.722-9.062a1.809,1.809,0,0,0,1.809-1.812A1.809,1.809,0,0,0,2.722-12.687Zm0-9.062A1.816,1.816,0,0,0,.906-19.937a1.816,1.816,0,0,0,1.816,1.813,1.809,1.809,0,0,0,1.809-1.812A1.81,1.81,0,0,0,2.722-21.75Zm0,18.125A1.815,1.815,0,0,0,.906-1.812,1.816,1.816,0,0,0,2.722,0,1.809,1.809,0,0,0,4.531-1.812,1.809,1.809,0,0,0,2.722-3.625ZM27.641-21.3H10.371a1.337,1.337,0,0,0-1.308,1.308,1.431,1.431,0,0,0,1.308,1.41h17.27A1.35,1.35,0,0,0,29-19.887,1.437,1.437,0,0,0,27.641-21.3Zm0,18.125H10.371A1.346,1.346,0,0,0,9.063-1.812,1.348,1.348,0,0,0,10.371-.453h17.27A1.36,1.36,0,0,0,29-1.812,1.358,1.358,0,0,0,27.641-3.172Zm0-9.062H10.371a1.346,1.346,0,0,0-1.308,1.359,1.348,1.348,0,0,0,1.308,1.359h17.27A1.356,1.356,0,0,0,29-10.875,1.356,1.356,0,0,0,27.641-12.234Z" transform="translate(256 607)" fill="#6b9ff3"/></g></svg>