<svg xmlns="http://www.w3.org/2000/svg" width="52" height="52" viewBox="0 0 52 52"><g transform="translate(-180 -570)"><circle cx="26" cy="26" r="26" transform="translate(180 570)" fill="rgba(107,159,243,0.15)"/><path d="M-1.611-17.607a1.426,1.426,0,0,0-.732-.205A1.406,1.406,0,0,0-3.75-16.406V-6.094A1.407,1.407,0,0,0-2.344-4.687a1.407,1.407,0,0,0,.734-.206L6.827-10.05a1.411,1.411,0,0,0,.673-1.2,1.407,1.407,0,0,0-.673-1.2ZM0-26.25a15,15,0,0,0-15,15,15,15,0,0,0,15,15,15,15,0,0,0,15-15A15,15,0,0,0,0-26.25ZM0,.938A12.2,12.2,0,0,1-12.187-11.25,12.2,12.2,0,0,1,0-23.437,12.2,12.2,0,0,1,12.188-11.25,12.2,12.2,0,0,1,0,.938Z" transform="translate(206 607)" fill="#6b9ff3"/><path d="M0,0H36V36H0Z" transform="translate(188 578)" fill="none"/></g></svg>