<svg width="232" height="145" viewBox="0 0 232 145" fill="none" xmlns="http://www.w3.org/2000/svg">
<path d="M101.195 7.18051C101.338 7.32403 101.41 7.46756 101.554 7.61108C101.697 7.75461 101.697 7.75461 101.697 7.82637C101.841 7.9699 101.697 7.82637 101.697 7.82637C101.912 8.11343 102.128 8.40048 102.343 8.68753C102.774 9.26164 103.204 9.90751 103.563 10.5534C104.352 11.7734 104.998 13.0651 105.644 14.3568C106.29 15.6486 107.366 15.505 108.084 15.0027C108.802 14.5004 109.16 13.4957 108.73 12.5627C107.438 9.76398 105.788 7.10874 103.778 4.74056C101.769 2.37237 101.841 4.09469 101.266 4.74056C100.692 5.38642 100.621 6.53464 101.266 7.25227L101.195 7.18051Z" fill="black"/>
<path d="M117.843 10.266C117.843 10.1943 117.7 10.1225 117.628 10.0507V1.79797C117.628 0.86505 116.839 -0.0678717 115.834 0.0038915C114.829 0.0038915 114.04 0.793287 114.04 1.79797C114.04 5.09908 114.04 8.32843 114.04 11.6295C114.04 12.2754 114.399 12.8495 114.901 13.2083C115.762 13.6389 116.839 13.5671 117.485 12.8495C118.131 12.2036 118.346 11.0554 117.772 10.266H117.843Z" fill="black"/>
<path d="M127.531 5.17122C127.316 5.53003 127.101 5.81709 126.886 6.10414C126.67 6.39119 126.742 6.24767 126.742 6.31943C126.598 6.53472 126.957 6.03238 126.742 6.31943C126.527 6.60648 126.527 6.60648 126.383 6.75001C125.881 7.32411 125.378 7.89822 124.876 8.47233C123.728 9.83583 122.651 11.2711 122.077 12.9934C121.503 14.7157 122.436 15.0028 123.297 15.2181C124.159 15.4334 125.163 14.931 125.522 13.9981C125.881 13.0652 125.594 13.7828 125.666 13.6393C125.809 13.2805 125.666 13.6393 125.666 13.6393C125.666 13.6393 125.881 13.2087 125.881 13.1369C126.024 12.8499 126.24 12.4911 126.455 12.204C126.67 11.917 126.67 11.917 126.742 11.7734C126.814 11.6299 127.101 11.4146 126.742 11.7734C126.742 11.7734 126.814 11.6299 126.886 11.6299C127.101 11.3429 127.388 11.0558 127.603 10.7688C128.68 9.54878 129.756 8.40056 130.545 6.9653C131.335 5.53003 130.761 4.95593 129.9 4.52535C129.038 4.09477 127.962 4.31006 127.46 5.17122H127.531Z" fill="black"/>
<path d="M180.637 97.0275C202.435 97.0275 220.107 79.3562 220.107 57.5577C220.107 35.7591 202.435 18.0879 180.637 18.0879C158.838 18.0879 141.167 35.7591 141.167 57.5577C141.167 79.3562 158.838 97.0275 180.637 97.0275Z" fill="#6B9FF3"/>
<path d="M51.678 96.7418C73.4766 96.7418 91.1478 79.0706 91.1478 57.272C91.1478 35.4735 73.4766 17.8022 51.678 17.8022C29.8795 17.8022 12.2083 35.4735 12.2083 57.272C12.2083 79.0706 29.8795 96.7418 51.678 96.7418Z" fill="#EC8484"/>
<path d="M44.6453 53.0378C42.2772 51.2437 39.2631 50.0955 36.249 50.4543C33.235 50.8131 30.795 52.4636 29.2162 54.9036C27.6375 57.3435 29.0727 56.913 29.8621 57.3435C30.6515 57.7741 31.7997 57.5588 32.3021 56.6977C32.8044 55.8365 33.3785 55.2624 34.1679 54.8318C34.9573 54.4013 35.8902 53.9707 36.6796 53.9707C38.976 53.8271 40.9854 54.6883 42.8513 56.1236C44.7171 57.5588 44.8606 56.2671 45.2912 55.4777C45.7218 54.6883 45.4347 53.6119 44.6453 53.0378Z" fill="black"/>
<path d="M75.5041 52.7511C61.0079 56.9852 46.44 61.0757 31.8721 65.0944C30.078 65.5968 30.2933 67.965 31.8721 68.5391C44.0718 72.8449 57.8504 74.926 70.2654 70.3331C71.1983 69.9743 71.7724 69.1132 71.4854 68.1085C71.2701 67.2473 70.1936 66.5297 69.2607 66.8885C59.3574 70.5484 48.6647 69.759 38.6178 66.8885C51.2481 63.3721 63.8067 59.7839 76.437 56.124C78.6617 55.4781 77.7288 52.0335 75.5041 52.6794V52.7511Z" fill="black"/>
<path d="M70.9123 49.2346C73.2087 49.2346 73.2087 45.6465 70.9123 45.6465C68.6158 45.6465 68.6158 49.2346 70.9123 49.2346Z" fill="black"/>
<path d="M45.3638 89.996C47.2297 92.1489 48.8085 94.5171 50.172 97.0288C51.5355 99.5405 51.5355 99.4688 51.392 100.761C51.2484 102.052 50.3155 103.344 49.7414 104.42L47.5167 108.511C46.7991 109.803 46.0097 111.094 45.5791 112.53C44.718 115.113 45.2921 118.127 47.6603 119.706C50.0285 121.285 51.392 117.84 49.4544 116.62C47.5167 115.4 49.5261 112.243 50.2437 110.951C51.679 108.367 53.3296 105.784 54.4778 102.985C55.626 100.186 54.4778 97.2441 53.0425 94.5889C51.6072 91.9336 49.8849 89.6372 48.0191 87.3408C46.501 86 46.1532 86.6949 45.5074 87.3408C44.8615 87.9867 44.3532 88.7822 44.9991 89.4998L45.3638 89.996Z" fill="black"/>
<path d="M75.1457 86.4079C77.2268 87.5561 79.4515 88.8479 80.3126 91.2161C81.1738 93.5842 80.9585 95.8089 80.5279 98.1053C80.0973 100.402 79.0209 103.703 79.2362 106.573C79.4515 109.444 80.815 112.171 82.2502 114.683C83.6855 117.194 86.4843 114.898 85.3361 112.889C84.1879 110.879 82.5373 107.865 82.8961 104.851C83.2549 101.837 84.1161 99.3971 84.3314 96.5983C84.6184 93.9431 84.3314 91.2878 83.1114 88.8479C81.8914 86.4079 79.3079 84.7574 76.9398 83.3221C74.9304 82.1739 73.1363 85.2597 75.1457 86.4079Z" fill="black"/>
<path d="M91.0037 52.1769C96.4577 49.0911 101.912 45.9335 106.863 42.1301C109.375 40.2642 111.743 38.2549 113.896 36.0302C116.049 33.8056 116.336 33.7338 116.408 32.0832C116.48 30.4327 116.193 30.2892 116.049 29.428L115.618 26.701C115.475 25.7681 114.255 25.194 113.394 25.481C112.533 25.7681 111.959 26.701 112.174 27.7057L112.604 30.0739C112.676 30.5044 112.748 31.0068 112.82 31.4374C112.82 31.1503 112.891 31.9397 112.891 31.9397C112.748 32.3703 112.174 32.8009 111.815 33.1597C111.313 33.662 110.81 34.1644 110.308 34.6667C108.299 36.6043 106.146 38.3984 103.849 40.049C99.1847 43.4218 94.233 46.2924 89.2096 49.1629C84.1862 52.0334 88.9943 53.3969 91.0037 52.2487V52.1769Z" fill="black"/>
<path d="M22.3992 58.8506C16.1558 58.5636 11.2759 63.3717 8.11836 68.1798C4.96078 72.988 2.16201 79.5902 0.942035 85.9054C-0.27794 92.2205 0.00911258 93.0817 0.0808758 96.7416C0.152639 100.402 3.7408 99.038 3.66904 96.7416C3.45375 90.9288 4.38667 85.1877 6.32428 79.662C8.26188 74.1362 10.9171 69.1128 15.0076 65.4528C19.0981 61.7929 19.5287 62.2953 22.3992 62.4388C25.2698 62.5823 24.6957 58.9942 22.3992 58.8506Z" fill="black"/>
<path d="M188.386 56.4105C190.252 54.9753 192.262 54.1141 194.558 54.2576C196.854 54.4012 194.773 54.2576 195.06 54.3294C195.347 54.4012 195.563 54.4729 195.778 54.5447C195.993 54.6164 195.993 54.6164 196.137 54.6882C195.993 54.6882 196.137 54.6882 196.209 54.6882C196.424 54.8317 196.639 54.9035 196.926 55.047C197.716 55.5494 198.361 56.1952 198.864 56.9846C199.366 57.774 200.443 58.1328 201.304 57.6305C202.165 57.1282 202.452 55.9799 201.95 55.1905C200.371 52.6788 197.787 51.0283 194.917 50.7412C192.046 50.4542 188.889 51.6024 186.521 53.3247C184.152 55.047 185.372 54.9035 185.875 55.7647C186.377 56.6258 187.525 56.9846 188.315 56.4105H188.386Z" fill="black"/>
<path d="M154.225 83.6091C151.785 84.9726 149.345 86.5514 148.053 89.1349C146.761 91.7184 146.618 94.2301 146.833 96.8853C147.048 99.5406 147.981 102.339 148.268 105.138C148.555 107.937 147.192 110.664 145.828 113.176C144.465 115.687 147.766 116.979 148.914 114.97C150.062 112.96 151.713 109.803 151.928 106.86C152.143 103.99 151.139 101.191 150.636 98.3924C150.134 95.5936 150.062 93.656 150.852 91.5031C151.641 89.3502 153.938 87.9149 156.019 86.695C158.1 85.475 156.234 82.4609 154.225 83.6091Z" fill="black"/>
<path d="M142.026 49.3777C137.003 46.5072 132.051 43.6367 127.386 40.2638C122.722 36.8909 122.937 36.8192 120.928 34.8816C118.918 32.9439 119.923 33.8769 119.421 33.3745C118.918 32.8722 118.488 32.5851 118.344 32.1546C118.201 31.724 118.559 30.8628 118.631 30.504L119.062 27.9205C119.205 26.9876 118.846 25.9829 117.842 25.6959C116.837 25.4088 115.761 25.9829 115.617 26.9158L115.187 29.6428C115.043 30.504 114.756 31.4369 114.828 32.2981C114.899 33.9486 116.263 35.1686 117.339 36.2451C119.492 38.4697 121.861 40.4791 124.372 42.3449C129.396 46.1484 134.778 49.2342 140.232 52.3918C145.686 55.5494 144.035 50.4542 142.026 49.306V49.3777Z" fill="black"/>
<path d="M208.767 62.7255C214.006 62.4385 217.881 67.0313 220.465 71.0501C223.048 75.0688 225.775 81.5275 226.852 87.2685C227.928 93.0096 227.641 93.799 227.569 97.0283C227.497 99.3248 231.086 99.3248 231.157 97.0283C231.373 90.6414 230.296 84.111 228.072 78.1546C225.919 72.4853 222.833 66.4572 218.025 62.582C213.217 58.7068 212.284 58.9221 208.839 59.1374C205.394 59.3526 206.543 62.869 208.839 62.7255H208.767Z" fill="black"/>
<path d="M190.538 94.0868C190.251 99.7561 191.471 105.354 192.691 110.808C193.911 116.262 193.839 116.19 194.198 118.845C194.557 121.5 194.342 120.28 194.413 120.998V121.285C194.413 121.5 194.485 121.429 194.701 121.07L194.126 121.429C192.978 122.146 192.045 123.151 191.543 124.371C191.041 125.591 191.256 126.308 192.189 126.811C193.122 127.313 194.27 127.098 194.629 126.165C194.988 125.232 195.777 124.73 196.71 124.012C198.145 123.007 198.073 121.5 197.93 119.922C197.643 116.907 197.069 113.965 196.423 111.023C195.203 105.354 193.911 99.756 194.126 93.9432C194.342 88.1304 190.61 91.6468 190.538 93.9432V94.0868Z" fill="black"/>
<path d="M169.727 47.2963C168.005 45.5022 166.139 43.7081 163.699 43.134C161.259 42.5599 161.115 42.8469 159.895 43.2775C158.675 43.7081 158.747 43.8516 158.245 44.1387C157.742 44.4257 158.03 44.2822 157.958 44.2822C157.886 44.2822 157.599 44.4257 157.814 44.2822C157.742 44.2822 157.599 44.2822 157.527 44.354C157.886 44.354 157.384 44.354 157.312 44.354C156.379 44.2104 155.446 45.2869 155.518 46.1481C155.59 47.0092 156.307 47.7986 157.312 47.9421C158.317 48.0857 159.537 47.5116 160.541 46.9375C161.546 46.3633 160.757 46.7939 160.828 46.7939C160.9 46.7939 161.187 46.6504 160.972 46.7222C161.187 46.6504 161.402 46.5786 161.689 46.5069C161.474 46.5069 161.689 46.5069 161.689 46.5069C161.689 46.5069 161.905 46.5069 162.048 46.5069C162.192 46.5069 162.264 46.5069 162.407 46.5069C162.694 46.5069 162.407 46.5069 162.551 46.5069C163.053 46.6504 163.412 46.7222 163.699 46.8657C164.201 47.081 164.632 47.368 165.062 47.7268C164.919 47.5833 165.062 47.7268 165.134 47.7986C165.206 47.8704 165.349 47.9421 165.421 48.0139C165.636 48.1574 165.78 48.3727 165.995 48.5162C166.426 48.9468 166.785 49.3056 167.215 49.7362C167.861 50.3821 169.081 50.4539 169.727 49.7362C170.373 49.0186 170.445 47.9421 169.727 47.2245V47.2963Z" fill="black"/>
<path d="M150.637 54.688C160.971 63.9455 174.75 67.2466 188.241 68.7536C192.403 69.1842 196.494 69.4712 200.656 69.8301C204.818 70.1889 202.45 68.9689 202.45 68.036C202.45 67.1031 201.661 66.3137 200.656 66.2419C187.452 65.309 173.673 64.3043 161.689 57.9891C158.603 56.4103 155.732 54.4727 153.149 52.1763C150.565 49.8799 148.915 53.181 150.637 54.688Z" fill="black"/>
<g filter="url(#filter0_f_321_28313)">
<ellipse cx="117.5" cy="124.5" rx="87.5" ry="15.5" fill="black" fill-opacity="0.1"/>
</g>
<defs>
<filter id="filter0_f_321_28313" x="25" y="104" width="185" height="41" filterUnits="userSpaceOnUse" color-interpolation-filters="sRGB">
<feFlood flood-opacity="0" result="BackgroundImageFix"/>
<feBlend mode="normal" in="SourceGraphic" in2="BackgroundImageFix" result="shape"/>
<feGaussianBlur stdDeviation="2.5" result="effect1_foregroundBlur_321_28313"/>
</filter>
</defs>
</svg>
