<svg width="248" height="200" viewBox="0 0 248 200" fill="none" xmlns="http://www.w3.org/2000/svg">
<path d="M109.195 47.1805C109.338 47.324 109.41 47.4676 109.554 47.6111C109.697 47.7546 109.697 47.7546 109.697 47.8264C109.841 47.9699 109.697 47.8264 109.697 47.8264C109.912 48.1134 110.128 48.4005 110.343 48.6875C110.774 49.2616 111.204 49.9075 111.563 50.5534C112.352 51.7734 112.998 53.0651 113.644 54.3568C114.29 55.6486 115.366 55.505 116.084 55.0027C116.802 54.5004 117.16 53.4957 116.73 52.5627C115.438 49.764 113.788 47.1087 111.778 44.7406C109.769 42.3724 109.841 44.0947 109.266 44.7406C108.692 45.3864 108.621 46.5346 109.266 47.2523L109.195 47.1805Z" fill="black"/>
<path d="M125.843 50.266C125.843 50.1943 125.7 50.1225 125.628 50.0507V41.798C125.628 40.8651 124.839 39.9321 123.834 40.0039C122.829 40.0039 122.04 40.7933 122.04 41.798C122.04 45.0991 122.04 48.3284 122.04 51.6295C122.04 52.2754 122.399 52.8495 122.901 53.2083C123.762 53.6389 124.839 53.5671 125.485 52.8495C126.131 52.2036 126.346 51.0554 125.772 50.266H125.843Z" fill="black"/>
<path d="M135.531 45.1712C135.316 45.53 135.101 45.8171 134.886 46.1041C134.67 46.3912 134.742 46.2477 134.742 46.3194C134.598 46.5347 134.957 46.0324 134.742 46.3194C134.527 46.6065 134.527 46.6065 134.383 46.75C133.881 47.3241 133.378 47.8982 132.876 48.4723C131.728 49.8358 130.651 51.2711 130.077 52.9934C129.503 54.7157 130.436 55.0028 131.297 55.2181C132.159 55.4334 133.163 54.931 133.522 53.9981C133.881 53.0652 133.594 53.7828 133.666 53.6393C133.809 53.2805 133.666 53.6393 133.666 53.6393C133.666 53.6393 133.881 53.2087 133.881 53.1369C134.024 52.8499 134.24 52.4911 134.455 52.204C134.67 51.917 134.67 51.917 134.742 51.7734C134.814 51.6299 135.101 51.4146 134.742 51.7734C134.742 51.7734 134.814 51.6299 134.886 51.6299C135.101 51.3429 135.388 51.0558 135.603 50.7688C136.68 49.5488 137.756 48.4006 138.545 46.9653C139.335 45.53 138.761 44.9559 137.9 44.5253C137.038 44.0948 135.962 44.3101 135.46 45.1712H135.531Z" fill="black"/>
<path d="M188.637 137.027C210.435 137.027 228.107 119.356 228.107 97.5577C228.107 75.7591 210.435 58.0879 188.637 58.0879C166.838 58.0879 149.167 75.7591 149.167 97.5577C149.167 119.356 166.838 137.027 188.637 137.027Z" fill="#4687F1"/>
<path d="M59.678 136.742C81.4766 136.742 99.1478 119.071 99.1478 97.272C99.1478 75.4735 81.4766 57.8022 59.678 57.8022C37.8795 57.8022 20.2083 75.4735 20.2083 97.272C20.2083 119.071 37.8795 136.742 59.678 136.742Z" fill="#EF5350"/>
<path d="M52.6453 93.0378C50.2772 91.2437 47.2631 90.0955 44.249 90.4543C41.235 90.8131 38.795 92.4636 37.2162 94.9036C35.6375 97.3435 37.0727 96.913 37.8621 97.3435C38.6515 97.7741 39.7997 97.5588 40.3021 96.6977C40.8044 95.8365 41.3785 95.2624 42.1679 94.8318C42.9573 94.4013 43.8902 93.9707 44.6796 93.9707C46.976 93.8271 48.9854 94.6883 50.8513 96.1236C52.7171 97.5588 52.8606 96.2671 53.2912 95.4777C53.7218 94.6883 53.4347 93.6119 52.6453 93.0378Z" fill="black"/>
<path d="M83.5041 92.7511C69.0079 96.9852 54.44 101.076 39.8721 105.094C38.078 105.597 38.2933 107.965 39.8721 108.539C52.0718 112.845 65.8504 114.926 78.2654 110.333C79.1983 109.974 79.7724 109.113 79.4854 108.108C79.2701 107.247 78.1936 106.53 77.2607 106.889C67.3574 110.548 56.6647 109.759 46.6178 106.889C59.2481 103.372 71.8067 99.7839 84.437 96.124C86.6617 95.4781 85.7288 92.0335 83.5041 92.6794V92.7511Z" fill="black"/>
<path d="M78.9123 89.2344C81.2087 89.2344 81.2087 85.6462 78.9123 85.6462C76.6158 85.6462 76.6158 89.2344 78.9123 89.2344Z" fill="black"/>
<path d="M53.3638 129.996C55.2297 132.149 56.8085 134.517 58.172 137.029C59.5355 139.541 59.5355 139.469 59.392 140.761C59.2484 142.052 58.3155 143.344 57.7414 144.42L55.5167 148.511C54.7991 149.803 54.0097 151.094 53.5791 152.53C52.718 155.113 53.2921 158.127 55.6603 159.706C58.0285 161.285 59.392 157.84 57.4544 156.62C55.5167 155.4 57.5261 152.243 58.2437 150.951C59.679 148.367 61.3296 145.784 62.4778 142.985C63.626 140.186 62.4778 137.244 61.0425 134.589C59.6072 131.934 57.8849 129.637 56.0191 127.341C54.501 126 54.1532 126.695 53.5074 127.341C52.8615 127.987 52.3532 128.782 52.9991 129.5L53.3638 129.996Z" fill="black"/>
<path d="M83.1457 126.408C85.2268 127.556 87.4515 128.848 88.3126 131.216C89.1738 133.584 88.9585 135.809 88.5279 138.105C88.0973 140.402 87.0209 143.703 87.2362 146.573C87.4515 149.444 88.815 152.171 90.2502 154.683C91.6855 157.194 94.4843 154.898 93.3361 152.889C92.1879 150.879 90.5373 147.865 90.8961 144.851C91.2549 141.837 92.1161 139.397 92.3314 136.598C92.6184 133.943 92.3314 131.288 91.1114 128.848C89.8914 126.408 87.3079 124.757 84.9398 123.322C82.9304 122.174 81.1363 125.26 83.1457 126.408Z" fill="black"/>
<path d="M99.0037 92.1769C104.458 89.0911 109.912 85.9335 114.863 82.1301C117.375 80.2642 119.743 78.2549 121.896 76.0302C124.049 73.8056 124.336 73.7338 124.408 72.0832C124.48 70.4327 124.193 70.2892 124.049 69.428L123.618 66.701C123.475 65.7681 122.255 65.194 121.394 65.481C120.533 65.7681 119.959 66.701 120.174 67.7057L120.604 70.0739C120.676 70.5044 120.748 71.0068 120.82 71.4374C120.82 71.1503 120.891 71.9397 120.891 71.9397C120.748 72.3703 120.174 72.8009 119.815 73.1597C119.313 73.662 118.81 74.1644 118.308 74.6667C116.299 76.6043 114.146 78.3984 111.849 80.049C107.185 83.4218 102.233 86.2924 97.2096 89.1629C92.1862 92.0334 96.9943 93.3969 99.0037 92.2487V92.1769Z" fill="black"/>
<path d="M30.3992 98.8506C24.1558 98.5636 19.2759 103.372 16.1184 108.18C12.9608 112.988 10.162 119.59 8.94203 125.905C7.72206 132.221 8.00911 133.082 8.08088 136.742C8.15264 140.402 11.7408 139.038 11.669 136.742C11.4537 130.929 12.3867 125.188 14.3243 119.662C16.2619 114.136 18.9171 109.113 23.0076 105.453C27.0981 101.793 27.5287 102.295 30.3992 102.439C33.2698 102.582 32.6957 98.9942 30.3992 98.8506Z" fill="black"/>
<path d="M196.386 96.4103C198.252 94.975 200.262 94.1139 202.558 94.2574C204.854 94.4009 202.773 94.2574 203.06 94.3291C203.347 94.4009 203.563 94.4727 203.778 94.5444C203.993 94.6162 203.993 94.6162 204.137 94.688C203.993 94.688 204.137 94.688 204.209 94.688C204.424 94.8315 204.639 94.9032 204.926 95.0468C205.716 95.5491 206.361 96.195 206.864 96.9844C207.366 97.7738 208.443 98.1326 209.304 97.6303C210.165 97.1279 210.452 95.9797 209.95 95.1903C208.371 92.6786 205.787 91.028 202.917 90.741C200.046 90.4539 196.889 91.6021 194.521 93.3245C192.152 95.0468 193.372 94.9032 193.875 95.7644C194.377 96.6256 195.525 96.9844 196.315 96.4103H196.386Z" fill="black"/>
<path d="M162.225 123.609C159.785 124.972 157.345 126.551 156.053 129.135C154.761 131.718 154.618 134.23 154.833 136.885C155.048 139.54 155.981 142.339 156.268 145.138C156.555 147.937 155.192 150.664 153.828 153.175C152.465 155.687 155.766 156.979 156.914 154.969C158.062 152.96 159.713 149.802 159.928 146.86C160.143 143.99 159.139 141.191 158.636 138.392C158.134 135.593 158.062 133.656 158.852 131.503C159.641 129.35 161.938 127.915 164.019 126.695C166.1 125.475 164.234 122.461 162.225 123.609Z" fill="black"/>
<path d="M150.026 89.3775C145.003 86.507 140.051 83.6364 135.386 80.2636C130.722 76.8907 130.937 76.8189 128.928 74.8813C126.918 72.9437 127.923 73.8766 127.421 73.3743C126.918 72.8719 126.488 72.5849 126.344 72.1543C126.201 71.7237 126.559 70.8626 126.631 70.5038L127.062 67.9203C127.205 66.9874 126.846 65.9827 125.842 65.6956C124.837 65.4086 123.761 65.9827 123.617 66.9156L123.187 69.6426C123.043 70.5038 122.756 71.4367 122.828 72.2978C122.899 73.9484 124.263 75.1684 125.339 76.2448C127.492 78.4695 129.861 80.4788 132.372 82.3447C137.396 86.1481 142.778 89.234 148.232 92.3915C153.686 95.5491 152.035 90.4539 150.026 89.3057V89.3775Z" fill="black"/>
<path d="M216.767 102.725C222.006 102.438 225.881 107.031 228.465 111.05C231.048 115.068 233.775 121.527 234.852 127.268C235.928 133.009 235.641 133.799 235.569 137.028C235.497 139.324 239.086 139.324 239.157 137.028C239.373 130.641 238.296 124.11 236.072 118.154C233.919 112.485 230.833 106.457 226.025 102.582C221.217 98.7063 220.284 98.9216 216.839 99.1369C213.394 99.3522 214.543 102.869 216.839 102.725H216.767Z" fill="black"/>
<path d="M198.538 134.087C198.251 139.756 199.471 145.353 200.691 150.807C201.911 156.261 201.839 156.19 202.198 158.845C202.557 161.5 202.342 160.28 202.413 160.998V161.285C202.413 161.5 202.485 161.428 202.701 161.069L202.126 161.428C200.978 162.146 200.045 163.151 199.543 164.371C199.041 165.591 199.256 166.308 200.189 166.811C201.122 167.313 202.27 167.098 202.629 166.165C202.988 165.232 203.777 164.729 204.71 164.012C206.145 163.007 206.073 161.5 205.93 159.921C205.643 156.907 205.069 153.965 204.423 151.023C203.203 145.353 201.911 139.756 202.126 133.943C202.342 128.13 198.61 131.647 198.538 133.943V134.087Z" fill="black"/>
<path d="M177.727 87.296C176.005 85.5019 174.139 83.7079 171.699 83.1338C169.259 82.5596 169.115 82.8467 167.895 83.2773C166.675 83.7079 166.747 83.8514 166.245 84.1384C165.742 84.4255 166.03 84.282 165.958 84.282C165.886 84.282 165.599 84.4255 165.814 84.282C165.742 84.282 165.599 84.282 165.527 84.3537C165.886 84.3537 165.384 84.3537 165.312 84.3537C164.379 84.2102 163.446 85.2867 163.518 86.1478C163.59 87.009 164.307 87.7984 165.312 87.9419C166.317 88.0854 167.537 87.5113 168.541 86.9372C169.546 86.3631 168.757 86.7937 168.828 86.7937C168.9 86.7937 169.187 86.6502 168.972 86.7219C169.187 86.6502 169.402 86.5784 169.689 86.5066C169.474 86.5066 169.689 86.5066 169.689 86.5066C169.689 86.5066 169.905 86.5066 170.048 86.5066C170.192 86.5066 170.264 86.5066 170.407 86.5066C170.694 86.5066 170.407 86.5066 170.551 86.5066C171.053 86.6502 171.412 86.7219 171.699 86.8654C172.201 87.0807 172.632 87.3678 173.062 87.7266C172.919 87.5831 173.062 87.7266 173.134 87.7984C173.206 87.8701 173.349 87.9419 173.421 88.0137C173.636 88.1572 173.78 88.3725 173.995 88.516C174.426 88.9466 174.785 89.3054 175.215 89.736C175.861 90.3818 177.081 90.4536 177.727 89.736C178.373 89.0183 178.445 87.9419 177.727 87.2243V87.296Z" fill="black"/>
<path d="M158.637 94.6878C168.971 103.945 182.75 107.246 196.241 108.753C200.403 109.184 204.494 109.471 208.656 109.83C212.818 110.189 210.45 108.969 210.45 108.036C210.45 107.103 209.661 106.313 208.656 106.242C195.452 105.309 181.673 104.304 169.689 97.9889C166.603 96.4101 163.732 94.4725 161.149 92.1761C158.565 89.8796 156.915 93.1807 158.637 94.6878Z" fill="black"/>
<g filter="url(#filter0_f_321_28261)">
<ellipse cx="125.5" cy="164.5" rx="87.5" ry="15.5" fill="black" fill-opacity="0.1"/>
</g>
<defs>
<filter id="filter0_f_321_28261" x="33" y="144" width="185" height="41" filterUnits="userSpaceOnUse" color-interpolation-filters="sRGB">
<feFlood flood-opacity="0" result="BackgroundImageFix"/>
<feBlend mode="normal" in="SourceGraphic" in2="BackgroundImageFix" result="shape"/>
<feGaussianBlur stdDeviation="2.5" result="effect1_foregroundBlur_321_28261"/>
</filter>
</defs>
</svg>
