<svg width="80" height="80" viewBox="0 0 80 80" fill="none" xmlns="http://www.w3.org/2000/svg">
<circle cx="40" cy="40" r="40" fill="#2F3C50"/>
<path d="M52.0006 31.8235C51.9406 31.8235 51.9006 31.8235 51.8406 31.8235H51.7406C47.9606 31.7035 45.1406 28.7834 45.1406 25.1834C45.1406 21.5034 48.1406 18.5234 51.8006 18.5234C55.4606 18.5234 58.4606 21.5234 58.4606 25.1834C58.4406 28.8034 55.6206 31.7234 52.0206 31.8434C52.0206 31.8234 52.0206 31.8235 52.0006 31.8235ZM51.8006 21.5034C49.7806 21.5034 48.1406 23.1435 48.1406 25.1635C48.1406 27.1435 49.6806 28.7435 51.6606 28.8235C51.6806 28.8035 51.8406 28.8035 52.0206 28.8235C53.9606 28.7235 55.4606 27.1235 55.4806 25.1635C55.4806 23.1435 53.8406 21.5034 51.8006 21.5034Z" fill="#6B9FF3"/>
<path d="M52.017 46.5612C51.237 46.5612 50.457 46.5012 49.677 46.3612C48.857 46.2212 48.317 45.4412 48.457 44.6212C48.597 43.8012 49.377 43.2612 50.197 43.4012C52.657 43.8212 55.257 43.3612 56.997 42.2012C57.937 41.5812 58.437 40.8012 58.437 40.0212C58.437 39.2412 57.917 38.4812 56.997 37.8612C55.257 36.7012 52.617 36.2412 50.137 36.6812C49.317 36.8412 48.537 36.2812 48.397 35.4613C48.257 34.6413 48.797 33.8613 49.617 33.7213C52.877 33.1413 56.257 33.7613 58.657 35.3613C60.417 36.5412 61.437 38.2212 61.437 40.0212C61.437 41.8012 60.437 43.5012 58.657 44.7012C56.837 45.9012 54.477 46.5612 52.017 46.5612Z" fill="#6B9FF3"/>
<path d="M27.9409 31.82C27.9209 31.82 27.9009 31.82 27.9009 31.82C24.3009 31.7 21.4809 28.78 21.4609 25.18C21.4609 21.5 24.4609 18.5 28.1209 18.5C31.7809 18.5 34.7809 21.5 34.7809 25.16C34.7809 28.78 31.9609 31.7 28.3609 31.82H28.2042H28.0809C28.0409 31.82 27.9809 31.82 27.9409 31.82ZM28.2042 28.84C28.3242 28.84 28.3609 28.8454 28.4809 28.84C30.2609 28.76 31.8209 27.16 31.8209 25.18C31.8209 23.16 30.1809 21.52 28.1609 21.52C26.1409 21.52 24.5009 23.16 24.5009 25.18C24.5009 27.14 26.0209 28.72 27.9609 28.84C28.0438 28.8451 28.1242 28.84 28.2042 28.84Z" fill="#6B9FF3"/>
<path d="M27.92 46.5612C25.46 46.5612 23.1 45.9012 21.28 44.7012C19.52 43.5212 18.5 41.8212 18.5 40.0212C18.5 38.2412 19.52 36.5412 21.28 35.3613C23.68 33.7613 27.06 33.1413 30.32 33.7213C31.14 33.8613 31.68 34.6413 31.54 35.4613C31.4 36.2812 30.62 36.8412 29.8 36.6812C27.32 36.2412 24.7 36.7012 22.94 37.8612C22 38.4812 21.5 39.2412 21.5 40.0212C21.5 40.8012 22.02 41.5812 22.94 42.2012C24.68 43.3612 27.28 43.8212 29.74 43.4012C30.56 43.2612 31.34 43.8212 31.48 44.6212C31.62 45.4412 31.08 46.2212 30.26 46.3612C29.48 46.5012 28.7 46.5612 27.92 46.5612Z" fill="#6B9FF3"/>
<path d="M40.0006 46.761C39.9406 46.761 39.9006 46.761 39.8406 46.761H39.7406C35.9606 46.641 33.1406 43.721 33.1406 40.121C33.1406 36.441 36.1406 33.4609 39.8006 33.4609C43.4606 33.4609 46.4606 36.461 46.4606 40.121C46.4406 43.741 43.6206 46.661 40.0206 46.781C40.0206 46.761 40.0206 46.761 40.0006 46.761ZM39.8006 36.441C37.7806 36.441 36.1406 38.081 36.1406 40.101C36.1406 42.081 37.6806 43.681 39.6606 43.761C39.6806 43.741 39.8406 43.741 40.0206 43.761C41.9606 43.661 43.4606 42.061 43.4806 40.101C43.4806 38.101 41.8406 36.441 39.8006 36.441Z" fill="#6B9FF3"/>
<path d="M40.0026 61.5177C37.6026 61.5177 35.2025 60.8977 33.3425 59.6377C31.5825 58.4577 30.5625 56.7776 30.5625 54.9777C30.5625 53.1976 31.5625 51.4775 33.3425 50.2977C37.0824 47.8175 42.9426 47.8175 46.6626 50.2977C48.4226 51.4775 49.4426 53.1576 49.4426 54.9576C49.4426 56.7376 48.4426 58.4577 46.6626 59.6377C44.8026 60.8777 42.4026 61.5177 40.0026 61.5177ZM35.0025 52.8177C34.0625 53.4377 33.5625 54.2177 33.5625 54.9977C33.5625 55.7777 34.0825 56.5377 35.0025 57.1577C37.7026 58.9777 42.2826 58.9777 44.9826 57.1577C45.9226 56.5377 46.4226 55.7577 46.4226 54.9777C46.4226 54.1976 45.9026 53.4377 44.9826 52.8177C42.3026 50.9977 37.7226 51.0177 35.0025 52.8177Z" fill="#6B9FF3"/>
</svg>
