<svg width="108" height="122" viewBox="0 0 108 122" fill="none" xmlns="http://www.w3.org/2000/svg">
<path fill-rule="evenodd" clip-rule="evenodd" d="M22.3765 78.3572C21.2583 77.7608 19.9188 77.7507 18.7918 78.3303C15.9219 79.8061 15.8912 83.8981 18.7386 85.4168L47.1348 100.563C48.302 101.185 49.7015 101.191 50.8734 100.577L79.2357 85.7202C82.0944 84.2228 82.0944 80.131 79.2357 78.6336C78.0919 78.0344 76.7269 78.0344 75.583 78.6336L50.8734 91.5768C49.7015 92.1906 48.302 92.1854 47.1348 91.5628L22.3765 78.3572ZM67.1524 73.0496C66.6204 73.1032 66.097 73.2635 65.6153 73.5302L54.7711 79.5351L67.1524 73.0496ZM51.0372 81.491L50.8734 81.5768C49.7015 82.1906 48.302 82.1854 47.1348 81.5628L30.7148 72.8047C31.2667 72.8323 31.8143 72.9742 32.321 73.2306L48.1099 81.2203C49.0256 81.6836 50.0729 81.7725 51.0372 81.491Z" fill="url(#paint0_linear_12237_5194)"/>
<path fill-rule="evenodd" clip-rule="evenodd" d="M24.2781 66.3714C22.5668 65.4587 20.5167 65.4433 18.7918 66.3302C15.9219 67.8061 15.8912 71.898 18.7386 73.4168L47.1348 88.5628C48.302 89.1853 49.7015 89.1906 50.8734 88.5768L79.2357 73.7202C82.0944 72.2228 82.0944 68.1309 79.2358 66.6335C77.494 65.7212 75.4156 65.7212 73.6739 66.6335L50.8734 78.5768C49.7015 79.1906 48.302 79.1853 47.1348 78.5628L24.2781 66.3714Z" fill="url(#paint1_linear_12237_5194)"/>
<path d="M47.1542 38.7455C48.3117 38.1502 49.6865 38.1554 50.8395 38.7594L79.2358 53.6337C82.0944 55.1311 82.0944 59.223 79.2358 60.7204L50.8734 75.577C49.7016 76.1908 48.3021 76.1855 47.1349 75.563L18.7387 60.417C15.8912 58.8982 15.922 54.8063 18.7919 53.3304L47.1542 38.7455Z" fill="url(#paint2_linear_12237_5194)"/>
<path fill-rule="evenodd" clip-rule="evenodd" d="M85.5 26C84.3238 26 83.3704 26.9535 83.3704 28.1296V35.3704H76.1296C74.9535 35.3704 74 36.3238 74 37.5C74 38.6762 74.9535 39.6296 76.1296 39.6296H83.3704V46.8704C83.3704 48.0465 84.3238 49 85.5 49C86.6762 49 87.6296 48.0465 87.6296 46.8704V39.6296H94.8704C96.0465 39.6296 97 38.6762 97 37.5C97 36.3238 96.0465 35.3704 94.8704 35.3704H87.6296V28.1296C87.6296 26.9535 86.6762 26 85.5 26Z" fill="url(#paint3_linear_12237_5194)"/>
<defs>
<linearGradient id="paint0_linear_12237_5194" x1="62.5003" y1="74.0745" x2="36.0346" y2="105.024" gradientUnits="userSpaceOnUse">
<stop stop-color="#4687F1"/>
<stop offset="1" stop-color="#6B9FF4"/>
</linearGradient>
<linearGradient id="paint1_linear_12237_5194" x1="87.9327" y1="64.9141" x2="64.9785" y2="117.699" gradientUnits="userSpaceOnUse">
<stop stop-color="#E1ECFF"/>
<stop offset="1" stop-color="#E6EFFF"/>
</linearGradient>
<linearGradient id="paint2_linear_12237_5194" x1="73.5054" y1="47.9951" x2="30.4298" y2="34.1927" gradientUnits="userSpaceOnUse">
<stop stop-color="#4687F1"/>
<stop offset="1" stop-color="#6B9FF4"/>
</linearGradient>
<linearGradient id="paint3_linear_12237_5194" x1="90.2947" y1="27.0346" x2="72.6304" y2="36.0392" gradientUnits="userSpaceOnUse">
<stop stop-color="#4687F1"/>
<stop offset="1" stop-color="#6B9FF4"/>
</linearGradient>
</defs>
</svg>
