<svg width="109" height="122" viewBox="0 0 109 122" fill="none" xmlns="http://www.w3.org/2000/svg">
<path fill-rule="evenodd" clip-rule="evenodd" d="M74 28.1561V96C74 99.3137 71.3137 102 68 102H19.515C20.1954 104.064 22.1392 105.553 24.4309 105.553H48.457H63.0575H72.4831C75.3411 105.553 77.6581 103.236 77.6581 100.378V33.1052C77.6581 30.7749 76.1179 28.8044 74 28.1561Z" fill="url(#paint0_linear_12237_5273)"/>
<path d="M13 26.8213C13 23.9633 15.3169 21.6463 18.175 21.6463H66.2272C69.0853 21.6463 71.4022 23.9633 71.4022 26.8213V94.0945C71.4022 96.9526 69.0853 99.2695 66.2272 99.2695H18.175C15.3169 99.2695 13 96.9526 13 94.0945V26.8213Z" fill="url(#paint1_linear_12237_5273)"/>
<rect x="22.2852" y="44.8564" width="38.5705" height="5.71415" rx="2.85708" fill="url(#paint2_linear_12237_5273)"/>
<rect x="22.2852" y="56.2847" width="31.4278" height="5.71415" rx="2.85708" fill="url(#paint3_linear_12237_5273)"/>
<path fill-rule="evenodd" clip-rule="evenodd" d="M83.5453 48.6745C86.5637 46.0929 90.9369 46.2521 93.313 49.0301C95.6891 51.8082 95.1684 56.1531 92.1501 58.7348L66.9884 80.256L58.3837 70.1957L80.0635 51.6526L88.6682 61.7128L91.1661 59.5764L82.5614 49.5162L83.5453 48.6745ZM57.241 71.1732C56.1164 72.1462 55.279 73.4012 54.833 74.7833L52.129 83.1611C51.8967 83.8807 52.4632 84.543 53.2101 84.4251L61.9058 83.0526C63.3403 82.8262 64.71 82.1935 65.8456 81.2333L57.241 71.1732Z" fill="url(#paint4_linear_12237_5273)"/>
<rect x="28.7139" y="17" width="27.8565" height="9.99977" rx="4.99988" fill="url(#paint5_linear_12237_5273)"/>
<defs>
<linearGradient id="paint0_linear_12237_5273" x1="48.5865" y1="28.1561" x2="48.5865" y2="105.553" gradientUnits="userSpaceOnUse">
<stop stop-color="#37475F"/>
<stop offset="1" stop-color="#384355"/>
</linearGradient>
<linearGradient id="paint1_linear_12237_5273" x1="68.5" y1="22.0001" x2="16" y2="99.0001" gradientUnits="userSpaceOnUse">
<stop stop-color="#586B8A"/>
<stop offset="1" stop-color="#4B6186"/>
</linearGradient>
<linearGradient id="paint2_linear_12237_5273" x1="41.5704" y1="44.8564" x2="41.5704" y2="50.5706" gradientUnits="userSpaceOnUse">
<stop stop-color="#37475F"/>
<stop offset="1" stop-color="#384355"/>
</linearGradient>
<linearGradient id="paint3_linear_12237_5273" x1="37.9991" y1="56.2847" x2="37.9991" y2="61.9988" gradientUnits="userSpaceOnUse">
<stop stop-color="#37475F"/>
<stop offset="1" stop-color="#384355"/>
</linearGradient>
<linearGradient id="paint4_linear_12237_5273" x1="93.313" y1="49.0301" x2="52.3024" y2="84.1072" gradientUnits="userSpaceOnUse">
<stop stop-color="#37475F"/>
<stop offset="1" stop-color="#384355"/>
</linearGradient>
<linearGradient id="paint5_linear_12237_5273" x1="42.6421" y1="17" x2="42.6421" y2="26.9998" gradientUnits="userSpaceOnUse">
<stop stop-color="#37475F"/>
<stop offset="1" stop-color="#384355"/>
</linearGradient>
</defs>
</svg>
