<svg width="109" height="122" viewBox="0 0 109 122" fill="none" xmlns="http://www.w3.org/2000/svg">
<path fill-rule="evenodd" clip-rule="evenodd" d="M30.6553 19.4979C30.6553 16.4615 32.892 14 35.6511 14H75.3612C75.8073 14 76.2322 14.1903 76.5292 14.5231L95.2037 35.4479C95.4597 35.7347 95.6012 36.1058 95.6012 36.4903V86.8468C95.6012 89.8832 93.3644 92.3447 90.6053 92.3447H82.5V50.7619C82.5 50.2712 82.3196 49.7976 81.993 49.4312L62.5965 27.6693C62.217 27.2435 61.6738 27 61.1035 27H30.6553V19.4979Z" fill="url(#paint0_linear_12237_5257)"/>
<mask id="mask0_12237_5257" style="mask-type:alpha" maskUnits="userSpaceOnUse" x="30" y="14" width="66" height="79">
<path fill-rule="evenodd" clip-rule="evenodd" d="M35.6511 14C32.892 14 30.6553 16.4615 30.6553 19.4979V86.8468C30.6553 89.8832 32.892 92.3447 35.6511 92.3447H90.6053C93.3644 92.3447 95.6012 89.8832 95.6012 86.8468V36.4903C95.6012 36.1058 95.4597 35.7347 95.2037 35.4479L76.5292 14.5231C76.2322 14.1903 75.8073 14 75.3612 14H35.6511Z" fill="url(#paint1_linear_12237_5257)"/>
</mask>
<g mask="url(#mask0_12237_5257)">
<path fill-rule="evenodd" clip-rule="evenodd" d="M75.3643 33.5149C75.3643 35.2441 76.7661 36.646 78.4953 36.646H107.499L75.3643 9.54932V33.5149Z" fill="url(#paint2_linear_12237_5257)"/>
</g>
<path fill-rule="evenodd" clip-rule="evenodd" d="M19.9958 29.6553C17.2367 29.6553 15 32.1168 15 35.1532V102.502C15 105.539 17.2367 108 19.9958 108H74.9501C77.7092 108 79.9459 105.539 79.9459 102.502V52.1456C79.9459 51.7611 79.8044 51.3901 79.5484 51.1032L60.874 30.1785C60.5769 29.8456 60.152 29.6553 59.7059 29.6553H19.9958Z" fill="url(#paint3_linear_12237_5257)"/>
<mask id="mask1_12237_5257" style="mask-type:alpha" maskUnits="userSpaceOnUse" x="15" y="29" width="65" height="79">
<path fill-rule="evenodd" clip-rule="evenodd" d="M19.9958 29.6553C17.2367 29.6553 15 32.1168 15 35.1532V102.502C15 105.539 17.2367 108 19.9958 108H74.9501C77.7092 108 79.9459 105.539 79.9459 102.502V52.1456C79.9459 51.7611 79.8044 51.3901 79.5484 51.1032L60.874 30.1785C60.5769 29.8456 60.152 29.6553 59.7059 29.6553H19.9958Z" fill="url(#paint4_linear_12237_5257)"/>
</mask>
<g mask="url(#mask1_12237_5257)">
<path fill-rule="evenodd" clip-rule="evenodd" d="M59.708 49.1702C59.708 50.8995 61.1098 52.3013 62.8391 52.3013H91.8423L59.708 25.2047V49.1702Z" fill="url(#paint5_linear_12237_5257)"/>
</g>
<rect x="24" y="47" width="26" height="6" rx="3" fill="url(#paint6_linear_12237_5257)"/>
<rect x="24" y="61" width="39" height="6" rx="3" fill="url(#paint7_linear_12237_5257)"/>
<rect x="24" y="75" width="39" height="6" rx="3" fill="url(#paint8_linear_12237_5257)"/>
<defs>
<linearGradient id="paint0_linear_12237_5257" x1="63.1282" y1="14" x2="63.1282" y2="92.3447" gradientUnits="userSpaceOnUse">
<stop stop-color="#37475F"/>
<stop offset="1" stop-color="#384355"/>
</linearGradient>
<linearGradient id="paint1_linear_12237_5257" x1="92.5085" y1="20.5287" x2="22.6178" y2="64.7063" gradientUnits="userSpaceOnUse">
<stop stop-color="#5F9BFF"/>
<stop offset="1" stop-color="#76A7F8"/>
</linearGradient>
<linearGradient id="paint2_linear_12237_5257" x1="105.902" y1="9.67281" x2="91.5541" y2="42.8411" gradientUnits="userSpaceOnUse">
<stop stop-color="#586B8A"/>
<stop offset="1" stop-color="#4B6186"/>
</linearGradient>
<linearGradient id="paint3_linear_12237_5257" x1="76.7185" y1="30.0124" x2="25.7771" y2="112.333" gradientUnits="userSpaceOnUse">
<stop stop-color="#586B8A"/>
<stop offset="1" stop-color="#4B6186"/>
</linearGradient>
<linearGradient id="paint4_linear_12237_5257" x1="61.0119" y1="33.1796" x2="7.69269" y2="55.7114" gradientUnits="userSpaceOnUse">
<stop stop-color="#4687F1"/>
<stop offset="1" stop-color="#6B9FF4"/>
</linearGradient>
<linearGradient id="paint5_linear_12237_5257" x1="75.7751" y1="25.2047" x2="75.7751" y2="52.3013" gradientUnits="userSpaceOnUse">
<stop stop-color="#37475F"/>
<stop offset="1" stop-color="#384355"/>
</linearGradient>
<linearGradient id="paint6_linear_12237_5257" x1="37" y1="47" x2="37" y2="53" gradientUnits="userSpaceOnUse">
<stop stop-color="#37475F"/>
<stop offset="1" stop-color="#384355"/>
</linearGradient>
<linearGradient id="paint7_linear_12237_5257" x1="43.5" y1="61" x2="43.5" y2="67" gradientUnits="userSpaceOnUse">
<stop stop-color="#37475F"/>
<stop offset="1" stop-color="#384355"/>
</linearGradient>
<linearGradient id="paint8_linear_12237_5257" x1="43.5" y1="75" x2="43.5" y2="81" gradientUnits="userSpaceOnUse">
<stop stop-color="#37475F"/>
<stop offset="1" stop-color="#384355"/>
</linearGradient>
</defs>
</svg>
