<svg width="36" height="36" viewBox="0 0 36 36" fill="none" xmlns="http://www.w3.org/2000/svg">
<path opacity="0.4" d="M13.4766 11.5397C13.4766 10.236 14.5334 9.17918 15.8371 9.17918H19.3778C20.6815 9.17918 21.7383 10.236 21.7383 11.5397H25.279C27.8864 11.5397 30 13.6533 30 16.2607V25.7026C30 28.31 27.8864 30.4236 25.279 30.4236H25.2249V33.0152C25.2249 33.9422 24.2052 34.5073 23.4191 34.016L17.6713 30.4236H9.93583C7.3285 30.4236 5.21484 28.31 5.21484 25.7026V16.2607C5.21484 13.6533 7.3285 11.5397 9.93583 11.5397L13.4766 11.5397Z" fill="white"/>
<path fill-rule="evenodd" clip-rule="evenodd" d="M8.75537 16.72C8.75537 15.8145 9.4894 15.0805 10.3949 15.0805H24.8196C25.725 15.0805 26.4591 15.8145 26.4591 16.72V25.2434C26.4591 26.1489 25.725 26.8829 24.8196 26.8829H10.3949C9.4894 26.8829 8.75537 26.1489 8.75537 25.2434V16.72ZM15.8374 20.9817C15.8374 22.2854 14.7805 23.3422 13.4769 23.3422C12.1732 23.3422 11.1164 22.2854 11.1164 20.9817C11.1164 19.678 12.1732 18.6212 13.4769 18.6212C14.7805 18.6212 15.8374 19.678 15.8374 20.9817ZM21.7384 23.3422C23.0421 23.3422 24.0989 22.2854 24.0989 20.9817C24.0989 19.678 23.0421 18.6212 21.7384 18.6212C20.4348 18.6212 19.378 19.678 19.378 20.9817C19.378 22.2854 20.4348 23.3422 21.7384 23.3422Z" fill="white"/>
<path fill-rule="evenodd" clip-rule="evenodd" d="M14.657 5.04837C14.657 3.4189 15.9781 2.09775 17.6076 2.09775C19.2371 2.09775 20.5582 3.4189 20.5582 5.04837C20.5582 6.47584 19.5445 7.66646 18.1977 7.93991V9.17919H17.0175V7.93991C15.6707 7.66646 14.657 6.47584 14.657 5.04837Z" fill="white"/>
</svg>
