<svg xmlns="http://www.w3.org/2000/svg" width="119.656" height="119.656" viewBox="0 0 119.656 119.656">
  <g id="Grupo_244" data-name="Grupo 244" transform="translate(-163.344 -127.672)">
    <circle id="Elipse_1452" data-name="Elipse 1452" cx="25.5" cy="25.5" r="25.5" transform="translate(229 195)" fill="#3c4148"/>
    <path id="Trazado_146" data-name="Trazado 146" d="M22.426,1.058A2.137,2.137,0,0,0,20.294,3.2v8.544H10.159c-5.257,0-9.1,5.023-9.1,10.684v83.332c0,5.661,3.844,10.684,9.1,10.684H77.978a1.757,1.757,0,0,0,.21-.008,27.751,27.751,0,1,0,21.158-50.5V22.426c0-5.661-3.836-10.684-9.1-10.684H80.118V3.2a2.144,2.144,0,0,0-2.14-2.14H63.022A2.137,2.137,0,0,0,60.89,3.2v8.544H39.522V3.2a2.144,2.144,0,0,0-2.14-2.14Zm2.14,4.272H35.25v8.189a2.053,2.053,0,0,0,0,.7v8.2H24.566V14.237a2.5,2.5,0,0,0,0-.694Zm40.6,0H75.846v8.189a2.052,2.052,0,0,0,0,.7v8.2H65.162V14.237a2.006,2.006,0,0,0,0-.694Zm-55,10.684H20.294v8.552A2.13,2.13,0,0,0,22.426,26.7H37.382a2.137,2.137,0,0,0,2.14-2.132V16.014H60.89v8.552A2.13,2.13,0,0,0,63.022,26.7H77.978a2.137,2.137,0,0,0,2.14-2.132V16.014H90.245c2.431,0,4.829,2.633,4.829,6.412V65.267c-.711-.057-1.413-.1-2.14-.1A27.739,27.739,0,0,0,72.947,112.17H10.159c-2.423,0-4.821-2.633-4.821-6.412V22.426c0-3.779,2.4-6.412,4.821-6.412ZM40.33,43.9a2.228,2.228,0,0,0-.864.17L18.1,53.146a2.136,2.136,0,1,0,1.526,3.989l.137-.065,20.4-8.649,1.626.92L60.616,59.994a2.165,2.165,0,0,0,1.631.194L69.9,58.02l13.7-3.881A2.137,2.137,0,0,0,82.557,50l-.113.032-20.5,5.806L41.347,44.182A2.141,2.141,0,0,0,40.33,43.9Zm52.6,25.535a23.5,23.5,0,1,1-23.5,23.5A23.472,23.472,0,0,1,92.934,69.434ZM89.316,79.682a2.137,2.137,0,0,0-2.108,2.164v22.176a2.14,2.14,0,0,0,4.28.065V81.846a2.137,2.137,0,0,0-2.108-2.164Zm-7.171,2.77a2.147,2.147,0,0,0-2.108,2.164v19.406a2.136,2.136,0,1,0,4.272.065V84.616A2.137,2.137,0,0,0,82.2,82.452ZM96.5,88a2.137,2.137,0,0,0-2.108,2.164v13.858a2.136,2.136,0,1,0,4.272.065V90.164A2.132,2.132,0,0,0,96.552,88Zm7.171,2.77a2.13,2.13,0,0,0-2.1,2.164v11.088a2.136,2.136,0,1,0,4.272.065V92.934a2.137,2.137,0,0,0-2.108-2.164Z" transform="translate(162.286 126.614)" fill="#6b9ff3"/>
  </g>
</svg>
