<svg width="24" height="24" viewBox="0 0 24 24" fill="none" xmlns="http://www.w3.org/2000/svg">
<g clip-path="url(#clip0_17_61)">
<path d="M11.1124 14.4233C11.1124 15.2405 10.4544 15.9029 9.64275 15.9029C8.83107 15.9029 8.17307 15.2405 8.17307 14.4233C8.17307 13.6061 8.83107 12.9437 9.64275 12.9437C10.4544 12.9437 11.1124 13.6061 11.1124 14.4233Z" fill="black" fill-opacity="0.6"/>
<path d="M15.8889 14.4233C15.8889 15.2405 15.2309 15.9029 14.4192 15.9029C13.6075 15.9029 12.9495 15.2405 12.9495 14.4233C12.9495 13.6061 13.6075 12.9437 14.4192 12.9437C15.2309 12.9437 15.8889 13.6061 15.8889 14.4233Z" fill="black" fill-opacity="0.6"/>
<path fill-rule="evenodd" clip-rule="evenodd" d="M8.11122 9.94884C6.88392 9.94884 5.889 10.9505 5.889 12.1861V16.6605C5.889 17.8961 6.88392 18.8977 8.11122 18.8977H15.889C17.1163 18.8977 18.1112 17.8961 18.1112 16.6605V12.1861C18.1112 10.9505 17.1163 9.94884 15.889 9.94884H8.11122ZM16.4446 12.1861C16.4446 11.8772 16.1958 11.6268 15.889 11.6268H8.11122C7.80439 11.6268 7.55566 11.8772 7.55566 12.1861V16.6605C7.55566 16.9694 7.80439 17.2198 8.11122 17.2198H15.889C16.1958 17.2198 16.4446 16.9694 16.4446 16.6605V12.1861Z" fill="black" fill-opacity="0.6"/>
<path fill-rule="evenodd" clip-rule="evenodd" d="M14.2223 2.23721C14.2223 3.27966 13.6756 4.15559 12.7171 4.40394V5.66842H13.0317C14.104 5.66842 15.061 6.20872 15.6322 7.04047H16.4709C18.9565 7.04047 21 9.0546 21 11.5743V17.2722C21 19.1659 19.8458 20.7741 18.2171 21.4562V21.5226C18.2171 23.4935 16.0684 24.6343 14.4511 23.6261L11.5314 21.8061H7.5291C5.04346 21.8061 3 19.7919 3 17.2722V11.5743C3 9.0546 5.04346 7.04047 7.5291 7.04047H8.36779C8.93895 6.20872 9.89603 5.66842 10.9683 5.66842H11.2721V4.40394C10.3136 4.15559 9.77789 3.27966 9.77789 2.23721C9.77789 1.00163 10.7728 0 12.0001 0C13.2274 0 14.2223 1.00163 14.2223 2.23721ZM12.5557 2.23721C12.5557 2.54611 12.3069 2.79651 12.0001 2.79651C11.6933 2.79651 11.4446 2.54611 11.4446 2.23721C11.4446 1.92832 11.6933 1.67791 12.0001 1.67791C12.3069 1.67791 12.5557 1.92832 12.5557 2.23721ZM9.59259 8.83024C9.59259 8.07248 10.2085 7.45819 10.9683 7.45819H13.0317C13.7915 7.45819 14.4074 8.07248 14.4074 8.83024H16.4709C17.9904 8.83024 19.2222 10.0588 19.2222 11.5743V17.2722C19.2222 18.7877 17.9904 20.0163 16.4709 20.0163H16.4393V21.5226C16.4393 22.0615 15.8451 22.39 15.3869 22.1044L12.0372 20.0163H7.5291C6.00959 20.0163 4.77778 18.7877 4.77778 17.2722V11.5743C4.77778 10.0588 6.00959 8.83024 7.5291 8.83024L9.59259 8.83024Z" fill="black" fill-opacity="0.6"/>
</g>
<defs>
<clipPath id="clip0_17_61">
<rect width="24" height="24" fill="white"/>
</clipPath>
</defs>
</svg>
