<svg width="200" height="45" viewBox="0 0 200 45" fill="none" xmlns="http://www.w3.org/2000/svg">
<path d="M69.9946 31.734H67.8342C67.6175 31.734 67.443 31.5595 67.443 31.3429V22.5537C67.443 19.3834 70.0126 16.8146 73.1841 16.8146H74.478C74.6946 16.8146 74.8691 16.989 74.8691 17.2056V19.3653C74.8691 19.5819 74.6946 19.7564 74.478 19.7564H73.1841C71.6375 19.7564 70.3858 21.0077 70.3858 22.5537V31.3429C70.3858 31.5595 70.2112 31.734 69.9946 31.734Z" fill="#92BBFF"/>
<path d="M63.098 14.3836H64.8854C65.102 14.3836 65.2765 14.2091 65.2765 13.9926V11.8329C65.2765 11.6163 65.102 11.4418 64.8854 11.4418H63.098C59.4753 11.4418 56.5385 14.3776 56.5385 17.9991V31.3544C56.5385 31.571 56.713 31.7454 56.9297 31.7454H59.0901C59.3068 31.7454 59.4813 31.571 59.4813 31.3544V22.7036H64.8132C65.0298 22.7036 65.2043 22.5291 65.2043 22.3125V20.1528C65.2043 19.9363 65.0298 19.7618 64.8132 19.7618H59.4813V17.9991C59.4813 16.0019 61.1001 14.3836 63.098 14.3836Z" fill="#92BBFF"/>
<path d="M113.053 28.7977C111.061 28.7977 109.436 27.2095 109.436 25.2603V19.7618H113.348C113.564 19.7618 113.739 19.5873 113.739 19.3708V17.2111C113.739 16.9945 113.564 16.82 113.348 16.82H109.436V11.8329C109.436 11.6163 109.262 11.4418 109.045 11.4418H106.885C106.668 11.4418 106.493 11.6163 106.493 11.9051V25.3325C106.493 28.8277 109.436 31.7334 113.053 31.7334H113.402C113.619 31.7334 113.793 31.5589 113.793 31.3424V29.1827C113.793 28.9661 113.619 28.7916 113.402 28.7916H113.053V28.7977Z" fill="#92BBFF"/>
<path d="M123.012 28.7977C121.021 28.7977 119.396 27.2095 119.396 25.2603V19.7618H123.307C123.524 19.7618 123.699 19.5873 123.699 19.3708V17.2111C123.699 16.9945 123.524 16.82 123.307 16.82H119.396V11.8329C119.396 11.6163 119.221 11.4418 119.005 11.4418H116.844C116.627 11.4418 116.453 11.6163 116.453 11.9051V25.3325C116.453 28.8277 119.396 31.7334 123.012 31.7334H123.362C123.578 31.7334 123.753 31.5589 123.753 31.3424V29.1827C123.753 28.9661 123.578 28.7916 123.362 28.7916H123.012V28.7977Z" fill="#92BBFF"/>
<path d="M88.1566 31.745C87.94 31.745 87.7655 31.5705 87.7655 31.354V24.3635C87.7655 21.8128 85.7435 19.6531 83.1918 19.647C80.6402 19.641 78.6062 21.6985 78.6122 24.2251C78.6122 26.7759 80.7787 28.7972 83.3303 28.7972H85.8518C86.0684 28.7972 86.2429 28.9717 86.2429 29.1882V31.3479C86.2429 31.5645 86.0684 31.739 85.8518 31.739H83.3664C79.3885 31.739 75.9643 28.725 75.6875 24.7605C75.3685 20.1945 79.1598 16.4045 83.7274 16.7233C87.6933 17.0001 90.7083 20.4231 90.7083 24.3996V31.3479C90.7083 31.5645 90.5337 31.739 90.3171 31.739H88.1566V31.745Z" fill="#92BBFF"/>
<path d="M103.852 31.746H100.427C96.3834 31.746 92.9351 28.6117 92.7846 24.5691C92.6222 20.3218 96.0343 16.8146 100.247 16.8146H103.852C104.068 16.8146 104.243 16.989 104.243 17.2056V19.3653C104.243 19.5819 104.068 19.7564 103.852 19.7564H100.379C98.0263 19.7564 95.9621 21.501 95.7455 23.8411C95.4927 26.5302 97.611 28.7982 100.247 28.7982H103.852C104.068 28.7982 104.243 28.9727 104.243 29.1893V31.349C104.243 31.5655 104.068 31.74 103.852 31.74V31.746Z" fill="#92BBFF"/>
<path d="M145.002 11.4418H142.842C142.626 11.4418 142.451 11.6169 142.451 11.8329V31.3544C142.451 31.5704 142.626 31.7454 142.842 31.7454H145.002C145.218 31.7454 145.393 31.5704 145.393 31.3544V11.8329C145.393 11.6169 145.218 11.4418 145.002 11.4418Z" fill="#92BBFF"/>
<path d="M137.432 31.745C137.215 31.745 137.041 31.5705 137.041 31.354V24.3635C137.041 21.8128 135.019 19.6531 132.467 19.647C129.915 19.641 127.881 21.6985 127.887 24.2251C127.887 26.7759 130.054 28.7972 132.605 28.7972H135.127C135.344 28.7972 135.518 28.9717 135.518 29.1882V31.3479C135.518 31.5645 135.344 31.739 135.127 31.739H132.641C128.664 31.739 125.239 28.725 124.963 24.7605C124.644 20.1945 128.435 16.4045 133.003 16.7233C136.968 17.0001 139.983 20.4231 139.983 24.3996V31.3479C139.983 31.5645 139.809 31.739 139.592 31.739H137.432V31.745Z" fill="#92BBFF"/>
<path d="M35.6022 18.078C37.3804 18.078 38.8218 16.637 38.8218 14.8595C38.8218 13.0819 37.3804 11.641 35.6022 11.641C33.8241 11.641 32.3826 13.0819 32.3826 14.8595C32.3826 16.637 33.8241 18.078 35.6022 18.078Z" fill="#92BBFF"/>
<path d="M28.6272 14.8598C30.0996 14.8598 31.2932 13.6666 31.2932 12.1948C31.2932 10.7229 30.0996 9.52975 28.6272 9.52975C27.1549 9.52975 25.9613 10.7229 25.9613 12.1948C25.9613 13.6666 27.1549 14.8598 28.6272 14.8598Z" fill="#92BBFF"/>
<path d="M22.3685 14.4202C23.5983 14.4202 24.5952 13.4236 24.5952 12.1943C24.5952 10.965 23.5983 9.96843 22.3685 9.96843C21.1388 9.96843 20.1419 10.965 20.1419 12.1943C20.1419 13.4236 21.1388 14.4202 22.3685 14.4202Z" fill="#92BBFF"/>
<path d="M18.493 17.2054C19.3172 17.2054 19.9854 16.5374 19.9854 15.7135C19.9854 14.8895 19.3172 14.2215 18.493 14.2215C17.6687 14.2215 17.0005 14.8895 17.0005 15.7135C17.0005 16.5374 17.6687 17.2054 18.493 17.2054Z" fill="#92BBFF"/>
<path d="M17.0007 20.827C17.6355 20.827 18.1501 20.3125 18.1501 19.6779C18.1501 19.0434 17.6355 18.5289 17.0007 18.5289C16.3659 18.5289 15.8513 19.0434 15.8513 19.6779C15.8513 20.3125 16.3659 20.827 17.0007 20.827Z" fill="#92BBFF"/>
<path d="M40.8017 26.5914C43.085 26.5914 44.936 24.741 44.936 22.4585C44.936 20.176 43.085 18.3256 40.8017 18.3256C38.5183 18.3256 36.6673 20.176 36.6673 22.4585C36.6673 24.741 38.5183 26.5914 40.8017 26.5914Z" fill="#92BBFF"/>
<path d="M9.33372 33.2799C11.1119 33.2799 12.5533 31.8389 12.5533 30.0614C12.5533 28.2839 11.1119 26.8429 9.33372 26.8429C7.55558 26.8429 6.11412 28.2839 6.11412 30.0614C6.11412 31.8389 7.55558 33.2799 9.33372 33.2799Z" fill="#92BBFF"/>
<path d="M16.3086 35.3913C17.781 35.3913 18.9746 34.1982 18.9746 32.7263C18.9746 31.2544 17.781 30.0613 16.3086 30.0613C14.8363 30.0613 13.6427 31.2544 13.6427 32.7263C13.6427 34.1982 14.8363 35.3913 16.3086 35.3913Z" fill="#92BBFF"/>
<path d="M22.5673 34.9517C23.797 34.9517 24.7939 33.9551 24.7939 32.7258C24.7939 31.4965 23.797 30.4999 22.5673 30.4999C21.3376 30.4999 20.3407 31.4965 20.3407 32.7258C20.3407 33.9551 21.3376 34.9517 22.5673 34.9517Z" fill="#92BBFF"/>
<path d="M26.4428 30.6986C27.267 30.6986 27.9352 30.0306 27.9352 29.2066C27.9352 28.3826 27.267 27.7147 26.4428 27.7147C25.6185 27.7147 24.9503 28.3826 24.9503 29.2066C24.9503 30.0306 25.6185 30.6986 26.4428 30.6986Z" fill="#92BBFF"/>
<path d="M27.9354 26.3905C28.5702 26.3905 29.0848 25.8761 29.0848 25.2415C29.0848 24.6069 28.5702 24.0925 27.9354 24.0925C27.3006 24.0925 26.786 24.6069 26.786 25.2415C26.786 25.8761 27.3006 26.3905 27.9354 26.3905Z" fill="#92BBFF"/>
<path d="M4.13432 26.5956C6.41765 26.5956 8.26865 24.7452 8.26865 22.4627C8.26865 20.1801 6.41765 18.3298 4.13432 18.3298C1.851 18.3298 0 20.1801 0 22.4627C0 24.7452 1.851 26.5956 4.13432 26.5956Z" fill="#92BBFF"/>
<path d="M30.0716 38.8086C31.8498 38.8086 33.2912 37.3677 33.2912 35.5901C33.2912 33.8126 31.8498 32.3716 30.0716 32.3716C28.2935 32.3716 26.852 33.8126 26.852 35.5901C26.852 37.3677 28.2935 38.8086 30.0716 38.8086Z" fill="#92BBFF"/>
<path d="M32.7378 31.2817C34.2102 31.2817 35.4038 30.0885 35.4038 28.6167C35.4038 27.1448 34.2102 25.9516 32.7378 25.9516C31.2655 25.9516 30.0719 27.1448 30.0719 28.6167C30.0719 30.0885 31.2655 31.2817 32.7378 31.2817Z" fill="#92BBFF"/>
<path d="M32.7378 24.5864C33.9675 24.5864 34.9644 23.5898 34.9644 22.3605C34.9644 21.1312 33.9675 20.1346 32.7378 20.1346C31.5081 20.1346 30.5112 21.1312 30.5112 22.3605C30.5112 23.5898 31.5081 24.5864 32.7378 24.5864Z" fill="#92BBFF"/>
<path d="M29.2171 19.9781C30.0414 19.9781 30.7096 19.3102 30.7096 18.4862C30.7096 17.6622 30.0414 16.9942 29.2171 16.9942C28.3929 16.9942 27.7247 17.6622 27.7247 18.4862C27.7247 19.3102 28.3929 19.9781 29.2171 19.9781Z" fill="#92BBFF"/>
<path d="M25.2514 18.1434C25.8862 18.1434 26.4009 17.6289 26.4009 16.9944C26.4009 16.3598 25.8862 15.8453 25.2514 15.8453C24.6166 15.8453 24.102 16.3598 24.102 16.9944C24.102 17.6289 24.6166 18.1434 25.2514 18.1434Z" fill="#92BBFF"/>
<path d="M22.4711 44.9198C24.7544 44.9198 26.6054 43.0694 26.6054 40.7869C26.6054 38.5043 24.7544 36.654 22.4711 36.654C20.1878 36.654 18.3368 38.5043 18.3368 40.7869C18.3368 43.0694 20.1878 44.9198 22.4711 44.9198Z" fill="#92BBFF"/>
<path d="M14.8643 12.5492C16.6425 12.5492 18.0839 11.1083 18.0839 9.33074C18.0839 7.55321 16.6425 6.11224 14.8643 6.11224C13.0862 6.11224 11.6447 7.55321 11.6447 9.33074C11.6447 11.1083 13.0862 12.5492 14.8643 12.5492Z" fill="#92BBFF"/>
<path d="M12.1984 18.9681C13.6707 18.9681 14.8643 17.7749 14.8643 16.303C14.8643 14.8312 13.6707 13.638 12.1984 13.638C10.726 13.638 9.53244 14.8312 9.53244 16.303C9.53244 17.7749 10.726 18.9681 12.1984 18.9681Z" fill="#92BBFF"/>
<path d="M12.1984 24.7855C13.4281 24.7855 14.425 23.789 14.425 22.5596C14.425 21.3303 13.4281 20.3338 12.1984 20.3338C10.9686 20.3338 9.97172 21.3303 9.97172 22.5596C9.97172 23.789 10.9686 24.7855 12.1984 24.7855Z" fill="#92BBFF"/>
<path d="M15.719 27.9258C16.5433 27.9258 17.2114 27.2579 17.2114 26.4339C17.2114 25.6099 16.5433 24.942 15.719 24.942C14.8947 24.942 14.2265 25.6099 14.2265 26.4339C14.2265 27.2579 14.8947 27.9258 15.719 27.9258Z" fill="#92BBFF"/>
<path d="M19.6847 29.0741C20.3195 29.0741 20.8341 28.5597 20.8341 27.9251C20.8341 27.2905 20.3195 26.7761 19.6847 26.7761C19.0499 26.7761 18.5352 27.2905 18.5352 27.9251C18.5352 28.5597 19.0499 29.0741 19.6847 29.0741Z" fill="#92BBFF"/>
<path d="M22.4649 8.26582C24.7482 8.26582 26.5992 6.41546 26.5992 4.13291C26.5992 1.85037 24.7482 0 22.4649 0C20.1815 0 18.3305 1.85037 18.3305 4.13291C18.3305 6.41546 20.1815 8.26582 22.4649 8.26582Z" fill="#92BBFF"/>
<path d="M157.887 16.6099C153.662 16.6099 150.238 20.0329 150.238 24.2561C150.238 28.4792 153.662 31.9022 157.887 31.9022C162.111 31.9022 165.535 28.4792 165.535 24.2561C165.535 20.0329 162.111 16.6099 157.887 16.6099ZM157.887 28.8642C155.341 28.8642 153.277 26.8008 153.277 24.2561C153.277 21.7113 155.341 19.6479 157.887 19.6479C160.432 19.6479 162.496 21.7113 162.496 24.2561C162.496 26.8008 160.432 28.8642 157.887 28.8642Z" fill="#CFE1FF"/>
<path d="M167.684 31.3483V24.2556C167.684 20.2129 170.819 16.7658 174.863 16.6154C179.112 16.453 182.62 19.864 182.62 24.0751V31.3483C182.62 31.5649 182.446 31.7394 182.229 31.7394H180.069C179.852 31.7394 179.678 31.5649 179.678 31.3483V24.2075C179.678 21.8553 177.932 19.7918 175.591 19.5753C172.901 19.3226 170.633 21.4402 170.633 24.0751V31.3483C170.633 31.5649 170.458 31.7394 170.242 31.7394H168.081C167.864 31.7394 167.69 31.5649 167.69 31.3483H167.684Z" fill="#CFE1FF"/>
<path d="M196.455 27.0412C196.335 27.0412 196.221 27.1013 196.149 27.1976C195.27 28.3346 193.904 29.0685 192.351 29.0685C190.137 29.0685 188.271 27.5706 187.711 25.5312H199.543C199.735 25.5312 199.904 25.3868 199.934 25.1943C199.976 24.8875 200 24.5747 200 24.2558C200 23.8167 199.952 23.3895 199.886 22.9684C199.266 19.3168 196.064 16.5435 192.219 16.6096C188.373 16.6758 184.877 19.9424 184.714 23.937C184.534 28.3045 188.024 31.902 192.357 31.902C195.372 31.902 197.972 30.1514 199.218 27.6127C199.344 27.348 199.157 27.0412 198.869 27.0412H196.455ZM192.357 19.4431C194.572 19.4431 196.425 20.9351 196.991 22.9684H187.723C188.289 20.9351 190.149 19.4431 192.357 19.4431Z" fill="#CFE1FF"/>
</svg>
