<svg width="330" height="69" viewBox="0 0 330 69" fill="none" xmlns="http://www.w3.org/2000/svg">
<path d="M99.4578 28.5467V33.5849H88.3551V51.3119H83.4102V28.64C83.2236 25.2812 84.5298 22.0157 86.8623 19.5899C89.2881 17.2574 92.4603 16.0445 95.8191 16.1378H99.9243V21.0827H95.9124C93.8598 20.9894 91.9005 21.7358 90.4077 23.042C89.0082 24.5348 88.2618 26.4941 88.4484 28.5467H99.4578Z" fill="#4687F1"/>
<path d="M118.305 26.2144V31.1593H117.559C113.92 31.1593 111.401 31.9057 110.001 33.3052C108.882 34.4248 108.322 36.1975 108.322 38.7166V51.3121H103.377V38.7166C103.377 34.8913 104.403 31.999 106.456 29.8531C108.788 27.334 112.52 26.1211 117.559 26.1211L118.305 26.2144Z" fill="#4687F1"/>
<path d="M138.27 45.1556V50.7536C137.057 51.3134 135.751 51.6866 134.445 51.7799C132.205 52.0598 129.966 51.7799 127.914 50.9402C125.768 50.1005 123.995 48.701 122.689 46.7417C121.196 44.3159 120.45 41.5169 120.543 38.6246C120.543 34.5194 121.663 31.3472 123.995 29.0147C128.847 23.9765 136.777 23.8832 141.722 28.6415C144.334 31.1606 145.734 34.6127 145.547 38.1581V51.2201H140.602V38.2514C140.696 36.1988 139.949 34.1462 138.55 32.6534C135.284 30.041 130.713 30.041 127.447 32.6534C126.141 34.0529 125.395 36.0122 125.395 38.8112C125.395 41.6102 126.048 43.5695 127.447 44.8757C128.94 46.2752 130.993 47.0216 133.045 46.835C134.911 46.9283 136.777 46.3685 138.27 45.1556Z" fill="#4687F1"/>
<path d="M168.686 30.6958H167.193C162.621 30.6958 159.636 30.9757 158.05 31.7221C157.023 32.0953 156.184 32.7484 155.624 33.6814C154.877 35.2675 154.504 37.0402 154.598 38.8129C154.504 40.4923 154.784 42.265 155.531 43.8511C156.09 44.6908 156.837 45.4372 157.77 45.8104C159.356 46.5568 162.435 46.93 167.1 46.93H168.593V51.8749H167.1C161.688 51.8749 157.956 51.4084 155.717 50.3821C153.851 49.5424 152.265 48.1429 151.239 46.3702C150.026 44.0377 149.466 41.5186 149.559 38.9062C149.466 36.2005 150.026 33.5881 151.332 31.2556C152.452 29.4829 154.131 28.0834 156.09 27.337C158.33 26.404 161.968 25.9375 167.193 25.9375H168.686V30.6958Z" fill="#4687F1"/>
<path d="M177.83 31.1619V38.7192C177.736 40.7718 178.483 42.8244 179.882 44.3172C181.375 45.7167 183.334 46.3698 185.387 46.2765H185.853V51.3147H185.387C178.856 51.6879 173.258 46.6497 172.885 40.1187C172.885 39.6522 172.885 39.1857 172.885 38.7192V16.1406H177.83V26.217H185.667V31.1619H177.83Z" fill="#4687F1"/>
<path d="M194.253 31.1619V38.7192C194.159 40.7718 194.812 42.8244 196.305 44.3172C197.798 45.7167 199.851 46.3698 201.81 46.2765H202.276V51.3147H201.81C195.279 51.6879 189.681 46.6497 189.308 40.1187C189.308 39.6522 189.308 39.1857 189.308 38.7192V16.1406H194.253V26.217H202.09V31.1619H194.253Z" fill="#4687F1"/>
<path d="M222.242 45.1598V50.7578C221.029 51.3176 219.723 51.6908 218.416 51.7841C216.177 52.064 213.938 51.784 211.885 50.9443C209.739 50.1047 207.967 48.7051 206.661 46.7458C205.168 44.32 204.421 41.521 204.515 38.6287C204.515 34.5235 205.634 31.3513 207.967 29.0188C212.818 24.0739 220.749 23.8873 225.694 28.7389C228.213 31.258 229.612 34.7101 229.519 38.2555V51.3176H224.574V38.2555C224.667 36.2029 223.921 34.1503 222.522 32.6575C219.256 30.0451 214.684 30.0451 211.419 32.6575C210.113 34.057 209.366 36.0163 209.366 38.8153C209.366 41.6143 210.019 43.5736 211.419 44.8798C212.912 46.2793 214.964 47.0258 217.017 46.8392C218.976 46.9325 220.749 46.3727 222.242 45.1598Z" fill="#4687F1"/>
<path d="M239.876 51.3147H234.931V16.1406H239.876V51.3147Z" fill="#4687F1"/>
<path fill-rule="evenodd" clip-rule="evenodd" d="M10.4496 47.6771C9.0501 45.2513 9.8898 42.0791 12.3156 40.6796C14.7414 39.2801 17.9136 40.1198 19.3131 42.5456C20.7126 44.9714 19.8729 48.1436 17.4471 49.5431C14.928 50.9426 11.8491 50.1029 10.4496 47.6771ZM23.2317 52.7153C21.2724 51.5957 20.6193 49.1699 21.7389 47.2106C22.8585 45.2513 25.2843 44.5982 27.2436 45.7178C29.2029 46.8374 29.856 49.2632 28.7364 51.2225C27.6168 53.0885 25.191 53.8349 23.2317 52.7153ZM34.2411 51.8756C32.3751 51.8756 30.8823 50.4761 30.8823 48.6101C30.8823 46.7441 32.2818 45.2513 34.1478 45.2513C36.0138 45.2513 37.5066 46.6508 37.5066 48.5168C37.5999 50.3828 36.1071 51.8756 34.2411 51.8756ZM41.3319 45.7178C40.119 46.4642 38.5329 46.091 37.7865 44.8781C37.0401 43.6652 37.4133 42.0791 38.6262 41.3327C39.8391 40.5863 41.4252 40.9595 42.1716 42.1724C42.918 43.3853 42.5448 44.9714 41.3319 45.7178ZM42.918 37.9739C42.5448 38.9069 41.4252 39.3734 40.4922 39.0002C39.5592 38.627 39.0927 37.5074 39.4659 36.5744C39.8391 35.6414 40.9587 35.1749 41.8917 35.5481H41.985C42.918 36.0146 43.2912 37.0409 42.918 37.9739ZM0 34.0553C0 30.5099 2.799 27.7109 6.3444 27.7109C9.8898 27.7109 12.6888 30.5099 12.6888 34.0553C12.6888 37.6007 9.8898 40.3997 6.3444 40.3997C2.799 40.3997 0 37.5074 0 34.0553Z" fill="#4687F1"/>
<path fill-rule="evenodd" clip-rule="evenodd" d="M20.4324 10.4496C22.8582 9.0501 25.9371 9.8898 27.3366 12.3156C28.7361 14.7414 27.8964 17.8203 25.4706 19.2198C23.0448 20.6193 19.9659 19.7796 18.5664 17.3538C17.1669 14.928 17.9133 11.8491 20.4324 10.4496ZM15.3942 23.2317C16.5138 21.2724 18.9396 20.7126 20.8989 21.8322C22.8582 22.9518 23.418 25.3776 22.2984 27.3369C21.1788 29.2962 18.753 29.856 16.7937 28.7364C14.9277 27.6168 14.2746 25.191 15.3942 23.2317ZM16.1406 34.521C16.1406 32.655 17.6334 31.1622 19.4994 31.1622C21.3654 31.1622 22.8582 32.655 22.8582 34.521C22.8582 36.387 21.3654 37.8798 19.4994 37.8798C17.6334 37.8798 16.1406 36.387 16.1406 34.521ZM22.6716 41.7984C21.9252 40.5855 22.3917 38.9994 23.6046 38.253C24.8175 37.5066 26.4036 37.9731 27.15 39.186C27.8964 40.3989 27.5232 41.985 26.3103 42.7314C25.0041 43.4778 23.418 43.1046 22.6716 41.7984C22.6716 41.8917 22.6716 41.8917 22.6716 41.7984ZM30.3222 43.6644C29.3892 43.1979 28.9227 42.0783 29.3892 41.1453C29.8557 40.2123 30.9753 39.7458 31.9083 40.2123C32.8413 40.6788 33.3078 41.7984 32.8413 42.7314C32.3748 43.7577 31.2552 44.1309 30.3222 43.6644ZM36.1068 41.7984C35.2671 41.985 34.5207 41.4252 34.3341 40.5855C34.1475 39.7458 34.7073 38.9994 35.547 38.8128C36.3867 38.6262 37.1331 39.186 37.3197 40.0257C37.413 40.8654 36.8532 41.6118 36.1068 41.7984ZM34.0542 0C37.5996 0 40.3986 2.799 40.3986 6.3444C40.3986 9.8898 37.5996 12.6888 34.0542 12.6888C30.5088 12.6888 27.7098 9.8898 27.7098 6.3444C27.6165 2.799 30.5088 0 34.0542 0Z" fill="#4687F1"/>
<path fill-rule="evenodd" clip-rule="evenodd" d="M42.5427 48.7921C44.9685 47.3926 48.1407 48.2323 49.5402 50.6581C50.9397 53.0839 50.1 56.2561 47.6742 57.6556C45.2484 59.0551 42.0762 58.2154 40.6767 55.7896C39.2772 53.3638 40.1169 50.1916 42.5427 48.7921ZM45.7149 40.7683C46.8345 38.809 49.2603 38.1559 51.2196 39.2755C53.1789 40.3951 53.832 42.8209 52.7124 44.7802C51.5928 46.7395 49.167 47.3926 47.2077 46.273C45.2484 45.1534 44.5953 42.7276 45.7149 40.7683ZM45.2484 33.4909C45.2484 31.6249 46.7412 30.1321 48.6072 30.1321C50.4732 30.1321 51.966 31.6249 51.966 33.4909C51.966 35.3569 50.4732 36.8497 48.6072 36.8497C46.6479 36.7564 45.2484 35.2636 45.2484 33.4909ZM40.9566 28.8259C40.2102 27.613 40.6767 26.0269 41.8896 25.2805C43.1025 24.5341 44.6886 25.0006 45.435 26.2135C46.1814 27.4264 45.8082 29.0125 44.5953 29.7589C43.2891 30.412 41.703 30.0388 40.9566 28.8259ZM36.1983 27.8929C35.2653 27.4264 34.7988 26.3068 35.2653 25.3738C35.7318 24.4408 36.8514 23.9743 37.7844 24.4408C38.7174 24.9073 39.1839 26.0269 38.7174 26.9599C38.2509 27.8929 37.1313 28.3594 36.1983 27.8929ZM32.5596 29.1991C31.7199 29.2924 30.9735 28.7326 30.8802 27.8929C30.7869 27.1465 31.2534 26.4934 31.9998 26.2135C32.8395 26.0269 33.5859 26.4934 33.8658 27.2398C34.0524 28.0795 33.5859 28.8259 32.8395 29.1058C32.6529 29.1991 32.6529 29.1991 32.5596 29.1991ZM34.0524 55.3231C37.5978 55.3231 40.3968 58.1221 40.3968 61.6675C40.3968 65.2129 37.5978 68.0119 34.0524 68.0119C30.507 68.0119 27.708 65.2129 27.708 61.6675C27.708 58.2154 30.507 55.3231 34.0524 55.3231Z" fill="#4687F1"/>
<path fill-rule="evenodd" clip-rule="evenodd" d="M29.3875 26.6825C28.1746 27.4289 26.5885 27.0557 25.8421 25.8428C25.0957 24.6299 25.4689 23.0438 26.6818 22.2974C27.8947 21.551 29.4808 21.9242 30.2272 23.1371C30.9736 24.35 30.6004 25.9361 29.3875 26.6825ZM33.8659 22.8572C31.9999 22.8572 30.5071 21.4577 30.5071 19.5917C30.5071 17.7257 31.9066 16.2329 33.7726 16.2329C35.6386 16.2329 37.1314 17.6324 37.1314 19.4984C37.1314 21.2711 35.7319 22.7639 33.8659 22.8572ZM40.7701 22.2974C38.8108 21.1778 38.1577 18.752 39.2773 16.7927C40.3969 14.8334 42.8227 14.1803 44.782 15.2999C46.7413 16.4195 47.3944 18.8453 46.2748 20.8046C45.1552 22.7639 42.7294 23.417 40.7701 22.2974ZM48.7939 25.4696C47.3944 23.0438 48.2341 19.9649 50.6599 18.5654C53.0857 17.1659 56.1646 18.0056 57.5641 20.4314C58.9636 22.8572 58.1239 25.9361 55.6981 27.3356C53.3656 28.7351 50.1934 27.8954 48.7939 25.4696ZM55.3249 34.0532C55.3249 30.5078 58.1239 27.7088 61.6693 27.7088C65.2147 27.7088 68.0137 30.5078 68.0137 34.0532C68.0137 37.5986 65.2147 40.3976 61.6693 40.3976C58.2172 40.3976 55.3249 37.5053 55.3249 34.0532ZM28.4545 31.5341C28.0813 32.4671 26.9617 32.9336 26.0287 32.5604C25.0957 32.1872 24.6292 31.0676 25.0024 30.1346C25.3756 29.2016 26.4952 28.7351 27.4282 29.1083C27.4282 29.1083 27.4282 29.1083 27.5215 29.1083C28.3612 29.5748 28.8277 30.6011 28.4545 31.5341Z" fill="#4687F1"/>
<path d="M320.57 51.8578C318.416 51.8578 316.539 51.4213 314.939 50.5482C313.367 49.6752 312.145 48.3801 311.272 46.6631C310.428 44.9461 310.006 42.8508 310.006 40.3772C310.006 36.5649 310.893 33.6838 312.669 31.734C314.473 29.7551 316.976 28.7656 320.177 28.7656C322.534 28.7656 324.44 29.2895 325.895 30.3371C327.35 31.3848 328.398 32.8544 329.038 34.746C329.708 36.6085 330.028 38.7911 329.999 41.2939H312.756L312.625 37.889H326.506L325.415 38.9803C325.328 36.7395 324.862 35.1098 324.018 34.0912C323.174 33.0436 321.85 32.5197 320.046 32.5197C318.882 32.5197 317.892 32.7671 317.078 33.2618C316.263 33.7275 315.637 34.5423 315.201 35.7064C314.793 36.8413 314.589 38.4128 314.589 40.4208C314.589 42.8654 315.157 44.7279 316.292 46.0084C317.427 47.2597 319.1 47.8854 321.312 47.8854C322.301 47.8854 323.218 47.7981 324.062 47.6235C324.935 47.4489 325.735 47.2306 326.463 46.9687C327.19 46.6777 327.816 46.4012 328.34 46.1393V50.3736C327.321 50.8101 326.172 51.1593 324.891 51.4213C323.611 51.7123 322.17 51.8578 320.57 51.8578Z" fill="#4687F1" fill-opacity="0.8"/>
<path d="M285.563 31.0746C286.203 30.7545 286.916 30.4635 287.702 30.2016C288.517 29.9105 289.375 29.6632 290.277 29.4595C291.18 29.2558 292.096 29.0957 293.028 28.9793C293.959 28.8629 294.861 28.8047 295.734 28.8047C297.8 28.8047 299.488 29.0957 300.798 29.6777C302.107 30.2307 303.082 31.1037 303.722 32.2969C304.363 33.461 304.683 34.9306 304.683 36.7058V51.1984H300.099V37.3169C300.099 36.764 300.027 36.2256 299.881 35.7018C299.765 35.1488 299.517 34.6541 299.139 34.2176C298.79 33.752 298.266 33.3882 297.567 33.1263C296.898 32.8644 296.01 32.7334 294.905 32.7334C294.119 32.7334 293.304 32.8062 292.46 32.9517C291.645 33.0972 290.874 33.3009 290.146 33.5628V51.1984H285.563V31.0746Z" fill="#4687F1" fill-opacity="0.8"/>
<path d="M266.505 51.6859C263.624 51.6859 261.165 51.133 259.128 50.0271C257.12 48.9213 255.592 47.2625 254.544 45.0508C253.496 42.839 252.973 40.0453 252.973 36.6695C252.973 31.6931 254.122 27.939 256.421 25.4071C258.749 22.8753 262.111 21.6094 266.505 21.6094C269.415 21.6094 271.874 22.1623 273.882 23.2682C275.89 24.374 277.418 26.0474 278.466 28.2882C279.542 30.4999 280.081 33.2937 280.081 36.6695C280.081 41.6168 278.917 45.3563 276.589 47.8882C274.29 50.42 270.928 51.6859 266.505 51.6859ZM266.505 47.5389C268.455 47.5389 270.055 47.1752 271.307 46.4476C272.587 45.691 273.533 44.5124 274.144 42.9118C274.784 41.3112 275.104 39.2159 275.104 36.6258C275.104 34.0649 274.784 31.9987 274.144 30.4272C273.533 28.8266 272.587 27.6625 271.307 26.935C270.055 26.1783 268.455 25.8 266.505 25.8C264.584 25.8 262.984 26.1783 261.703 26.935C260.423 27.6916 259.462 28.8702 258.822 30.4708C258.211 32.0423 257.905 34.1085 257.905 36.6695C257.905 39.2304 258.211 41.3112 258.822 42.9118C259.462 44.5124 260.423 45.691 261.703 46.4476C262.984 47.1752 264.584 47.5389 266.505 47.5389Z" fill="#4687F1" fill-opacity="0.8"/>
</svg>
