<svg xmlns="http://www.w3.org/2000/svg" xmlns:xlink="http://www.w3.org/1999/xlink" width="180" height="150" viewBox="0 0 180 150">
  <defs>
    <clipPath id="clip-Photo-profile">
      <rect width="180" height="150"/>
    </clipPath>
  </defs>
  <g id="Photo-profile" clip-path="url(#clip-Photo-profile)">
    <g id="Grupo_276" data-name="Grupo 276" transform="translate(-2510.796 -564.937)">
      <path id="Trazado_2007" data-name="Trazado 2007" d="M2640.739,589.937h-80.773a10.184,10.184,0,0,0-10.171,10.172v78.955a10.183,10.183,0,0,0,10.171,10.17h80.773a10.181,10.181,0,0,0,10.169-10.17V600.109A10.182,10.182,0,0,0,2640.739,589.937Zm-80.773,4.5h80.773a5.68,5.68,0,0,1,5.672,5.675v45.208l-20.862-20.2a2.247,2.247,0,0,0-3.119-.008l-29.6,28.379-9.827-10.141a2.252,2.252,0,0,0-3.078-.14l-25.636,22.006v-65.1A5.68,5.68,0,0,1,2559.967,594.434Zm-5.674,84.629v-7.926L2581.252,648l9.9,10.211.006.007.007.005,25.7,26.517h-56.891A5.679,5.679,0,0,1,2554.293,679.063Zm86.446,5.673h-17.62l-27.155-28.021,28.015-26.863,22.432,21.724v27.487A5.678,5.678,0,0,1,2640.739,684.737Z" transform="translate(0 0)" fill="#e0e0e0"/>
      <path id="Trazado_2008" data-name="Trazado 2008" d="M2570.36,620.506a10.559,10.559,0,1,0-10.56-10.56A10.559,10.559,0,0,0,2570.36,620.506Zm0-16.622a6.062,6.062,0,1,1-6.063,6.062h0A6.069,6.069,0,0,1,2570.36,603.884Z" transform="translate(4.02 3.797)" fill="#e0e0e0"/>
    </g>
  </g>
</svg>
