<svg width="160" height="160" viewBox="0 0 160 160" fill="none" xmlns="http://www.w3.org/2000/svg">
<path d="M33.6275 92.7999L20 96.4998V132C20 136.418 23.5817 140 28 140H132C136.418 140 140 136.418 140 132V22L128.468 45.0549C124.9 52.1885 119.281 58.0925 112.332 62.0085L94.3258 72.1559C88.204 75.6059 81.0546 76.7658 74.1561 75.4281L71.8666 74.9842C62.5052 73.169 52.9076 76.6795 46.9266 84.1063C43.5216 88.3344 38.8666 91.3774 33.6275 92.7999Z" fill="#D7E5FC"/>
<path fill-rule="evenodd" clip-rule="evenodd" d="M138.913 20.2C139.876 20.6746 140.274 21.843 139.801 22.8097L126.578 49.8395C124.298 54.4989 120.648 58.3438 116.121 60.8547L93.0426 73.6551C87.852 76.5341 81.8175 77.4884 75.9961 76.3511L70.8643 75.3484C63.0689 73.8254 55.0747 76.7652 50.1058 82.9824L48.681 84.7651C45.6834 88.5157 41.6848 91.3334 37.1517 92.8896L22.5726 97.8945C21.5572 98.2431 20.4525 97.6996 20.1051 96.6806C19.7578 95.6617 20.2993 94.553 21.3147 94.2045L35.8938 89.1996C39.7295 87.8828 43.113 85.4986 45.6494 82.325L47.0742 80.5423C52.9466 73.1948 62.3942 69.7204 71.607 71.5204L76.7388 72.523C81.6646 73.4854 86.7707 72.6778 91.1628 70.2418L114.242 57.4414C118.072 55.3168 121.16 52.0634 123.089 48.1208L136.312 21.0911C136.785 20.1244 137.949 19.7254 138.913 20.2Z" fill="#5E98F4"/>
</svg>
