<svg xmlns="http://www.w3.org/2000/svg" xmlns:xlink="http://www.w3.org/1999/xlink" width="180" height="180" viewBox="0 0 180 180">
  <defs>
    <clipPath id="clip-Widget-boxplot">
      <rect width="180" height="180"/>
    </clipPath>
  </defs>
  <g id="Widget-boxplot" clip-path="url(#clip-Widget-boxplot)">
    <g id="Grupo_28" data-name="Grupo 28" transform="translate(0 -10.082)">
      <g id="Grupo_8" data-name="Grupo 8" transform="translate(37.959 45.082)">
        <line id="Línea_6" data-name="Línea 6" y2="90.333" transform="translate(6.452)" fill="none" stroke="#d9d9d9" stroke-linecap="round" stroke-width="3"/>
        <line id="Línea_7" data-name="Línea 7" x1="12.905" transform="translate(0)" fill="none" stroke="#d9d9d9" stroke-linecap="round" stroke-width="3"/>
        <line id="Línea_8" data-name="Línea 8" x1="12.905" transform="translate(0 90.333)" fill="none" stroke="#d9d9d9" stroke-linecap="round" stroke-width="3"/>
      </g>
      <g id="Grupo_10" data-name="Grupo 10" transform="translate(130.597 64.439)">
        <line id="Línea_6-2" data-name="Línea 6" y2="91" transform="translate(6.403 -0.439)" fill="none" stroke="#d9d9d9" stroke-linecap="round" stroke-width="3"/>
        <line id="Línea_7-2" data-name="Línea 7" x1="13" transform="translate(0.403 -0.439)" fill="none" stroke="#d9d9d9" stroke-linecap="round" stroke-width="3"/>
        <line id="Línea_8-2" data-name="Línea 8" x1="13" transform="translate(0.403 90.561)" fill="none" stroke="#d9d9d9" stroke-linecap="round" stroke-width="3"/>
      </g>
      <g id="Grupo_9" data-name="Grupo 9" transform="translate(84.048 45.082)">
        <line id="Línea_6-3" data-name="Línea 6" y2="105.081" transform="translate(6.452)" fill="none" stroke="#d9d9d9" stroke-linecap="round" stroke-width="3"/>
        <line id="Línea_7-3" data-name="Línea 7" x1="12.905" transform="translate(0)" fill="none" stroke="#d9d9d9" stroke-linecap="round" stroke-width="3"/>
        <line id="Línea_8-3" data-name="Línea 8" x1="12.905" transform="translate(0 105.081)" fill="none" stroke="#d9d9d9" stroke-linecap="round" stroke-width="3"/>
      </g>
      <path id="Rectángulo_14" data-name="Rectángulo 14" d="M0,0H36.871a0,0,0,0,1,0,0V12.592a4,4,0,0,1-4,4H4a4,4,0,0,1-4-4V0A0,0,0,0,1,0,0Z" transform="translate(25.516 87.023)" fill="#69f0ae"/>
      <path id="Rectángulo_15" data-name="Rectángulo 15" d="M0,0H37.792a0,0,0,0,1,0,0V38.4a4,4,0,0,1-4,4H4a4,4,0,0,1-4-4V0A0,0,0,0,1,0,0Z" transform="translate(71.604 72.274)" fill="#69f0ae"/>
      <path id="Rectángulo_13" data-name="Rectángulo 13" d="M4,0H32.871a4,4,0,0,1,4,4V14.748a0,0,0,0,1,0,0H0a0,0,0,0,1,0,0V4A4,4,0,0,1,4,0Z" transform="translate(25.516 72.274)" fill="#4687f1"/>
      <path id="Rectángulo_16" data-name="Rectángulo 16" d="M4,0H33.792a4,4,0,0,1,4,4V15.67a0,0,0,0,1,0,0H0a0,0,0,0,1,0,0V4A4,4,0,0,1,4,0Z" transform="translate(71.604 56.604)" fill="#4687f1"/>
      <path id="Rectángulo_17" data-name="Rectángulo 17" d="M0,0H36.871a0,0,0,0,1,0,0V14.435a4,4,0,0,1-4,4H4a4,4,0,0,1-4-4V0A0,0,0,0,1,0,0Z" transform="translate(118.614 111.91)" fill="#69f0ae"/>
      <path id="Rectángulo_18" data-name="Rectángulo 18" d="M4,0H32.871a4,4,0,0,1,4,4V20.279a0,0,0,0,1,0,0H0a0,0,0,0,1,0,0V4A4,4,0,0,1,4,0Z" transform="translate(118.614 91.632)" fill="#4687f1"/>
    </g>
  </g>
</svg>
