<svg width="160" height="160" viewBox="0 0 160 160" fill="none" xmlns="http://www.w3.org/2000/svg">
<path d="M20 45.6C20 41.4026 23.4026 38 27.6 38H69.4C73.5974 38 77 41.4026 77 45.6V68.4C77 72.5974 73.5974 76 69.4 76H27.6C23.4026 76 20 72.5974 20 68.4V45.6Z" fill="#367EF1"/>
<path d="M41.9824 48.4766H36.8457L36.7773 47.5439L39.7119 42.8906H40.8838L39.6338 45.0488L38.2275 47.29H41.9824V48.4766ZM41.1963 50H39.7266V42.8906H41.1963V50Z" fill="white"/>
<path d="M33.4375 45.7959C33.6654 45.7959 33.8542 45.7568 34.0039 45.6787C34.1536 45.6006 34.2643 45.4899 34.3359 45.3467C34.4108 45.2035 34.4482 45.0358 34.4482 44.8438C34.4482 44.6777 34.4141 44.5296 34.3457 44.3994C34.2806 44.2692 34.1797 44.1667 34.043 44.0918C33.9062 44.0137 33.7337 43.9746 33.5254 43.9746C33.3659 43.9746 33.2161 44.0055 33.0762 44.0674C32.9362 44.1292 32.8239 44.2171 32.7393 44.3311C32.6546 44.4417 32.6123 44.5736 32.6123 44.7266H31.1377C31.1377 44.3327 31.2435 43.9909 31.4551 43.7012C31.6667 43.4115 31.9499 43.1868 32.3047 43.0273C32.6628 42.8678 33.0566 42.7881 33.4863 42.7881C33.9714 42.7881 34.3962 42.8662 34.7607 43.0225C35.1286 43.1755 35.415 43.4033 35.6201 43.7061C35.8252 44.0055 35.9277 44.3766 35.9277 44.8193C35.9277 45.0505 35.874 45.2718 35.7666 45.4834C35.6624 45.695 35.5127 45.8838 35.3174 46.0498C35.1221 46.2158 34.8861 46.3477 34.6094 46.4453C34.3327 46.543 34.0218 46.5918 33.6768 46.5918H32.6758V45.7959H33.4375ZM32.6758 46.167H33.6768C34.0641 46.167 34.4043 46.2109 34.6973 46.2988C34.9902 46.3835 35.236 46.5072 35.4346 46.6699C35.6331 46.8294 35.7829 47.0231 35.8838 47.251C35.9847 47.4756 36.0352 47.7262 36.0352 48.0029C36.0352 48.4456 35.9229 48.8232 35.6982 49.1357C35.4736 49.4482 35.1693 49.6875 34.7852 49.8535C34.401 50.0163 33.9681 50.0977 33.4863 50.0977C33.1836 50.0977 32.8874 50.057 32.5977 49.9756C32.3079 49.891 32.0459 49.7656 31.8115 49.5996C31.5804 49.4336 31.3949 49.222 31.2549 48.9648C31.1149 48.7044 31.0449 48.3984 31.0449 48.0469H32.5293C32.5293 48.2096 32.5716 48.3561 32.6562 48.4863C32.7441 48.6165 32.863 48.7207 33.0127 48.7988C33.1624 48.8737 33.3333 48.9111 33.5254 48.9111C33.8477 48.9111 34.0999 48.8249 34.2822 48.6523C34.4678 48.4766 34.5605 48.252 34.5605 47.9785C34.5605 47.7311 34.515 47.5326 34.4238 47.3828C34.3327 47.2298 34.2041 47.1191 34.0381 47.0508C33.8721 46.9824 33.6719 46.9482 33.4375 46.9482H32.6758V46.167Z" fill="white"/>
<path d="M30.3711 50H25.4736V48.9941L27.7686 46.5527C27.9964 46.3053 28.1755 46.0889 28.3057 45.9033C28.4391 45.7145 28.5335 45.5436 28.5889 45.3906C28.6442 45.2376 28.6719 45.0944 28.6719 44.9609C28.6719 44.6517 28.5954 44.4108 28.4424 44.2383C28.2926 44.0625 28.0762 43.9746 27.793 43.9746C27.5814 43.9746 27.4023 44.0267 27.2559 44.1309C27.1094 44.2318 26.9971 44.3701 26.9189 44.5459C26.8441 44.7184 26.8066 44.917 26.8066 45.1416H25.332C25.332 44.7119 25.4329 44.3197 25.6348 43.9648C25.8366 43.6068 26.123 43.3219 26.4941 43.1104C26.8685 42.8955 27.3112 42.7881 27.8223 42.7881C28.5807 42.7881 29.1585 42.9688 29.5557 43.3301C29.9528 43.6914 30.1514 44.1878 30.1514 44.8193C30.1514 45.1416 30.0863 45.4492 29.9561 45.7422C29.8258 46.0352 29.6403 46.3298 29.3994 46.626C29.1618 46.9222 28.8818 47.238 28.5596 47.5732L27.3779 48.8135H30.3711V50Z" fill="white"/>
<path d="M36.123 66H31.2256V64.9941L33.5205 62.5527C33.7484 62.3053 33.9274 62.0889 34.0576 61.9033C34.1911 61.7145 34.2855 61.5436 34.3408 61.3906C34.3962 61.2376 34.4238 61.0944 34.4238 60.9609C34.4238 60.6517 34.3473 60.4108 34.1943 60.2383C34.0446 60.0625 33.8281 59.9746 33.5449 59.9746C33.3333 59.9746 33.1543 60.0267 33.0078 60.1309C32.8613 60.2318 32.749 60.3701 32.6709 60.5459C32.596 60.7184 32.5586 60.917 32.5586 61.1416H31.084C31.084 60.7119 31.1849 60.3197 31.3867 59.9648C31.5885 59.6068 31.875 59.3219 32.2461 59.1104C32.6204 58.8955 33.0632 58.7881 33.5742 58.7881C34.3327 58.7881 34.9105 58.9688 35.3076 59.3301C35.7048 59.6914 35.9033 60.1878 35.9033 60.8193C35.9033 61.1416 35.8382 61.4492 35.708 61.7422C35.5778 62.0352 35.3923 62.3298 35.1514 62.626C34.9137 62.9222 34.6338 63.238 34.3115 63.5732L33.1299 64.8135H36.123V66Z" fill="white"/>
<path d="M27.6855 61.7959C27.9134 61.7959 28.1022 61.7568 28.252 61.6787C28.4017 61.6006 28.5124 61.4899 28.584 61.3467C28.6589 61.2035 28.6963 61.0358 28.6963 60.8438C28.6963 60.6777 28.6621 60.5296 28.5938 60.3994C28.5286 60.2692 28.4277 60.1667 28.291 60.0918C28.1543 60.0137 27.9818 59.9746 27.7734 59.9746C27.6139 59.9746 27.4642 60.0055 27.3242 60.0674C27.1842 60.1292 27.0719 60.2171 26.9873 60.3311C26.9027 60.4417 26.8604 60.5736 26.8604 60.7266H25.3857C25.3857 60.3327 25.4915 59.9909 25.7031 59.7012C25.9147 59.4115 26.1979 59.1868 26.5527 59.0273C26.9108 58.8678 27.3047 58.7881 27.7344 58.7881C28.2194 58.7881 28.6442 58.8662 29.0088 59.0225C29.3766 59.1755 29.6631 59.4033 29.8682 59.7061C30.0732 60.0055 30.1758 60.3766 30.1758 60.8193C30.1758 61.0505 30.1221 61.2718 30.0146 61.4834C29.9105 61.695 29.7607 61.8838 29.5654 62.0498C29.3701 62.2158 29.1341 62.3477 28.8574 62.4453C28.5807 62.543 28.2699 62.5918 27.9248 62.5918H26.9238V61.7959H27.6855ZM26.9238 62.167H27.9248C28.3122 62.167 28.6523 62.2109 28.9453 62.2988C29.2383 62.3835 29.484 62.5072 29.6826 62.6699C29.8812 62.8294 30.0309 63.0231 30.1318 63.251C30.2327 63.4756 30.2832 63.7262 30.2832 64.0029C30.2832 64.4456 30.1709 64.8232 29.9463 65.1357C29.7217 65.4482 29.4173 65.6875 29.0332 65.8535C28.6491 66.0163 28.2161 66.0977 27.7344 66.0977C27.4316 66.0977 27.1354 66.057 26.8457 65.9756C26.556 65.891 26.2939 65.7656 26.0596 65.5996C25.8285 65.4336 25.6429 65.222 25.5029 64.9648C25.363 64.7044 25.293 64.3984 25.293 64.0469H26.7773C26.7773 64.2096 26.8197 64.3561 26.9043 64.4863C26.9922 64.6165 27.111 64.7207 27.2607 64.7988C27.4105 64.8737 27.5814 64.9111 27.7734 64.9111C28.0957 64.9111 28.348 64.8249 28.5303 64.6523C28.7158 64.4766 28.8086 64.252 28.8086 63.9785C28.8086 63.7311 28.763 63.5326 28.6719 63.3828C28.5807 63.2298 28.4521 63.1191 28.2861 63.0508C28.1201 62.9824 27.9199 62.9482 27.6855 62.9482H26.9238V62.167Z" fill="white"/>
<path d="M25 52.5C25 52.2239 25.2239 52 25.5 52H35.3329C35.6091 52 35.8329 52.2239 35.8329 52.5V52.5C35.8329 52.7761 35.6091 53 35.3329 53H25.5C25.2239 53 25 52.7761 25 52.5V52.5Z" fill="white"/>
<path d="M37 52.5C37 52.2239 37.2239 52 37.5 52H56.5C56.7761 52 57 52.2239 57 52.5V52.5C57 52.7761 56.7761 53 56.5 53H37.5C37.2239 53 37 52.7761 37 52.5V52.5Z" fill="white"/>
<path d="M25 68.5C25 68.2239 25.2239 68 25.5 68H35.3329C35.6091 68 35.8329 68.2239 35.8329 68.5V68.5C35.8329 68.7761 35.6091 69 35.3329 69H25.5C25.2239 69 25 68.7761 25 68.5V68.5Z" fill="white"/>
<path d="M37 68.5C37 68.2239 37.2239 68 37.5 68H47.3329C47.6091 68 47.8329 68.2239 47.8329 68.5V68.5C47.8329 68.7761 47.6091 69 47.3329 69H37.5C37.2239 69 37 68.7761 37 68.5V68.5Z" fill="white"/>
<path d="M25 55.1353C25 54.8591 25.2239 54.6353 25.5 54.6353H49.4157C49.6919 54.6353 49.9157 54.8591 49.9157 55.1353V55.1353C49.9157 55.4114 49.6919 55.6353 49.4157 55.6353H25.5C25.2239 55.6353 25 55.4114 25 55.1353V55.1353Z" fill="white"/>
<path d="M25 71.1353C25 70.8591 25.2239 70.6353 25.5 70.6353H49.4157C49.6919 70.6353 49.9157 70.8591 49.9157 71.1353V71.1353C49.9157 71.4114 49.6919 71.6353 49.4157 71.6353H25.5C25.2239 71.6353 25 71.4114 25 71.1353V71.1353Z" fill="white"/>
<path d="M51 71.1353C51 70.8591 51.2239 70.6353 51.5 70.6353H68.5C68.7761 70.6353 69 70.8591 69 71.1353V71.1353C69 71.4114 68.7761 71.6353 68.5 71.6353H51.5C51.2239 71.6353 51 71.4114 51 71.1353V71.1353Z" fill="white"/>
<path d="M41.9824 48.4766H36.8457L36.7773 47.5439L39.7119 42.8906H40.8838L39.6338 45.0488L38.2275 47.29H41.9824V48.4766ZM41.1963 50H39.7266V42.8906H41.1963V50Z" fill="white"/>
<path d="M33.4375 45.7959C33.6654 45.7959 33.8542 45.7568 34.0039 45.6787C34.1536 45.6006 34.2643 45.4899 34.3359 45.3467C34.4108 45.2035 34.4482 45.0358 34.4482 44.8438C34.4482 44.6777 34.4141 44.5296 34.3457 44.3994C34.2806 44.2692 34.1797 44.1667 34.043 44.0918C33.9062 44.0137 33.7337 43.9746 33.5254 43.9746C33.3659 43.9746 33.2161 44.0055 33.0762 44.0674C32.9362 44.1292 32.8239 44.2171 32.7393 44.3311C32.6546 44.4417 32.6123 44.5736 32.6123 44.7266H31.1377C31.1377 44.3327 31.2435 43.9909 31.4551 43.7012C31.6667 43.4115 31.9499 43.1868 32.3047 43.0273C32.6628 42.8678 33.0566 42.7881 33.4863 42.7881C33.9714 42.7881 34.3962 42.8662 34.7607 43.0225C35.1286 43.1755 35.415 43.4033 35.6201 43.7061C35.8252 44.0055 35.9277 44.3766 35.9277 44.8193C35.9277 45.0505 35.874 45.2718 35.7666 45.4834C35.6624 45.695 35.5127 45.8838 35.3174 46.0498C35.1221 46.2158 34.8861 46.3477 34.6094 46.4453C34.3327 46.543 34.0218 46.5918 33.6768 46.5918H32.6758V45.7959H33.4375ZM32.6758 46.167H33.6768C34.0641 46.167 34.4043 46.2109 34.6973 46.2988C34.9902 46.3835 35.236 46.5072 35.4346 46.6699C35.6331 46.8294 35.7829 47.0231 35.8838 47.251C35.9847 47.4756 36.0352 47.7262 36.0352 48.0029C36.0352 48.4456 35.9229 48.8232 35.6982 49.1357C35.4736 49.4482 35.1693 49.6875 34.7852 49.8535C34.401 50.0163 33.9681 50.0977 33.4863 50.0977C33.1836 50.0977 32.8874 50.057 32.5977 49.9756C32.3079 49.891 32.0459 49.7656 31.8115 49.5996C31.5804 49.4336 31.3949 49.222 31.2549 48.9648C31.1149 48.7044 31.0449 48.3984 31.0449 48.0469H32.5293C32.5293 48.2096 32.5716 48.3561 32.6562 48.4863C32.7441 48.6165 32.863 48.7207 33.0127 48.7988C33.1624 48.8737 33.3333 48.9111 33.5254 48.9111C33.8477 48.9111 34.0999 48.8249 34.2822 48.6523C34.4678 48.4766 34.5605 48.252 34.5605 47.9785C34.5605 47.7311 34.515 47.5326 34.4238 47.3828C34.3327 47.2298 34.2041 47.1191 34.0381 47.0508C33.8721 46.9824 33.6719 46.9482 33.4375 46.9482H32.6758V46.167Z" fill="white"/>
<path d="M30.3711 50H25.4736V48.9941L27.7686 46.5527C27.9964 46.3053 28.1755 46.0889 28.3057 45.9033C28.4391 45.7145 28.5335 45.5436 28.5889 45.3906C28.6442 45.2376 28.6719 45.0944 28.6719 44.9609C28.6719 44.6517 28.5954 44.4108 28.4424 44.2383C28.2926 44.0625 28.0762 43.9746 27.793 43.9746C27.5814 43.9746 27.4023 44.0267 27.2559 44.1309C27.1094 44.2318 26.9971 44.3701 26.9189 44.5459C26.8441 44.7184 26.8066 44.917 26.8066 45.1416H25.332C25.332 44.7119 25.4329 44.3197 25.6348 43.9648C25.8366 43.6068 26.123 43.3219 26.4941 43.1104C26.8685 42.8955 27.3112 42.7881 27.8223 42.7881C28.5807 42.7881 29.1585 42.9688 29.5557 43.3301C29.9528 43.6914 30.1514 44.1878 30.1514 44.8193C30.1514 45.1416 30.0863 45.4492 29.9561 45.7422C29.8258 46.0352 29.6403 46.3298 29.3994 46.626C29.1618 46.9222 28.8818 47.238 28.5596 47.5732L27.3779 48.8135H30.3711V50Z" fill="white"/>
<path d="M36.123 66H31.2256V64.9941L33.5205 62.5527C33.7484 62.3053 33.9274 62.0889 34.0576 61.9033C34.1911 61.7145 34.2855 61.5436 34.3408 61.3906C34.3962 61.2376 34.4238 61.0944 34.4238 60.9609C34.4238 60.6517 34.3473 60.4108 34.1943 60.2383C34.0446 60.0625 33.8281 59.9746 33.5449 59.9746C33.3333 59.9746 33.1543 60.0267 33.0078 60.1309C32.8613 60.2318 32.749 60.3701 32.6709 60.5459C32.596 60.7184 32.5586 60.917 32.5586 61.1416H31.084C31.084 60.7119 31.1849 60.3197 31.3867 59.9648C31.5885 59.6068 31.875 59.3219 32.2461 59.1104C32.6204 58.8955 33.0632 58.7881 33.5742 58.7881C34.3327 58.7881 34.9105 58.9688 35.3076 59.3301C35.7048 59.6914 35.9033 60.1878 35.9033 60.8193C35.9033 61.1416 35.8382 61.4492 35.708 61.7422C35.5778 62.0352 35.3923 62.3298 35.1514 62.626C34.9137 62.9222 34.6338 63.238 34.3115 63.5732L33.1299 64.8135H36.123V66Z" fill="white"/>
<path d="M27.6855 61.7959C27.9134 61.7959 28.1022 61.7568 28.252 61.6787C28.4017 61.6006 28.5124 61.4899 28.584 61.3467C28.6589 61.2035 28.6963 61.0358 28.6963 60.8438C28.6963 60.6777 28.6621 60.5296 28.5938 60.3994C28.5286 60.2692 28.4277 60.1667 28.291 60.0918C28.1543 60.0137 27.9818 59.9746 27.7734 59.9746C27.6139 59.9746 27.4642 60.0055 27.3242 60.0674C27.1842 60.1292 27.0719 60.2171 26.9873 60.3311C26.9027 60.4417 26.8604 60.5736 26.8604 60.7266H25.3857C25.3857 60.3327 25.4915 59.9909 25.7031 59.7012C25.9147 59.4115 26.1979 59.1868 26.5527 59.0273C26.9108 58.8678 27.3047 58.7881 27.7344 58.7881C28.2194 58.7881 28.6442 58.8662 29.0088 59.0225C29.3766 59.1755 29.6631 59.4033 29.8682 59.7061C30.0732 60.0055 30.1758 60.3766 30.1758 60.8193C30.1758 61.0505 30.1221 61.2718 30.0146 61.4834C29.9105 61.695 29.7607 61.8838 29.5654 62.0498C29.3701 62.2158 29.1341 62.3477 28.8574 62.4453C28.5807 62.543 28.2699 62.5918 27.9248 62.5918H26.9238V61.7959H27.6855ZM26.9238 62.167H27.9248C28.3122 62.167 28.6523 62.2109 28.9453 62.2988C29.2383 62.3835 29.484 62.5072 29.6826 62.6699C29.8812 62.8294 30.0309 63.0231 30.1318 63.251C30.2327 63.4756 30.2832 63.7262 30.2832 64.0029C30.2832 64.4456 30.1709 64.8232 29.9463 65.1357C29.7217 65.4482 29.4173 65.6875 29.0332 65.8535C28.6491 66.0163 28.2161 66.0977 27.7344 66.0977C27.4316 66.0977 27.1354 66.057 26.8457 65.9756C26.556 65.891 26.2939 65.7656 26.0596 65.5996C25.8285 65.4336 25.6429 65.222 25.5029 64.9648C25.363 64.7044 25.293 64.3984 25.293 64.0469H26.7773C26.7773 64.2096 26.8197 64.3561 26.9043 64.4863C26.9922 64.6165 27.111 64.7207 27.2607 64.7988C27.4105 64.8737 27.5814 64.9111 27.7734 64.9111C28.0957 64.9111 28.348 64.8249 28.5303 64.6523C28.7158 64.4766 28.8086 64.252 28.8086 63.9785C28.8086 63.7311 28.763 63.5326 28.6719 63.3828C28.5807 63.2298 28.4521 63.1191 28.2861 63.0508C28.1201 62.9824 27.9199 62.9482 27.6855 62.9482H26.9238V62.167Z" fill="white"/>
<path d="M25 52.5C25 52.2239 25.2239 52 25.5 52H35.3329C35.6091 52 35.8329 52.2239 35.8329 52.5V52.5C35.8329 52.7761 35.6091 53 35.3329 53H25.5C25.2239 53 25 52.7761 25 52.5V52.5Z" fill="white"/>
<path d="M37 52.5C37 52.2239 37.2239 52 37.5 52H56.5C56.7761 52 57 52.2239 57 52.5V52.5C57 52.7761 56.7761 53 56.5 53H37.5C37.2239 53 37 52.7761 37 52.5V52.5Z" fill="white"/>
<path d="M25 68.5C25 68.2239 25.2239 68 25.5 68H35.3329C35.6091 68 35.8329 68.2239 35.8329 68.5V68.5C35.8329 68.7761 35.6091 69 35.3329 69H25.5C25.2239 69 25 68.7761 25 68.5V68.5Z" fill="white"/>
<path d="M37 68.5C37 68.2239 37.2239 68 37.5 68H47.3329C47.6091 68 47.8329 68.2239 47.8329 68.5V68.5C47.8329 68.7761 47.6091 69 47.3329 69H37.5C37.2239 69 37 68.7761 37 68.5V68.5Z" fill="white"/>
<path d="M25 55.1353C25 54.8591 25.2239 54.6353 25.5 54.6353H49.4157C49.6919 54.6353 49.9157 54.8591 49.9157 55.1353V55.1353C49.9157 55.4114 49.6919 55.6353 49.4157 55.6353H25.5C25.2239 55.6353 25 55.4114 25 55.1353V55.1353Z" fill="white"/>
<path d="M25 71.1353C25 70.8591 25.2239 70.6353 25.5 70.6353H49.4157C49.6919 70.6353 49.9157 70.8591 49.9157 71.1353V71.1353C49.9157 71.4114 49.6919 71.6353 49.4157 71.6353H25.5C25.2239 71.6353 25 71.4114 25 71.1353V71.1353Z" fill="white"/>
<path d="M51 71.1353C51 70.8591 51.2239 70.6353 51.5 70.6353H68.5C68.7761 70.6353 69 70.8591 69 71.1353V71.1353C69 71.4114 68.7761 71.6353 68.5 71.6353H51.5C51.2239 71.6353 51 71.4114 51 71.1353V71.1353Z" fill="white"/>
<path d="M20 91.6C20 87.4026 23.4026 84 27.6 84H69.4C73.5974 84 77 87.4026 77 91.6V114.4C77 118.597 73.5974 122 69.4 122H27.6C23.4026 122 20 118.597 20 114.4V91.6Z" fill="#BE8BFF"/>
<path d="M36.123 96H31.2256V94.9941L33.5205 92.5527C33.7484 92.3053 33.9274 92.0889 34.0576 91.9033C34.1911 91.7145 34.2855 91.5436 34.3408 91.3906C34.3962 91.2376 34.4238 91.0944 34.4238 90.9609C34.4238 90.6517 34.3473 90.4108 34.1943 90.2383C34.0446 90.0625 33.8281 89.9746 33.5449 89.9746C33.3333 89.9746 33.1543 90.0267 33.0078 90.1309C32.8613 90.2318 32.749 90.3701 32.6709 90.5459C32.596 90.7184 32.5586 90.917 32.5586 91.1416H31.084C31.084 90.7119 31.1849 90.3197 31.3867 89.9648C31.5885 89.6068 31.875 89.3219 32.2461 89.1104C32.6204 88.8955 33.0632 88.7881 33.5742 88.7881C34.3327 88.7881 34.9105 88.9688 35.3076 89.3301C35.7048 89.6914 35.9033 90.1878 35.9033 90.8193C35.9033 91.1416 35.8382 91.4492 35.708 91.7422C35.5778 92.0352 35.3923 92.3298 35.1514 92.626C34.9137 92.9222 34.6338 93.238 34.3115 93.5732L33.1299 94.8135H36.123V96Z" fill="white"/>
<path d="M27.6855 91.7959C27.9134 91.7959 28.1022 91.7568 28.252 91.6787C28.4017 91.6006 28.5124 91.4899 28.584 91.3467C28.6589 91.2035 28.6963 91.0358 28.6963 90.8438C28.6963 90.6777 28.6621 90.5296 28.5938 90.3994C28.5286 90.2692 28.4277 90.1667 28.291 90.0918C28.1543 90.0137 27.9818 89.9746 27.7734 89.9746C27.6139 89.9746 27.4642 90.0055 27.3242 90.0674C27.1842 90.1292 27.0719 90.2171 26.9873 90.3311C26.9027 90.4417 26.8604 90.5736 26.8604 90.7266H25.3857C25.3857 90.3327 25.4915 89.9909 25.7031 89.7012C25.9147 89.4115 26.1979 89.1868 26.5527 89.0273C26.9108 88.8678 27.3047 88.7881 27.7344 88.7881C28.2194 88.7881 28.6442 88.8662 29.0088 89.0225C29.3766 89.1755 29.6631 89.4033 29.8682 89.7061C30.0732 90.0055 30.1758 90.3766 30.1758 90.8193C30.1758 91.0505 30.1221 91.2718 30.0146 91.4834C29.9105 91.695 29.7607 91.8838 29.5654 92.0498C29.3701 92.2158 29.1341 92.3477 28.8574 92.4453C28.5807 92.543 28.2699 92.5918 27.9248 92.5918H26.9238V91.7959H27.6855ZM26.9238 92.167H27.9248C28.3122 92.167 28.6523 92.2109 28.9453 92.2988C29.2383 92.3835 29.484 92.5072 29.6826 92.6699C29.8812 92.8294 30.0309 93.0231 30.1318 93.251C30.2327 93.4756 30.2832 93.7262 30.2832 94.0029C30.2832 94.4456 30.1709 94.8232 29.9463 95.1357C29.7217 95.4482 29.4173 95.6875 29.0332 95.8535C28.6491 96.0163 28.2161 96.0977 27.7344 96.0977C27.4316 96.0977 27.1354 96.057 26.8457 95.9756C26.556 95.891 26.2939 95.7656 26.0596 95.5996C25.8285 95.4336 25.6429 95.222 25.5029 94.9648C25.363 94.7044 25.293 94.3984 25.293 94.0469H26.7773C26.7773 94.2096 26.8197 94.3561 26.9043 94.4863C26.9922 94.6165 27.111 94.7207 27.2607 94.7988C27.4105 94.8737 27.5814 94.9111 27.7734 94.9111C28.0957 94.9111 28.348 94.8249 28.5303 94.6523C28.7158 94.4766 28.8086 94.252 28.8086 93.9785C28.8086 93.7311 28.763 93.5326 28.6719 93.3828C28.5807 93.2298 28.4521 93.1191 28.2861 93.0508C28.1201 92.9824 27.9199 92.9482 27.6855 92.9482H26.9238V92.167Z" fill="white"/>
<path d="M34.7061 112H33.2314V106.634L31.5664 107.137V105.945L34.5547 104.881H34.7061V112Z" fill="white"/>
<path d="M30.3711 112H25.4736V110.994L27.7686 108.553C27.9964 108.305 28.1755 108.089 28.3057 107.903C28.4391 107.715 28.5335 107.544 28.5889 107.391C28.6442 107.238 28.6719 107.094 28.6719 106.961C28.6719 106.652 28.5954 106.411 28.4424 106.238C28.2926 106.062 28.0762 105.975 27.793 105.975C27.5814 105.975 27.4023 106.027 27.2559 106.131C27.1094 106.232 26.9971 106.37 26.9189 106.546C26.8441 106.718 26.8066 106.917 26.8066 107.142H25.332C25.332 106.712 25.4329 106.32 25.6348 105.965C25.8366 105.607 26.123 105.322 26.4941 105.11C26.8685 104.896 27.3112 104.788 27.8223 104.788C28.5807 104.788 29.1585 104.969 29.5557 105.33C29.9528 105.691 30.1514 106.188 30.1514 106.819C30.1514 107.142 30.0863 107.449 29.9561 107.742C29.8258 108.035 29.6403 108.33 29.3994 108.626C29.1618 108.922 28.8818 109.238 28.5596 109.573L27.3779 110.813H30.3711V112Z" fill="white"/>
<path d="M25 98.5C25 98.2239 25.2239 98 25.5 98H35.3329C35.6091 98 35.8329 98.2239 35.8329 98.5V98.5C35.8329 98.7761 35.6091 99 35.3329 99H25.5C25.2239 99 25 98.7761 25 98.5V98.5Z" fill="white"/>
<path d="M37 98.5C37 98.2239 37.2239 98 37.5 98H56.5C56.7761 98 57 98.2239 57 98.5V98.5C57 98.7761 56.7761 99 56.5 99H37.5C37.2239 99 37 98.7761 37 98.5V98.5Z" fill="white"/>
<path d="M25 114.5C25 114.224 25.2239 114 25.5 114H35.3329C35.6091 114 35.8329 114.224 35.8329 114.5V114.5C35.8329 114.776 35.6091 115 35.3329 115H25.5C25.2239 115 25 114.776 25 114.5V114.5Z" fill="white"/>
<path d="M37 114.5C37 114.224 37.2239 114 37.5 114H47.3329C47.6091 114 47.8329 114.224 47.8329 114.5V114.5C47.8329 114.776 47.6091 115 47.3329 115H37.5C37.2239 115 37 114.776 37 114.5V114.5Z" fill="white"/>
<path d="M25 101.135C25 100.859 25.2239 100.635 25.5 100.635H49.4157C49.6919 100.635 49.9157 100.859 49.9157 101.135V101.135C49.9157 101.411 49.6919 101.635 49.4157 101.635H25.5C25.2239 101.635 25 101.411 25 101.135V101.135Z" fill="white"/>
<path d="M25 117.135C25 116.859 25.2239 116.635 25.5 116.635H49.4157C49.6919 116.635 49.9157 116.859 49.9157 117.135V117.135C49.9157 117.411 49.6919 117.635 49.4157 117.635H25.5C25.2239 117.635 25 117.411 25 117.135V117.135Z" fill="white"/>
<path d="M51 117.135C51 116.859 51.2239 116.635 51.5 116.635H68.5C68.7761 116.635 69 116.859 69 117.135V117.135C69 117.411 68.7761 117.635 68.5 117.635H51.5C51.2239 117.635 51 117.411 51 117.135V117.135Z" fill="white"/>
<path d="M83 45.6C83 41.4026 86.4026 38 90.6 38H132.4C136.597 38 140 41.4026 140 45.6V68.4C140 72.5974 136.597 76 132.4 76H90.6C86.4026 76 83 72.5974 83 68.4V45.6Z" fill="#FED54F"/>
<path d="M103.46 50H101.985V44.6338L100.32 45.1367V43.9453L103.309 42.8809H103.46V50Z" fill="white"/>
<path d="M99.2324 48.4766H94.0957L94.0273 47.5439L96.9619 42.8906H98.1338L96.8838 45.0488L95.4775 47.29H99.2324V48.4766ZM98.4463 50H96.9766V42.8906H98.4463V50Z" fill="white"/>
<path d="M91.9561 50H90.4814V44.6338L88.8164 45.1367V43.9453L91.8047 42.8809H91.9561V50Z" fill="white"/>
<path d="M103.839 58.8076V60.0234H103.751C103.386 60.0234 103.061 60.0739 102.774 60.1748C102.491 60.2757 102.25 60.4222 102.052 60.6143C101.856 60.8063 101.708 61.0407 101.607 61.3174C101.507 61.5908 101.456 61.9001 101.456 62.2451V63.4561C101.456 63.7816 101.498 64.0518 101.583 64.2666C101.668 64.4814 101.786 64.6426 101.939 64.75C102.092 64.8542 102.27 64.9062 102.472 64.9062C102.67 64.9062 102.843 64.8525 102.989 64.7451C103.136 64.6377 103.25 64.4896 103.331 64.3008C103.412 64.112 103.453 63.8988 103.453 63.6611C103.453 63.4137 103.411 63.1973 103.326 63.0117C103.245 62.8229 103.129 62.6764 102.979 62.5723C102.83 62.4648 102.651 62.4111 102.442 62.4111C102.224 62.4111 102.035 62.46 101.876 62.5576C101.716 62.6553 101.593 62.779 101.505 62.9287C101.417 63.0785 101.37 63.2331 101.363 63.3926L100.929 63.0703C100.938 62.8392 100.991 62.6146 101.085 62.3965C101.179 62.1784 101.311 61.9814 101.48 61.8057C101.653 61.6299 101.858 61.4899 102.096 61.3857C102.333 61.2816 102.602 61.2295 102.901 61.2295C103.347 61.2295 103.72 61.3402 104.02 61.5615C104.319 61.7796 104.544 62.0726 104.693 62.4404C104.846 62.805 104.923 63.2103 104.923 63.6562C104.923 64.1152 104.822 64.5303 104.62 64.9014C104.422 65.2692 104.142 65.5605 103.78 65.7754C103.419 65.9902 102.994 66.0977 102.506 66.0977C102.125 66.0977 101.78 66.0293 101.471 65.8926C101.161 65.7559 100.895 65.5638 100.67 65.3164C100.449 65.0658 100.278 64.7663 100.157 64.418C100.037 64.0664 99.9766 63.6774 99.9766 63.251V62.6992C99.9766 62.1198 100.061 61.5924 100.23 61.1172C100.4 60.6387 100.642 60.2285 100.958 59.8867C101.277 59.5417 101.661 59.2764 102.11 59.0908C102.56 58.902 103.064 58.8076 103.624 58.8076H103.839Z" fill="white"/>
<path d="M94.4111 62.5137L94.8262 58.8906H98.8496V60.1064H96.0371L95.8662 61.5811C95.9574 61.5322 96.0957 61.4769 96.2812 61.415C96.4701 61.3532 96.6816 61.3223 96.916 61.3223C97.3783 61.3223 97.7705 61.4167 98.0928 61.6055C98.415 61.7943 98.6608 62.0677 98.8301 62.4258C99.0026 62.7806 99.0889 63.2103 99.0889 63.7148C99.0889 64.1315 99.001 64.5221 98.8252 64.8867C98.6527 65.248 98.3874 65.541 98.0293 65.7656C97.6712 65.987 97.2188 66.0977 96.6719 66.0977C96.3594 66.0977 96.0583 66.0505 95.7686 65.9561C95.4821 65.8617 95.2249 65.7249 94.9971 65.5459C94.7692 65.3636 94.5869 65.1439 94.4502 64.8867C94.3167 64.6263 94.2467 64.3333 94.2402 64.0078H95.7051C95.7311 64.2878 95.8288 64.5091 95.998 64.6719C96.1673 64.8314 96.3887 64.9111 96.6621 64.9111C96.8932 64.9111 97.0788 64.8542 97.2188 64.7402C97.3587 64.623 97.4596 64.4668 97.5215 64.2715C97.5833 64.0762 97.6143 63.8597 97.6143 63.6221C97.6143 63.3812 97.5736 63.1712 97.4922 62.9922C97.4141 62.8099 97.2936 62.6683 97.1309 62.5674C96.9681 62.4665 96.7598 62.416 96.5059 62.416C96.2552 62.416 96.0615 62.4567 95.9248 62.5381C95.7881 62.6195 95.6758 62.7074 95.5879 62.8018L94.4111 62.5137Z" fill="white"/>
<path d="M88.6592 62.5137L89.0742 58.8906H93.0977V60.1064H90.2852L90.1143 61.5811C90.2054 61.5322 90.3438 61.4769 90.5293 61.415C90.7181 61.3532 90.9297 61.3223 91.1641 61.3223C91.6263 61.3223 92.0186 61.4167 92.3408 61.6055C92.6631 61.7943 92.9089 62.0677 93.0781 62.4258C93.2507 62.7806 93.3369 63.2103 93.3369 63.7148C93.3369 64.1315 93.249 64.5221 93.0732 64.8867C92.9007 65.248 92.6354 65.541 92.2773 65.7656C91.9193 65.987 91.4668 66.0977 90.9199 66.0977C90.6074 66.0977 90.3063 66.0505 90.0166 65.9561C89.7301 65.8617 89.473 65.7249 89.2451 65.5459C89.0173 65.3636 88.835 65.1439 88.6982 64.8867C88.5648 64.6263 88.4948 64.3333 88.4883 64.0078H89.9531C89.9792 64.2878 90.0768 64.5091 90.2461 64.6719C90.4154 64.8314 90.6367 64.9111 90.9102 64.9111C91.1413 64.9111 91.3268 64.8542 91.4668 64.7402C91.6068 64.623 91.7077 64.4668 91.7695 64.2715C91.8314 64.0762 91.8623 63.8597 91.8623 63.6221C91.8623 63.3812 91.8216 63.1712 91.7402 62.9922C91.6621 62.8099 91.5417 62.6683 91.3789 62.5674C91.2161 62.4665 91.0078 62.416 90.7539 62.416C90.5033 62.416 90.3096 62.4567 90.1729 62.5381C90.0361 62.6195 89.9238 62.7074 89.8359 62.8018L88.6592 62.5137Z" fill="white"/>
<path d="M88 52.5C88 52.2239 88.2239 52 88.5 52H98.3329C98.6091 52 98.8329 52.2239 98.8329 52.5V52.5C98.8329 52.7761 98.6091 53 98.3329 53H88.5C88.2239 53 88 52.7761 88 52.5V52.5Z" fill="white"/>
<path d="M100 52.5C100 52.2239 100.224 52 100.5 52H119.5C119.776 52 120 52.2239 120 52.5V52.5C120 52.7761 119.776 53 119.5 53H100.5C100.224 53 100 52.7761 100 52.5V52.5Z" fill="white"/>
<path d="M88 68.5C88 68.2239 88.2239 68 88.5 68H98.3329C98.6091 68 98.8329 68.2239 98.8329 68.5V68.5C98.8329 68.7761 98.6091 69 98.3329 69H88.5C88.2239 69 88 68.7761 88 68.5V68.5Z" fill="white"/>
<path d="M100 68.5C100 68.2239 100.224 68 100.5 68H110.333C110.609 68 110.833 68.2239 110.833 68.5V68.5C110.833 68.7761 110.609 69 110.333 69H100.5C100.224 69 100 68.7761 100 68.5V68.5Z" fill="white"/>
<path d="M88 55.1353C88 54.8591 88.2239 54.6353 88.5 54.6353H112.416C112.692 54.6353 112.916 54.8591 112.916 55.1353V55.1353C112.916 55.4114 112.692 55.6353 112.416 55.6353H88.5C88.2239 55.6353 88 55.4114 88 55.1353V55.1353Z" fill="white"/>
<path d="M88 71.1353C88 70.8591 88.2239 70.6353 88.5 70.6353H112.416C112.692 70.6353 112.916 70.8591 112.916 71.1353V71.1353C112.916 71.4114 112.692 71.6353 112.416 71.6353H88.5C88.2239 71.6353 88 71.4114 88 71.1353V71.1353Z" fill="white"/>
<path d="M114 71.1353C114 70.8591 114.224 70.6353 114.5 70.6353H131.5C131.776 70.6353 132 70.8591 132 71.1353V71.1353C132 71.4114 131.776 71.6353 131.5 71.6353H114.5C114.224 71.6353 114 71.4114 114 71.1353V71.1353Z" fill="white"/>
<path d="M83 91.6C83 87.4026 86.4026 84 90.6 84H132.4C136.597 84 140 87.4026 140 91.6V114.4C140 118.597 136.597 122 132.4 122H90.6C86.4026 122 83 118.597 83 114.4V91.6Z" fill="#61D4CE"/>
<path d="M103.839 88.8076V90.0234H103.751C103.386 90.0234 103.061 90.0739 102.774 90.1748C102.491 90.2757 102.25 90.4222 102.052 90.6143C101.856 90.8063 101.708 91.0407 101.607 91.3174C101.507 91.5908 101.456 91.9001 101.456 92.2451V93.4561C101.456 93.7816 101.498 94.0518 101.583 94.2666C101.668 94.4814 101.786 94.6426 101.939 94.75C102.092 94.8542 102.27 94.9062 102.472 94.9062C102.67 94.9062 102.843 94.8525 102.989 94.7451C103.136 94.6377 103.25 94.4896 103.331 94.3008C103.412 94.112 103.453 93.8988 103.453 93.6611C103.453 93.4137 103.411 93.1973 103.326 93.0117C103.245 92.8229 103.129 92.6764 102.979 92.5723C102.83 92.4648 102.651 92.4111 102.442 92.4111C102.224 92.4111 102.035 92.46 101.876 92.5576C101.716 92.6553 101.593 92.779 101.505 92.9287C101.417 93.0785 101.37 93.2331 101.363 93.3926L100.929 93.0703C100.938 92.8392 100.991 92.6146 101.085 92.3965C101.179 92.1784 101.311 91.9814 101.48 91.8057C101.653 91.6299 101.858 91.4899 102.096 91.3857C102.333 91.2816 102.602 91.2295 102.901 91.2295C103.347 91.2295 103.72 91.3402 104.02 91.5615C104.319 91.7796 104.544 92.0726 104.693 92.4404C104.846 92.805 104.923 93.2103 104.923 93.6562C104.923 94.1152 104.822 94.5303 104.62 94.9014C104.422 95.2692 104.142 95.5605 103.78 95.7754C103.419 95.9902 102.994 96.0977 102.506 96.0977C102.125 96.0977 101.78 96.0293 101.471 95.8926C101.161 95.7559 100.895 95.5638 100.67 95.3164C100.449 95.0658 100.278 94.7663 100.157 94.418C100.037 94.0664 99.9766 93.6774 99.9766 93.251V92.6992C99.9766 92.1198 100.061 91.5924 100.23 91.1172C100.4 90.6387 100.642 90.2285 100.958 89.8867C101.277 89.5417 101.661 89.2764 102.11 89.0908C102.56 88.902 103.064 88.8076 103.624 88.8076H103.839Z" fill="white"/>
<path d="M94.4111 92.5137L94.8262 88.8906H98.8496V90.1064H96.0371L95.8662 91.5811C95.9574 91.5322 96.0957 91.4769 96.2812 91.415C96.4701 91.3532 96.6816 91.3223 96.916 91.3223C97.3783 91.3223 97.7705 91.4167 98.0928 91.6055C98.415 91.7943 98.6608 92.0677 98.8301 92.4258C99.0026 92.7806 99.0889 93.2103 99.0889 93.7148C99.0889 94.1315 99.001 94.5221 98.8252 94.8867C98.6527 95.248 98.3874 95.541 98.0293 95.7656C97.6712 95.987 97.2188 96.0977 96.6719 96.0977C96.3594 96.0977 96.0583 96.0505 95.7686 95.9561C95.4821 95.8617 95.2249 95.7249 94.9971 95.5459C94.7692 95.3636 94.5869 95.1439 94.4502 94.8867C94.3167 94.6263 94.2467 94.3333 94.2402 94.0078H95.7051C95.7311 94.2878 95.8288 94.5091 95.998 94.6719C96.1673 94.8314 96.3887 94.9111 96.6621 94.9111C96.8932 94.9111 97.0788 94.8542 97.2188 94.7402C97.3587 94.623 97.4596 94.4668 97.5215 94.2715C97.5833 94.0762 97.6143 93.8597 97.6143 93.6221C97.6143 93.3812 97.5736 93.1712 97.4922 92.9922C97.4141 92.8099 97.2936 92.6683 97.1309 92.5674C96.9681 92.4665 96.7598 92.416 96.5059 92.416C96.2552 92.416 96.0615 92.4567 95.9248 92.5381C95.7881 92.6195 95.6758 92.7074 95.5879 92.8018L94.4111 92.5137Z" fill="white"/>
<path d="M88.6592 92.5137L89.0742 88.8906H93.0977V90.1064H90.2852L90.1143 91.5811C90.2054 91.5322 90.3438 91.4769 90.5293 91.415C90.7181 91.3532 90.9297 91.3223 91.1641 91.3223C91.6263 91.3223 92.0186 91.4167 92.3408 91.6055C92.6631 91.7943 92.9089 92.0677 93.0781 92.4258C93.2507 92.7806 93.3369 93.2103 93.3369 93.7148C93.3369 94.1315 93.249 94.5221 93.0732 94.8867C92.9007 95.248 92.6354 95.541 92.2773 95.7656C91.9193 95.987 91.4668 96.0977 90.9199 96.0977C90.6074 96.0977 90.3063 96.0505 90.0166 95.9561C89.7301 95.8617 89.473 95.7249 89.2451 95.5459C89.0173 95.3636 88.835 95.1439 88.6982 94.8867C88.5648 94.6263 88.4948 94.3333 88.4883 94.0078H89.9531C89.9792 94.2878 90.0768 94.5091 90.2461 94.6719C90.4154 94.8314 90.6367 94.9111 90.9102 94.9111C91.1413 94.9111 91.3268 94.8542 91.4668 94.7402C91.6068 94.623 91.7077 94.4668 91.7695 94.2715C91.8314 94.0762 91.8623 93.8597 91.8623 93.6221C91.8623 93.3812 91.8216 93.1712 91.7402 92.9922C91.6621 92.8099 91.5417 92.6683 91.3789 92.5674C91.2161 92.4665 91.0078 92.416 90.7539 92.416C90.5033 92.416 90.3096 92.4567 90.1729 92.5381C90.0361 92.6195 89.9238 92.7074 89.8359 92.8018L88.6592 92.5137Z" fill="white"/>
<path d="M100.163 108.514L100.578 104.891H104.602V106.106H101.789L101.618 107.581C101.709 107.532 101.848 107.477 102.033 107.415C102.222 107.353 102.434 107.322 102.668 107.322C103.13 107.322 103.522 107.417 103.845 107.605C104.167 107.794 104.413 108.068 104.582 108.426C104.755 108.781 104.841 109.21 104.841 109.715C104.841 110.132 104.753 110.522 104.577 110.887C104.405 111.248 104.139 111.541 103.781 111.766C103.423 111.987 102.971 112.098 102.424 112.098C102.111 112.098 101.81 112.05 101.521 111.956C101.234 111.862 100.977 111.725 100.749 111.546C100.521 111.364 100.339 111.144 100.202 110.887C100.069 110.626 99.9987 110.333 99.9922 110.008H101.457C101.483 110.288 101.581 110.509 101.75 110.672C101.919 110.831 102.141 110.911 102.414 110.911C102.645 110.911 102.831 110.854 102.971 110.74C103.111 110.623 103.212 110.467 103.273 110.271C103.335 110.076 103.366 109.86 103.366 109.622C103.366 109.381 103.326 109.171 103.244 108.992C103.166 108.81 103.046 108.668 102.883 108.567C102.72 108.466 102.512 108.416 102.258 108.416C102.007 108.416 101.813 108.457 101.677 108.538C101.54 108.619 101.428 108.707 101.34 108.802L100.163 108.514Z" fill="white"/>
<path d="M99.125 112H94.2275V110.994L96.5225 108.553C96.7503 108.305 96.9294 108.089 97.0596 107.903C97.193 107.715 97.2874 107.544 97.3428 107.391C97.3981 107.238 97.4258 107.094 97.4258 106.961C97.4258 106.652 97.3493 106.411 97.1963 106.238C97.0465 106.062 96.8301 105.975 96.5469 105.975C96.3353 105.975 96.1562 106.027 96.0098 106.131C95.8633 106.232 95.751 106.37 95.6729 106.546C95.598 106.718 95.5605 106.917 95.5605 107.142H94.0859C94.0859 106.712 94.1868 106.32 94.3887 105.965C94.5905 105.607 94.877 105.322 95.248 105.11C95.6224 104.896 96.0651 104.788 96.5762 104.788C97.3346 104.788 97.9124 104.969 98.3096 105.33C98.7067 105.691 98.9053 106.188 98.9053 106.819C98.9053 107.142 98.8402 107.449 98.71 107.742C98.5798 108.035 98.3942 108.33 98.1533 108.626C97.9157 108.922 97.6357 109.238 97.3135 109.573L96.1318 110.813H99.125V112Z" fill="white"/>
<path d="M91.9561 112H90.4814V106.634L88.8164 107.137V105.945L91.8047 104.881H91.9561V112Z" fill="white"/>
<path d="M88 98.5C88 98.2239 88.2239 98 88.5 98H98.3329C98.6091 98 98.8329 98.2239 98.8329 98.5V98.5C98.8329 98.7761 98.6091 99 98.3329 99H88.5C88.2239 99 88 98.7761 88 98.5V98.5Z" fill="white"/>
<path d="M100 98.5C100 98.2239 100.224 98 100.5 98H119.5C119.776 98 120 98.2239 120 98.5V98.5C120 98.7761 119.776 99 119.5 99H100.5C100.224 99 100 98.7761 100 98.5V98.5Z" fill="white"/>
<path d="M88 114.5C88 114.224 88.2239 114 88.5 114H98.3329C98.6091 114 98.8329 114.224 98.8329 114.5V114.5C98.8329 114.776 98.6091 115 98.3329 115H88.5C88.2239 115 88 114.776 88 114.5V114.5Z" fill="white"/>
<path d="M100 114.5C100 114.224 100.224 114 100.5 114H110.333C110.609 114 110.833 114.224 110.833 114.5V114.5C110.833 114.776 110.609 115 110.333 115H100.5C100.224 115 100 114.776 100 114.5V114.5Z" fill="white"/>
<path d="M88 101.135C88 100.859 88.2239 100.635 88.5 100.635H112.416C112.692 100.635 112.916 100.859 112.916 101.135V101.135C112.916 101.411 112.692 101.635 112.416 101.635H88.5C88.2239 101.635 88 101.411 88 101.135V101.135Z" fill="white"/>
<path d="M88 117.135C88 116.859 88.2239 116.635 88.5 116.635H112.416C112.692 116.635 112.916 116.859 112.916 117.135V117.135C112.916 117.411 112.692 117.635 112.416 117.635H88.5C88.2239 117.635 88 117.411 88 117.135V117.135Z" fill="white"/>
<path d="M114 117.135C114 116.859 114.224 116.635 114.5 116.635H131.5C131.776 116.635 132 116.859 132 117.135V117.135C132 117.411 131.776 117.635 131.5 117.635H114.5C114.224 117.635 114 117.411 114 117.135V117.135Z" fill="white"/>
</svg>
