<svg width="160" height="160" viewBox="0 0 160 160" fill="none" xmlns="http://www.w3.org/2000/svg">
<path fill-rule="evenodd" clip-rule="evenodd" d="M121.269 69.0444C120.778 68.0385 119.565 67.6528 118.601 68.1964L87.2063 85.8961C85.4859 86.8661 83.4011 86.8823 81.6664 85.9391L59.1802 73.7126C58.3589 73.266 57.3423 73.479 56.76 74.2196L45.0518 89.1105C44.3628 89.9868 43.4437 90.6452 42.4017 91.0088L22.5624 97.9318C21.5511 98.2847 20.4507 97.7345 20.1047 96.7028C19.7587 95.6711 20.2982 94.5486 21.3095 94.1957L41.1488 87.2727C41.4961 87.1515 41.8025 86.932 42.0322 86.6399L53.7403 71.749C55.4873 69.5272 58.5371 68.8883 61.001 70.228L83.4872 82.4545C84.0654 82.7689 84.7604 82.7635 85.3338 82.4402L116.728 64.7404C119.62 63.1098 123.262 64.2669 124.735 67.2846L139.797 98.1453C140.273 99.1214 139.884 100.307 138.927 100.793C137.97 101.279 136.808 100.881 136.331 99.9052L121.269 69.0444Z" fill="#81DDD8"/>
<path fill-rule="evenodd" clip-rule="evenodd" d="M138.836 49.1683C139.819 49.6105 140.267 50.7868 139.836 51.7956L120.405 97.2831C118.535 101.66 112.666 102.132 110.155 98.1063L91.4182 68.0642C90.5665 66.6986 88.5673 66.8913 87.9783 68.3958L69.6481 115.216C68.9684 116.952 67.5365 118.261 65.7781 118.756L22.457 130.929C21.4218 131.22 20.3529 130.594 20.0695 129.532C19.786 128.47 20.3954 127.373 21.4306 127.082L64.7517 114.908C65.3378 114.744 65.8151 114.307 66.0417 113.728L84.3719 66.9087C86.1389 62.3953 92.1366 61.8172 94.6917 65.9139L113.429 95.956C114.266 97.2978 116.222 97.1407 116.845 95.6816L136.276 50.1941C136.707 49.1853 137.853 48.7261 138.836 49.1683Z" fill="#FFA6C2"/>
</svg>
