<svg width="160" height="160" viewBox="0 0 160 160" fill="none" xmlns="http://www.w3.org/2000/svg">
<path d="M76.9999 23C69.5146 23 65.1025 24.4744 58.187 27.3389C51.2714 30.2034 44.9878 34.402 39.6948 39.695C34.4019 44.9879 30.2033 51.2715 27.3388 58.1871C24.4743 65.1026 23 69.5147 23 77L34.4999 77C34.4999 71.0117 35.5794 68.0821 37.871 62.5497C40.1626 57.0172 43.5215 51.9903 47.7559 47.756C51.9902 43.5216 57.0171 40.1628 62.5496 37.8711C68.082 35.5795 71.0117 34.5 76.9999 34.5001L76.9999 23Z" fill="#DFF6F5"/>
<path d="M20 80C20 91.8669 23.5189 103.467 30.1118 113.334C36.7047 123.201 46.0754 130.891 57.039 135.433C68.0025 139.974 80.0665 141.162 91.7054 138.847C103.344 136.532 114.035 130.818 122.426 122.426C130.818 114.035 136.532 103.344 138.847 91.7054C141.162 80.0666 139.974 68.0026 135.433 57.039C130.892 46.0754 123.201 36.7047 113.334 30.1118C103.467 23.5189 91.8669 20 80 20L80 38C88.3068 38 96.4271 40.4633 103.334 45.0783C110.241 49.6933 115.624 56.2528 118.803 63.9273C121.982 71.6018 122.814 80.0466 121.193 88.1938C119.572 96.341 115.572 103.825 109.698 109.698C103.825 115.572 96.341 119.572 88.1938 121.193C80.0466 122.814 71.6018 121.982 63.9273 118.803C56.2528 115.624 49.6933 110.241 45.0783 103.334C40.4633 96.4271 38 88.3068 38 80L20 80Z" fill="#61D4CE"/>
</svg>
