<svg xmlns="http://www.w3.org/2000/svg" xmlns:xlink="http://www.w3.org/1999/xlink" width="180" height="180" viewBox="0 0 180 180">
  <defs>
    <clipPath id="clip-Widget-polar-area">
      <rect width="180" height="180"/>
    </clipPath>
  </defs>
  <g id="Widget-polar-area" clip-path="url(#clip-Widget-polar-area)">
    <g id="Grupo_33" data-name="Grupo 33" transform="translate(11.768 18)">
      <path id="Trazado_31" data-name="Trazado 31" d="M-212,499.4l52.57,52.57a74.264,74.264,0,0,0,21.558-52.413,74.267,74.267,0,0,0-21.745-52.6L-212,499.338Z" transform="translate(277.434 -416.021)" fill="#69f0ae"/>
      <path id="Trazado_32" data-name="Trazado 32" d="M-153.86,441.968A83.275,83.275,0,0,0-212,418.006v82.1Z" transform="translate(277.434 -418.006)" fill="#4687f1"/>
      <path id="Trazado_33" data-name="Trazado 33" d="M-263.647,480.417l-33.462-33.462A47.444,47.444,0,0,0-311,480.559a47.44,47.44,0,0,0,13.772,33.482l33.582-33.582Z" transform="translate(328.232 -397.055)" fill="#ef5350"/>
      <path id="Trazado_34" data-name="Trazado 34" d="M-240.789,418.006a58.367,58.367,0,0,0-40.75,16.8l40.75,40.75Z" transform="translate(305.374 -393.449)" fill="#a259e6"/>
      <path id="Trazado_35" data-name="Trazado 35" d="M-281.792,559.2a59.5,59.5,0,0,0,41.99,17.271,59.5,59.5,0,0,0,41.99-17.271l-41.99-41.99Z" transform="translate(304.812 -433.057)" fill="#ffd600"/>
      <path id="Trazado_36" data-name="Trazado 36" d="M-212.043,516.244l.036.036v-.073Z" transform="translate(277.44 -432.905)" fill="#4687f1"/>
      <path id="Trazado_37" data-name="Trazado 37" d="M-213,516.207v.073l.036-.036Z" transform="translate(277.585 -432.905)" fill="#4687f1"/>
    </g>
  </g>
</svg>
