<svg xmlns="http://www.w3.org/2000/svg" xmlns:xlink="http://www.w3.org/1999/xlink" width="180" height="180" viewBox="0 0 180 180">
  <defs>
    <clipPath id="clip-path">
      <path id="Trazado_19" data-name="Trazado 19" d="M188.6,522.619,180,510.2,112.191,472,95,486.326s19.1,40.113,19.1,41.068,21.967,9.551,21.967,9.551l22.922,4.775L180.957,529.3Z" transform="translate(-95 -472)" fill="none"/>
    </clipPath>
    <clipPath id="clip-path-2">
      <path id="Trazado_22" data-name="Trazado 22" d="M175.1,507.22l-9.347-10.028L123.73,480,118,486.686s6.686,21.967,6.686,22.922,32.473,12.416,32.473,12.416l14.326-8.6Z" transform="translate(-118 -480)" fill="none"/>
    </clipPath>
    <clipPath id="clip-Widget-radialbar">
      <rect width="180" height="180"/>
    </clipPath>
  </defs>
  <g id="Widget-radialbar" clip-path="url(#clip-Widget-radialbar)">
    <g id="Grupo_25" data-name="Grupo 25" transform="translate(20 20)">
      <path id="Trazado_23" data-name="Trazado 23" d="M152.79,514.33a31.04,31.04,0,1,0,0-62.08c-.08,0-.159.006-.239.006v9.551c.08,0,.159-.006.239-.006a21.489,21.489,0,1,1-21.483,21.728h-9.551A31.072,31.072,0,0,0,152.79,514.33Z" transform="translate(-82.598 -413.092)" fill="#ffd54f"/>
      <path id="Trazado_20" data-name="Trazado 20" d="M177.15,515.839a42,42,0,0,1-67.343-33.276h-9.551a51.571,51.571,0,1,0,51.568-51.813c-.08,0-.159.006-.239.006v9.551c.08,0,.159-.006.239-.006a42.025,42.025,0,0,1,25.326,75.538" transform="translate(-81.632 -412.126)" fill="#69f0ae"/>
      <path id="Trazado_17" data-name="Trazado 17" d="M150.948,411.25c-.08,0-.159.006-.239.006v9.551c.08,0,.159-.006.239-.006a60.647,60.647,0,1,1-60.642,60.886H80.756a70.2,70.2,0,1,0,70.192-70.437Z" transform="translate(-80.756 -411.25)" fill="#4687f1"/>
      <g id="Grupo_22" data-name="Grupo 22" transform="translate(13.604 58.021)">
        <g id="Grupo_21" data-name="Grupo 21" clip-path="url(#clip-path)">
          <path id="Trazado_18" data-name="Trazado 18" d="M151.824,533.9a51.574,51.574,0,0,0,0-103.148c-.08,0-.159.006-.239.006v9.551c.08,0,.159-.006.239-.006a42.023,42.023,0,1,1-42.018,42.262h-9.551A51.63,51.63,0,0,0,151.824,533.9Z" transform="translate(-95.236 -470.147)" fill="#f2f2f2"/>
        </g>
      </g>
      <g id="Grupo_24" data-name="Grupo 24" transform="translate(35.571 65.661)">
        <g id="Grupo_23" data-name="Grupo 23" clip-path="url(#clip-path-2)">
          <path id="Trazado_21" data-name="Trazado 21" d="M152.79,514.33a31.04,31.04,0,1,0,0-62.08c-.08,0-.159.006-.239.006v9.551c.08,0,.159-.006.239-.006a21.489,21.489,0,1,1-21.483,21.728h-9.551A31.072,31.072,0,0,0,152.79,514.33Z" transform="translate(-118.169 -478.753)" fill="#f2f2f2"/>
        </g>
      </g>
    </g>
  </g>
</svg>
