<svg width="160" height="160" viewBox="0 0 160 160" fill="none" xmlns="http://www.w3.org/2000/svg">
<rect x="140" y="22" width="120" height="2.00002" rx="1.00001" transform="rotate(180 140 22)" fill="url(#paint0_linear_6655_33553)"/>
<rect x="140" y="100" width="120" height="2.00002" rx="1.00001" transform="rotate(180 140 100)" fill="url(#paint1_linear_6655_33553)"/>
<rect x="140" y="62" width="120" height="2.00002" rx="1.00001" transform="rotate(180 140 62)" fill="url(#paint2_linear_6655_33553)"/>
<rect x="140" y="81" width="120" height="2" rx="1" transform="rotate(180 140 81)" fill="url(#paint3_linear_6655_33553)"/>
<rect x="140" y="140" width="120" height="2.00002" rx="1.00001" transform="rotate(180 140 140)" fill="url(#paint4_linear_6655_33553)"/>
<rect x="140" y="42" width="120" height="2.00001" rx="1.00001" transform="rotate(180 140 42)" fill="url(#paint5_linear_6655_33553)"/>
<rect x="58" y="140" width="120" height="2.00001" rx="1" transform="rotate(-90 58 140)" fill="#E1E9F8"/>
<rect x="101" y="140" width="120" height="2.00001" rx="1" transform="rotate(-90 101 140)" fill="#E1E9F8"/>
<rect x="140" y="120" width="120" height="2.00001" rx="1.00001" transform="rotate(180 140 120)" fill="url(#paint6_linear_6655_33553)"/>
<defs>
<linearGradient id="paint0_linear_6655_33553" x1="260" y1="22" x2="140" y2="22" gradientUnits="userSpaceOnUse">
<stop stop-color="#E1E9F8" stop-opacity="0"/>
<stop offset="0.279" stop-color="#E1E9F8"/>
<stop offset="0.724" stop-color="#E1E9F8"/>
<stop offset="1" stop-color="#E1E9F8" stop-opacity="0"/>
</linearGradient>
<linearGradient id="paint1_linear_6655_33553" x1="260" y1="100" x2="140" y2="100" gradientUnits="userSpaceOnUse">
<stop stop-color="#E1E9F8" stop-opacity="0"/>
<stop offset="0.279" stop-color="#E1E9F8"/>
<stop offset="0.724" stop-color="#E1E9F8"/>
<stop offset="1" stop-color="#E1E9F8" stop-opacity="0"/>
</linearGradient>
<linearGradient id="paint2_linear_6655_33553" x1="260" y1="62" x2="140" y2="62" gradientUnits="userSpaceOnUse">
<stop stop-color="#E1E9F8" stop-opacity="0"/>
<stop offset="0.279" stop-color="#E1E9F8"/>
<stop offset="0.724" stop-color="#E1E9F8"/>
<stop offset="1" stop-color="#E1E9F8" stop-opacity="0"/>
</linearGradient>
<linearGradient id="paint3_linear_6655_33553" x1="260" y1="81" x2="140" y2="81" gradientUnits="userSpaceOnUse">
<stop stop-color="#E1E9F8" stop-opacity="0"/>
<stop offset="0.279" stop-color="#E1E9F8"/>
<stop offset="0.724" stop-color="#E1E9F8"/>
<stop offset="1" stop-color="#E1E9F8" stop-opacity="0"/>
</linearGradient>
<linearGradient id="paint4_linear_6655_33553" x1="260" y1="140" x2="140" y2="140" gradientUnits="userSpaceOnUse">
<stop stop-color="#E1E9F8" stop-opacity="0"/>
<stop offset="0.279" stop-color="#E1E9F8"/>
<stop offset="0.724" stop-color="#E1E9F8"/>
<stop offset="1" stop-color="#E1E9F8" stop-opacity="0"/>
</linearGradient>
<linearGradient id="paint5_linear_6655_33553" x1="260" y1="42" x2="140" y2="42" gradientUnits="userSpaceOnUse">
<stop stop-color="#E1E9F8" stop-opacity="0"/>
<stop offset="0.279" stop-color="#E1E9F8"/>
<stop offset="0.724" stop-color="#E1E9F8"/>
<stop offset="1" stop-color="#E1E9F8" stop-opacity="0"/>
</linearGradient>
<linearGradient id="paint6_linear_6655_33553" x1="260" y1="120" x2="140" y2="120" gradientUnits="userSpaceOnUse">
<stop stop-color="#E1E9F8" stop-opacity="0"/>
<stop offset="0.279" stop-color="#E1E9F8"/>
<stop offset="0.724" stop-color="#E1E9F8"/>
<stop offset="1" stop-color="#E1E9F8" stop-opacity="0"/>
</linearGradient>
</defs>
</svg>
