<svg xmlns="http://www.w3.org/2000/svg" xmlns:xlink="http://www.w3.org/1999/xlink" width="180" height="180" viewBox="0 0 180 180">
  <defs>
    <clipPath id="clip-Widget-treemap">
      <rect width="180" height="180"/>
    </clipPath>
  </defs>
  <g id="Widget-treemap" clip-path="url(#clip-Widget-treemap)">
    <g id="Grupo_14" data-name="Grupo 14" transform="translate(-1 -4.854)">
      <path id="Rectángulo_25" data-name="Rectángulo 25" d="M4,0h8a0,0,0,0,1,0,0V105a0,0,0,0,1,0,0H4a4,4,0,0,1-4-4V4A4,4,0,0,1,4,0Z" transform="translate(21 42.854)" fill="#b9f6ca"/>
      <rect id="Rectángulo_28" data-name="Rectángulo 28" width="12" height="68" transform="translate(92 42.854)" fill="#a0d0ff"/>
      <rect id="Rectángulo_29" data-name="Rectángulo 29" width="12" height="35" transform="translate(92 112.854)" fill="#a0d0ff"/>
      <rect id="Rectángulo_26" data-name="Rectángulo 26" width="55" height="105" transform="translate(35 42.854)" fill="#69f0ae"/>
      <path id="Rectángulo_27" data-name="Rectángulo 27" d="M0,0H51a4,4,0,0,1,4,4V77a0,0,0,0,1,0,0H0a0,0,0,0,1,0,0V0A0,0,0,0,1,0,0Z" transform="translate(106 42.854)" fill="#4687f1"/>
      <path id="Rectángulo_30" data-name="Rectángulo 30" d="M0,0H55a0,0,0,0,1,0,0V22a4,4,0,0,1-4,4H0a0,0,0,0,1,0,0V0A0,0,0,0,1,0,0Z" transform="translate(106 121.854)" fill="#a0d0ff"/>
    </g>
  </g>
</svg>
