<svg width="109" height="122" viewBox="0 0 109 122" fill="none" xmlns="http://www.w3.org/2000/svg">
<path fill-rule="evenodd" clip-rule="evenodd" d="M17.5 8C16.5284 8 15.7407 8.78765 15.7407 9.75926V15.7407H9.75926C8.78765 15.7407 8 16.5284 8 17.5C8 18.4716 8.78765 19.2593 9.75926 19.2593H15.7407V25.2407C15.7407 26.2124 16.5284 27 17.5 27C18.4716 27 19.2593 26.2124 19.2593 25.2407V19.2593H25.2407C26.2124 19.2593 27 18.4716 27 17.5C27 16.5284 26.2124 15.7407 25.2407 15.7407H19.2593V9.75926C19.2593 8.78765 18.4716 8 17.5 8Z" fill="url(#paint0_linear_12237_5138)"/>
<path fill-rule="evenodd" clip-rule="evenodd" d="M37 26.4417C37 23.4363 39.2041 21 41.9231 21H81.0426C81.4898 21 81.9158 21.1913 82.2128 21.5257L100.605 42.2247C100.859 42.5112 101 42.8812 101 43.2645V93.1022C101 96.1075 98.7959 98.5439 96.0769 98.5439H88.5V57.5443C88.5 57.0578 88.3227 56.588 88.0013 56.2229L68.5973 34.1786C68.2176 33.7472 67.6707 33.5 67.096 33.5H37V26.4417Z" fill="url(#paint1_linear_12237_5138)"/>
<mask id="mask0_12237_5138" style="mask-type:alpha" maskUnits="userSpaceOnUse" x="37" y="21" width="64" height="78">
<path fill-rule="evenodd" clip-rule="evenodd" d="M41.9231 21C39.2041 21 37 23.4363 37 26.4417V93.1022C37 96.1076 39.2041 98.5439 41.9231 98.5439H96.0769C98.7959 98.5439 101 96.1076 101 93.1022V43.2645C101 42.8812 100.859 42.5112 100.605 42.2247L82.2128 21.5257C81.9158 21.1913 81.4898 21 81.0426 21H41.9231Z" fill="url(#paint2_linear_12237_5138)"/>
</mask>
<g mask="url(#mask0_12237_5138)">
<path fill-rule="evenodd" clip-rule="evenodd" d="M81.3633 40.3823C81.3633 42.1116 82.7651 43.5134 84.4943 43.5134H113.498L81.3633 16.5752V40.3823Z" fill="#D7E5FC"/>
</g>
<path fill-rule="evenodd" clip-rule="evenodd" d="M25.9231 36C23.2041 36 21 38.4507 21 41.4737V108.526C21 111.549 23.2041 114 25.9231 114H80.0769C82.7959 114 85 111.549 85 108.526V58.3894C85 58.0076 84.8605 57.6391 84.6078 57.3529L66.2131 36.5291C65.916 36.1927 65.4887 36 65.0398 36H25.9231Z" fill="url(#paint3_linear_12237_5138)"/>
<mask id="mask1_12237_5138" style="mask-type:alpha" maskUnits="userSpaceOnUse" x="21" y="36" width="64" height="78">
<path fill-rule="evenodd" clip-rule="evenodd" d="M25.9231 36C23.2041 36 21 38.4507 21 41.4737V108.526C21 111.549 23.2041 114 25.9231 114H80.0769C82.7959 114 85 111.549 85 108.526V58.3894C85 58.0076 84.8605 57.6391 84.6078 57.3529L66.2131 36.5291C65.916 36.1927 65.4887 36 65.0398 36H25.9231Z" fill="url(#paint4_linear_12237_5138)"/>
</mask>
<g mask="url(#mask1_12237_5138)">
<path fill-rule="evenodd" clip-rule="evenodd" d="M65.0576 55.4152C65.0576 57.1445 66.4594 58.5463 68.1887 58.5463H96.7238L65.0576 31.5688V55.4152Z" fill="#D7E5FC"/>
</g>
<defs>
<linearGradient id="paint0_linear_12237_5138" x1="17.5" y1="8" x2="27.1874" y2="26.6012" gradientUnits="userSpaceOnUse">
<stop stop-color="#DBE8FF"/>
<stop offset="0.99" stop-color="#D0E2FF"/>
</linearGradient>
<linearGradient id="paint1_linear_12237_5138" x1="69" y1="21" x2="112.555" y2="90.0234" gradientUnits="userSpaceOnUse">
<stop stop-color="#DBE8FF"/>
<stop offset="0.99" stop-color="#D0E2FF"/>
</linearGradient>
<linearGradient id="paint2_linear_12237_5138" x1="82.3418" y1="24.4883" x2="29.7293" y2="46.6238" gradientUnits="userSpaceOnUse">
<stop stop-color="#4687F1"/>
<stop offset="1" stop-color="#6B9FF4"/>
</linearGradient>
<linearGradient id="paint3_linear_12237_5138" x1="43.6835" y1="36" x2="109.633" y2="89.7622" gradientUnits="userSpaceOnUse">
<stop stop-color="#FBFCFF"/>
<stop offset="1" stop-color="#F0F6FF"/>
</linearGradient>
<linearGradient id="paint4_linear_12237_5138" x1="66.3418" y1="39.5088" x2="13.6369" y2="61.5535" gradientUnits="userSpaceOnUse">
<stop stop-color="#4687F1"/>
<stop offset="1" stop-color="#6B9FF4"/>
</linearGradient>
</defs>
</svg>
