<svg width="160" height="160" viewBox="0 0 160 160" fill="none" xmlns="http://www.w3.org/2000/svg">
<rect x="37" y="37" width="95" height="95" rx="6" fill="#3A4659"/>
<rect x="27" y="27" width="95" height="95" rx="6" fill="#47505F"/>
<path d="M121 78.2525V115.197C121 118.402 118.37 121 115.126 121H33.8737C30.6297 121 28 118.402 28 115.197V104.472L52.0377 80.7231C55.552 77.2509 61.2498 77.251 64.764 80.7231C68.2783 84.1953 73.9761 84.1953 77.4904 80.7231L93.5734 64.8329C97.3964 61.0557 103.595 61.0557 107.418 64.833L121 78.2525Z" fill="#D8E7FF"/>
<circle cx="50.5" cy="50.5" r="13.5" fill="#D8E6FF"/>
<rect x="28" y="28" width="93" height="93" rx="5" stroke="#47505F" stroke-width="2"/>
</svg>
