<svg xmlns="http://www.w3.org/2000/svg" width="52" height="52" viewBox="0 0 52 52"><g transform="translate(-725 -275)"><circle cx="26" cy="26" r="26" transform="translate(725 275)" fill="rgba(70,135,241,0.15)"/><path d="M11.781-10.875a.909.909,0,0,1,.906.906v5.438a.909.909,0,0,1-.906.906H6.344a.909.909,0,0,1-.906-.906V-9.969a.909.909,0,0,1,.906-.906ZM7.25-25.375a1.358,1.358,0,0,1,1.359,1.359v2.266h8.156v-2.266a1.358,1.358,0,0,1,1.359-1.359,1.358,1.358,0,0,1,1.359,1.359v2.266H21.75a3.627,3.627,0,0,1,3.625,3.625V0A3.628,3.628,0,0,1,21.75,3.625H3.625A3.627,3.627,0,0,1,0,0V-18.125A3.625,3.625,0,0,1,3.625-21.75H5.891v-2.266A1.358,1.358,0,0,1,7.25-25.375ZM22.656-14.5H2.719V0a.907.907,0,0,0,.906.906H21.75A.909.909,0,0,0,22.656,0Z" transform="translate(738 312.375)" fill="#4687f1"/></g></svg>