<svg xmlns="http://www.w3.org/2000/svg" width="52" height="52" viewBox="0 0 52 52"><g transform="translate(-460 -275)"><circle cx="26" cy="26" r="26" transform="translate(460 275)" fill="rgba(70,135,241,0.15)"/><path d="M7.2-25.375a1.327,1.327,0,0,1,1.359,1.359v2.266h8.207v-2.266a1.358,1.358,0,0,1,1.359-1.359,1.358,1.358,0,0,1,1.359,1.359v2.266H21.75a3.627,3.627,0,0,1,3.625,3.625V-14.5H2.668V0a.942.942,0,0,0,.906.906h12.54a9.985,9.985,0,0,0,2.622,2.719H3.625A3.627,3.627,0,0,1,0,0V-18.125A3.625,3.625,0,0,1,3.625-21.75H5.891v-2.266A1.358,1.358,0,0,1,7.25-25.375ZM32.625-4.531a8.158,8.158,0,0,1-8.156,8.156,8.2,8.2,0,0,1-8.207-8.156,8.2,8.2,0,0,1,8.207-8.156A8.158,8.158,0,0,1,32.625-4.531ZM23.512-8.156v3.625a.944.944,0,0,0,.906.906h2.77a.909.909,0,0,0,.906-.906.909.909,0,0,0-.906-.906H25.324V-8.156a.878.878,0,0,0-.906-.906A.944.944,0,0,0,23.512-8.156Z" transform="translate(471 312)" fill="#4687f1"/></g></svg>