<svg xmlns="http://www.w3.org/2000/svg" width="52" height="52" viewBox="0 0 52 52"><g transform="translate(-109 -275)"><circle cx="26" cy="26" r="26" transform="translate(109 275)" fill="rgba(70,135,241,0.15)"/><path d="M13.072-20.619v2.856l1.793,1.744a6.166,6.166,0,0,1,1.669-5.588,6.192,6.192,0,0,1,4.394-1.824h.066l-3.41,3.346.887,5.309,5.31.885,3.354-3.354a6.169,6.169,0,0,1-1.83,4.453,6,6,0,0,1-1.86,1.267c.1.1.227.17.33.272l1.795,1.8A9.165,9.165,0,0,0,27.3-10.8a9.071,9.071,0,0,0,2.379-8.584,2.041,2.041,0,0,0-1.429-1.479,1.913,1.913,0,0,0-1.939.527L22.866-16.9l-1.9-.315-.315-1.9,3.435-3.428a1.926,1.926,0,0,0,.52-1.939,2.026,2.026,0,0,0-1.479-1.435,8.987,8.987,0,0,0-8.584,2.374,10.167,10.167,0,0,0-1.487,1.939l.066.044ZM6.211.346a2.054,2.054,0,0,1-2.82,0,1.871,1.871,0,0,1-.586-1.354,1.75,1.75,0,0,1,.586-1.354l7.876-7.975L9.281-12.322,1.406-4.459A4.976,4.976,0,0,0,0-1.113a4.652,4.652,0,0,0,1.406,3.4A4.745,4.745,0,0,0,4.753,3.69a4.775,4.775,0,0,0,3.4-1.406l5.912-5.912a6.239,6.239,0,0,1-.916-3.054L6.211.346ZM29.361-3.07,22.5-9.926a4.344,4.344,0,0,0-5-.814l-6.3-6.252v-3.633L3.75-26.25,0-22.553l5.625,7.447H9.26l6.252,6.246a4.356,4.356,0,0,0,.815,5l6.855,6.861a2.177,2.177,0,0,0,3.088,0L29.362-.085a2.066,2.066,0,0,0,0-2.985Z" transform="translate(120 312)" fill="#4687f1"/></g></svg>