<svg xmlns="http://www.w3.org/2000/svg" width="52" height="52" viewBox="0 0 52 52"><g transform="translate(-38 -570)"><circle cx="26" cy="26" r="26" transform="translate(38 570)" fill="rgba(70,135,241,0.15)"/><path d="M23.563-19.937a3.636,3.636,0,0,1,3.625,3.625l0,12.843a1.813,1.813,0,0,1-.531,1.282L23.19,1.281a1.813,1.813,0,0,1-1.282.531H9.062A3.608,3.608,0,0,1,5.437-1.863v-14.5a3.648,3.648,0,0,1,3.625-3.574Zm.906,3.625a.906.906,0,0,0-.906-.906H9.062a.906.906,0,0,0-.906.906V-1.819a.906.906,0,0,0,.906.906H19.938V-3.625a1.813,1.813,0,0,1,1.813-1.812h2.719ZM0-4.984V-18.578a6.8,6.8,0,0,1,6.8-6.8H20.391a1.358,1.358,0,0,1,1.359,1.359,1.358,1.358,0,0,1-1.359,1.359H6.8a4.083,4.083,0,0,0-4.078,4.078V-4.984A1.358,1.358,0,0,1,1.359-3.625,1.358,1.358,0,0,1,0-4.984Z" transform="translate(50 607)" fill="#4687f1"/></g></svg>