<svg xmlns="http://www.w3.org/2000/svg" width="52" height="52" viewBox="0 0 52 52"><g transform="translate(-390 -275)"><circle cx="26" cy="26" r="26" transform="translate(390 275)" fill="rgba(70,135,241,0.15)"/><path d="M1.482-15.944l11.97,4.871a2.717,2.717,0,0,0,1,.147,2.842,2.842,0,0,0,1.06-.2L27.471-16A2.281,2.281,0,0,0,29-18.176a2.3,2.3,0,0,0-1.482-2.179l-11.97-4.822a2.867,2.867,0,0,0-2.106.005L1.482-20.3A2.336,2.336,0,0,0,0-18.176,2.538,2.538,0,0,0,1.482-15.944Zm13.052-6.71,11.124,4.479L14.466-13.645,3.342-18.125ZM27.516-5.806a1.357,1.357,0,0,0-1.772.745,1.355,1.355,0,0,0,.17,1.328L14.467.9,3.082-3.731A1.355,1.355,0,0,0,3.254-5.06a1.358,1.358,0,0,0-1.772-.745A2.306,2.306,0,0,0,0-3.625,2.35,2.35,0,0,0,1.482-1.448l11.97,4.875a2.811,2.811,0,0,0,1,.2,2.842,2.842,0,0,0,1.06-.2L27.471-1.446A2.38,2.38,0,0,0,29-3.625,2.307,2.307,0,0,0,27.516-5.806Zm0-7.25a1.354,1.354,0,0,0-1.772.745,1.355,1.355,0,0,0,.17,1.328L14.467-6.347,3.082-10.977a1.355,1.355,0,0,0,.172-1.329,1.355,1.355,0,0,0-1.772-.745A2.3,2.3,0,0,0,0-10.869,2.346,2.346,0,0,0,1.482-8.7L13.45-3.823a2.867,2.867,0,0,0,1.047.2,2.846,2.846,0,0,0,1.06-.208L27.519-8.7A2.457,2.457,0,0,0,29-10.869a2.365,2.365,0,0,0-1.484-2.186Z" transform="translate(402 312)" fill="#4687f1"/></g></svg>