<svg width="40" height="40" viewBox="0 0 40 40" fill="none" xmlns="http://www.w3.org/2000/svg">
<path fill-rule="evenodd" clip-rule="evenodd" d="M8.55552 29.276L16.7315 33.656C17.3419 33.9656 17.9999 34.1707 18.6782 34.2627V21.2362L5.5463 13.6183C5.31976 14.209 5.19896 14.835 5.18941 15.4676V23.7847C5.26206 24.9047 5.60656 25.99 6.19308 26.9468C6.7796 27.9036 7.59048 28.7031 8.55552 29.276ZM6.77107 11.4964L19.9111 19.103L25.7511 15.7272L12.3142 7.96807L8.55552 9.97638C7.86705 10.3615 7.26079 10.8779 6.77107 11.4964ZM21.1391 34.2529C21.8174 34.161 22.4754 33.9559 23.0858 33.6462L31.2618 29.2662C32.2274 28.6937 33.0389 27.8944 33.626 26.9376C34.2131 25.9808 34.5581 24.8952 34.6311 23.775V15.4676C34.6205 14.8348 34.4986 14.2088 34.271 13.6183L29.32 16.4896V21.6483C29.32 21.9737 29.1907 22.2859 28.9605 22.516C28.7304 22.7462 28.4182 22.8755 28.0928 22.8755C27.7673 22.8755 27.4551 22.7462 27.225 22.516C26.9948 22.2859 26.8655 21.9737 26.8655 21.6483V17.9172L21.1391 21.2346V34.2529ZM33.0511 11.4915C32.5609 10.8748 31.9547 10.36 31.2666 9.97638L23.0906 5.59638C22.0961 5.13102 21.0115 4.88981 19.9135 4.88981C18.8155 4.88981 17.7309 5.13102 16.7364 5.59638L14.8643 6.59729L28.1974 14.2964L33.0511 11.4915ZM32.42 31.4449C33.7891 30.6743 34.9323 29.5585 35.7359 28.2085C36.5781 26.8845 37.0452 25.3567 37.0872 23.788V15.4676C37.0452 13.8989 36.5781 12.3711 35.7359 11.047C34.9324 9.69705 33.7891 8.58119 32.42 7.81072L24.2457 3.44045C22.9018 2.76495 21.415 2.42328 19.9111 2.4444C18.4072 2.42185 16.9203 2.76477 15.5781 3.44369L7.40536 7.81072C6.03507 8.58074 4.89066 9.69663 4.0863 11.047C3.244 12.3711 2.77695 13.8989 2.73499 15.4676V23.7847C2.77703 25.3534 3.24407 26.8812 4.0863 28.2053C4.89005 29.5547 6.03327 30.6699 7.40212 31.44L15.5749 35.8103C16.9205 36.4814 18.4076 36.8196 19.9111 36.7966C21.4116 36.8194 22.8957 36.4823 24.2392 35.8135L32.42 31.4449Z" fill="#4687F1"/>
</svg>
