<svg xmlns="http://www.w3.org/2000/svg" width="52" height="52" viewBox="0 0 52 52"><g transform="translate(1873 -1962)"><circle cx="26" cy="26" r="26" transform="translate(-1873 1962)" fill="rgba(107,159,243,0.15)"/><path d="M10.5-9a6,6,0,0,0,6-6,6,6,0,0,0-6-6,6,6,0,0,0-6,6A6,6,0,0,0,10.5-9Zm0-9.75A3.754,3.754,0,0,1,14.25-15a3.754,3.754,0,0,1-3.75,3.75A3.755,3.755,0,0,1,6.75-15,3.755,3.755,0,0,1,10.5-18.75Zm2.377,12H8.123A8.123,8.123,0,0,0,0,1.373,1.625,1.625,0,0,0,1.625,3H19.373A1.624,1.624,0,0,0,21,1.373,8.124,8.124,0,0,0,12.877-6.75ZM2.283.75A5.88,5.88,0,0,1,8.123-4.5h4.753A5.91,5.91,0,0,1,18.717.75H2.283ZM22.458-6H19a9.5,9.5,0,0,1,3.5,7.373A3.1,3.1,0,0,1,22.031,3H28.5A1.511,1.511,0,0,0,30,1.458,7.5,7.5,0,0,0,22.458-6ZM20.25-9a5.247,5.247,0,0,0,5.25-5.25,5.247,5.247,0,0,0-5.25-5.25,5.2,5.2,0,0,0-3.128,1.055A7.43,7.43,0,0,1,18-15a7.437,7.437,0,0,1-1.481,4.44A5.233,5.233,0,0,0,20.25-9Z" transform="translate(-1862 1997)" fill="#6b9ff3"/></g></svg>