<svg width="70" height="70" viewBox="0 0 70 70" fill="none" xmlns="http://www.w3.org/2000/svg">
<path opacity="0.2" d="M34.8598 69.7196C54.1124 69.7196 69.7196 54.1124 69.7196 34.8598C69.7196 15.6073 54.1124 0 34.8598 0C15.6073 0 0 15.6073 0 34.8598C0 54.1124 15.6073 69.7196 34.8598 69.7196Z" fill="#4687F1"/>
<path d="M46.8851 31.6019C45.2383 31.6019 43.6284 32.0903 42.2591 33.0052C40.8898 33.9202 39.8226 35.2206 39.1924 36.742C38.5622 38.2635 38.3972 39.9377 38.7185 41.5529C39.0398 43.1681 39.8328 44.6517 40.9973 45.8162C42.1618 46.9807 43.6454 47.7737 45.2606 48.095C46.8758 48.4163 48.55 48.2514 50.0715 47.6212C51.593 46.991 52.8934 45.9237 53.8083 44.5544C54.7232 43.1851 55.2116 41.5753 55.2116 39.9285C55.2116 37.7202 54.3343 35.6023 52.7728 34.0407C51.2113 32.4792 49.0934 31.6019 46.8851 31.6019V31.6019Z" fill="#4687F1"/>
<path d="M27.9033 39.9286C26.2565 39.9288 24.6468 40.4172 23.2776 41.3323C21.9084 42.2473 20.8413 43.5478 20.2113 45.0693C19.5812 46.5908 19.4165 48.265 19.7379 49.8801C20.0593 51.4952 20.8523 52.9787 22.0169 54.1431C23.1814 55.3075 24.665 56.1005 26.2802 56.4217C27.8953 56.7429 29.5695 56.5779 31.0909 55.9476C32.6123 55.3174 33.9127 54.2502 34.8276 52.8809C35.7425 51.5117 36.2308 49.9018 36.2308 48.2551C36.2308 47.1615 36.0154 46.0787 35.5968 45.0684C35.1783 44.0581 34.565 43.1402 33.7917 42.367C33.0184 41.5938 32.1003 40.9804 31.09 40.5621C30.0797 40.1437 28.9968 39.9284 27.9033 39.9286V39.9286Z" fill="#4687F1"/>
<path d="M19.7887 36.2582C22.5039 36.2582 24.705 34.0571 24.705 31.342C24.705 28.6268 22.5039 26.4258 19.7887 26.4258C17.0736 26.4258 14.8725 28.6268 14.8725 31.342C14.8725 34.0571 17.0736 36.2582 19.7887 36.2582Z" fill="#4687F1"/>
<path d="M36.229 28.6257C40.8277 28.6257 44.5556 24.8978 44.5556 20.2992C44.5556 15.7006 40.8277 11.9727 36.229 11.9727C31.6304 11.9727 27.9025 15.7006 27.9025 20.2992C27.9025 24.8978 31.6304 28.6257 36.229 28.6257Z" fill="#4687F1"/>
</svg>
