<svg width="84" height="84" viewBox="0 0 84 84" fill="none" xmlns="http://www.w3.org/2000/svg">
<path d="M15.7276 68.2747L30.5508 21.412L60.3934 53.4008L15.7276 68.2747Z" fill="#6B9FF4"/>
<mask id="mask0_12237_7306" style="mask-type:alpha" maskUnits="userSpaceOnUse" x="15" y="21" width="46" height="48">
<path d="M15.7276 68.2747L30.5508 21.412L60.3934 53.4008L15.7276 68.2747Z" fill="#D9D9D9"/>
</mask>
<g mask="url(#mask0_12237_7306)">
<path d="M21.612 35.1282L24.6097 33.3581C27.8011 47.9571 33.7596 53.5414 48.4798 60.9488L33.4835 70.415C23.3172 60.9487 20.6282 54.936 21.612 35.1282Z" fill="#EDF3FE"/>
</g>
<ellipse cx="46.6995" cy="36.466" rx="8.9734" ry="22.2055" transform="rotate(-44.1265 46.6995 36.466)" fill="#4687F1"/>
<path d="M45.0172 9.09766C46.2853 12.5957 47.3653 22.4909 41.541 34.087" stroke="#FED54F" stroke-width="2.3612" stroke-linecap="round" stroke-linejoin="round"/>
<path d="M75.2655 42.3316C72.5837 40.4263 62.595 38.416 52.8223 41.1707" stroke="#FED54F" stroke-width="2.3612" stroke-linecap="round" stroke-linejoin="round"/>
<path d="M54.4619 36.1201L79.3857 24.0518" stroke="#FED54F" stroke-width="2.3612" stroke-linecap="round" stroke-linejoin="round"/>
<path d="M46.5918 35.0707L58.7913 24.0518" stroke="#FED54F" stroke-width="2.3612" stroke-linecap="round" stroke-linejoin="round"/>
<circle cx="81.0256" cy="45.4997" r="2.49238" fill="#5E98F4"/>
<circle cx="53.3469" cy="14.4103" r="2.49238" fill="#5E98F4"/>
<circle cx="71.1215" cy="52.5175" r="1.37737" fill="#61D4CE"/>
<circle cx="43.509" cy="2.73554" r="2.49238" fill="#FF8FB3"/>
<path d="M26.1933 2.73535L27.6365 7.17679H32.3065L28.5283 9.92175L29.9715 14.3632L26.1933 11.6182L22.4152 14.3632L23.8583 9.92175L20.0802 7.17679H24.7502L26.1933 2.73535Z" fill="#FED54F"/>
<path d="M68.4664 8.41677L70.3976 11.2879L73.725 10.3384L71.5912 13.0623L73.5224 15.9334L70.2725 14.7458L68.1387 17.4697L68.2639 14.0118L65.0139 12.8242L68.3412 11.8747L68.4664 8.41677Z" fill="#FF8FB3"/>
</svg>
