<svg width="24" height="24" viewBox="0 0 24 24" fill="none" xmlns="http://www.w3.org/2000/svg">
<path d="M12.4917 16.2161C12.3667 16.3411 12.1957 16.42 11.9984 16.42C11.6169 16.42 11.3012 16.1043 11.3012 15.7228V12.697L8.27537 12.697C7.89387 12.697 7.57813 12.3813 7.57814 11.9998C7.57813 11.6183 7.89387 11.3025 8.27537 11.3025L11.3012 11.3025V8.27677C11.3012 7.89526 11.6169 7.57953 11.9984 7.57953C12.3799 7.57952 12.6956 7.89525 12.6956 8.27676V11.3025L15.7214 11.3025C16.1029 11.3025 16.4186 11.6183 16.4186 11.9998C16.4186 12.1971 16.3397 12.3681 16.2147 12.4931C16.0898 12.6181 15.9187 12.697 15.7214 12.697L12.6956 12.697V15.7228C12.7022 15.9136 12.6167 16.0912 12.4917 16.2161Z" fill="#407DE2"/>
<path fill-rule="evenodd" clip-rule="evenodd" d="M2 12C2 17.5163 6.48372 22 12 22C17.5163 22 22 17.5163 22 12C22 6.48372 17.5163 2 12 2C6.48372 2 2 6.48372 2 12ZM3.39535 12C3.39535 7.25581 7.25581 3.39535 12 3.39535C16.7442 3.39535 20.6047 7.25581 20.6047 12C20.6047 16.7442 16.7442 20.6047 12 20.6047C7.25581 20.6047 3.39535 16.7442 3.39535 12Z" fill="#407DE2"/>
</svg>
