<svg xmlns="http://www.w3.org/2000/svg" width="52" height="52" viewBox="0 0 52 52"><g transform="translate(-180 -107)"><circle cx="26" cy="26" r="26" transform="translate(180 107)" fill="rgba(70,135,241,0.15)"/><path d="M14.5-1.812A5.439,5.439,0,0,1,9.063,3.625,5.407,5.407,0,0,1,3.625-1.812,3.627,3.627,0,0,1,0-5.437V-21.75a3.625,3.625,0,0,1,3.625-3.625H19.938a3.627,3.627,0,0,1,3.625,3.625v1.813h2.419a3.168,3.168,0,0,1,2.243.929l5.285,5.285a3.168,3.168,0,0,1,.929,2.243v6.95h.453A1.356,1.356,0,0,1,36.25-3.172a1.356,1.356,0,0,1-1.359,1.359H32.625a5.439,5.439,0,0,1-5.437,5.438A5.407,5.407,0,0,1,21.75-1.812H14.5Zm5.438-20.844H3.625a.906.906,0,0,0-.906.906V-5.437a.907.907,0,0,0,.906.906h.727A5.437,5.437,0,0,1,9.062-7.25a5.441,5.441,0,0,1,4.712,2.719h6.163a.909.909,0,0,0,.906-.906V-21.75A.907.907,0,0,0,19.938-22.656ZM26.3-17.088a.449.449,0,0,0-.323-.13H23.563v5.438h8.043c-.006-.006-.011-.017-.017-.023ZM9.062-4.531A2.719,2.719,0,0,0,6.344-1.812,2.719,2.719,0,0,0,9.062.906a2.719,2.719,0,0,0,2.719-2.719A2.719,2.719,0,0,0,9.062-4.531ZM27.188.906a2.719,2.719,0,0,0,2.719-2.719,2.719,2.719,0,0,0-2.719-2.719,2.719,2.719,0,0,0-2.719,2.719A2.719,2.719,0,0,0,27.188.906Z" transform="translate(189 144)" fill="#4687f1"/></g></svg>