<svg xmlns="http://www.w3.org/2000/svg" width="52" height="52" viewBox="0 0 52 52"><g transform="translate(-38 -107)"><circle cx="26" cy="26" r="26" transform="translate(38 107)" fill="rgba(107,159,243,0.15)"/><path d="M22-13.5H17.5V-18a1.489,1.489,0,0,0-1.444-1.5A1.585,1.585,0,0,0,14.5-18v4.5H10A1.5,1.5,0,0,0,8.5-12,1.5,1.5,0,0,0,10-10.5h4.5V-6A1.5,1.5,0,0,0,16-4.5,1.5,1.5,0,0,0,17.5-6v-4.5H22A1.5,1.5,0,0,0,23.5-12,1.5,1.5,0,0,0,22-13.5ZM16-28A16,16,0,0,0,0-12,16,16,0,0,0,16,4,16,16,0,0,0,32-12,16,16,0,0,0,16-28ZM16,1A13.014,13.014,0,0,1,3-12,13.014,13.014,0,0,1,16-25,13.014,13.014,0,0,1,29-12,13.014,13.014,0,0,1,16,1Z" transform="translate(48 145)" fill="#6b9ff3"/></g></svg>