<svg xmlns="http://www.w3.org/2000/svg" width="52" height="52" viewBox="0 0 52 52"><g transform="translate(-245 -107)"><circle cx="26" cy="26" r="26" transform="translate(245 107)" fill="rgba(107,159,243,0.15)"/><path d="M12.688-10.875A3.636,3.636,0,0,0,9.063-7.25a3.636,3.636,0,0,0,3.625,3.625A3.636,3.636,0,0,0,16.313-7.25,3.636,3.636,0,0,0,12.688-10.875Zm11.844-7.188-4.752-4.752a2.684,2.684,0,0,0-1.875-.748H3.625A3.625,3.625,0,0,0,0-19.937V-1.812A3.625,3.625,0,0,0,3.625,1.813H21.75a3.625,3.625,0,0,0,3.625-3.625V-16.092A2.772,2.772,0,0,0,24.531-18.063ZM7.25-20.844h8.156v4.531H7.25ZM22.656-1.812a.906.906,0,0,1-.906.906H3.625a.906.906,0,0,1-.906-.906V-19.937a.906.906,0,0,1,.906-.906h.906v5.891a1.36,1.36,0,0,0,1.359,1.359H16.766a1.356,1.356,0,0,0,1.359-1.359v-5.671l4.432,4.432a.328.328,0,0,1,.1.236Z" transform="translate(259 144)" fill="#6b9ff3"/></g></svg>