<svg xmlns="http://www.w3.org/2000/svg" width="52" height="52" viewBox="0 0 52 52"><g transform="translate(-662 -275)"><circle cx="26" cy="26" r="26" transform="translate(662 275)" fill="rgba(107,159,243,0.15)"/><path d="M0,0H40.8V40.8H0Z" transform="translate(668 281)" fill="none"/><path d="M27.5,7H20.7v3.4h6.8a5.1,5.1,0,1,1,0,10.2H20.7V24h6.8a8.5,8.5,0,0,0,0-17ZM17.3,20.6H10.5a5.1,5.1,0,1,1,0-10.2h6.8V7H10.5a8.5,8.5,0,1,0,0,17h6.8Zm-5.1-6.8H25.8v3.4H12.2Z" transform="translate(669.4 285.901)" fill="#6b9ff3"/></g></svg>