<svg width="200" height="200" viewBox="0 0 200 200" fill="none" xmlns="http://www.w3.org/2000/svg">
<g filter="url(#filter0_d_3866_85117)">
<path d="M103.861 58.668H21.3155C18.012 58.668 15.334 61.346 15.334 64.6495V120.278C15.334 123.581 18.012 126.259 21.3155 126.259H103.861C107.165 126.259 109.843 123.581 109.843 120.278V64.6495C109.843 61.346 107.165 58.668 103.861 58.668Z" fill="url(#paint0_linear_3866_85117)"/>
</g>
<path fill-rule="evenodd" clip-rule="evenodd" d="M82.3266 113.099C82.3266 114.751 83.6653 116.09 85.3173 116.09H91.2986C92.9506 116.09 94.29 114.751 94.29 113.099V71.8266C94.29 70.1746 92.9506 68.8359 91.2986 68.8359H85.3173C83.6653 68.8359 82.3266 70.1746 82.3266 71.8266V113.099ZM47.6333 113.099C47.6333 114.751 48.9726 116.09 50.6246 116.09H56.606C58.258 116.09 59.5966 114.751 59.5966 113.099V86.1826C59.5966 84.5306 58.258 83.1919 56.606 83.1919H50.6246C48.9726 83.1919 47.6333 84.5306 47.6333 86.1826V113.099ZM64.98 113.099C64.98 114.751 66.3193 116.09 67.9706 116.09H73.9526C75.604 116.09 76.9433 114.751 76.9433 113.099V92.1639C76.9433 90.5119 75.604 89.1733 73.9526 89.1733H67.9706C66.3193 89.1733 64.98 90.5119 64.98 92.1639V113.099ZM33.2778 116.09C31.6261 116.09 30.2871 114.751 30.2871 113.099V101.137C30.2871 99.4846 31.6261 98.1453 33.2778 98.1453H39.2593C40.9113 98.1453 42.25 99.4846 42.25 101.137V113.099C42.25 114.751 40.9113 116.09 39.2593 116.09H33.2778Z" fill="url(#paint1_linear_3866_85117)"/>
<g filter="url(#filter1_d_3866_85117)">
<path d="M160.685 102.93H78.1398C74.8362 102.93 72.1582 105.608 72.1582 108.911V164.539C72.1582 167.843 74.8362 170.521 78.1398 170.521H160.685C163.989 170.521 166.667 167.843 166.667 164.539V108.911C166.667 105.608 163.989 102.93 160.685 102.93Z" fill="url(#paint2_linear_3866_85117)"/>
<path d="M160.685 103.23H78.1395C75.0012 103.23 72.457 105.775 72.457 108.913V164.541C72.457 167.68 75.0012 170.224 78.1395 170.224H160.685C163.824 170.224 166.368 167.68 166.368 164.541V108.913C166.368 105.775 163.824 103.23 160.685 103.23Z" stroke="white" stroke-width="0.897233"/>
</g>
<path d="M87.1114 150.781C89.7542 150.781 91.8967 148.639 91.8967 145.996C91.8967 143.353 89.7542 141.211 87.1114 141.211C84.4686 141.211 82.3262 143.353 82.3262 145.996C82.3262 148.639 84.4686 150.781 87.1114 150.781Z" fill="#C8DDFF"/>
<path d="M108.047 132.238C110.69 132.238 112.832 130.096 112.832 127.453C112.832 124.81 110.69 122.668 108.047 122.668C105.404 122.668 103.262 124.81 103.262 127.453C103.262 130.096 105.404 132.238 108.047 132.238Z" fill="#C8DDFF"/>
<path d="M128.983 155.567C131.625 155.567 133.768 153.424 133.768 150.781C133.768 148.139 131.625 145.996 128.983 145.996C126.34 145.996 124.197 148.139 124.197 150.781C124.197 153.424 126.34 155.567 128.983 155.567Z" fill="#C8DDFF"/>
<path d="M149.918 135.828C152.561 135.828 154.703 133.686 154.703 131.043C154.703 128.4 152.561 126.258 149.918 126.258C147.275 126.258 145.133 128.4 145.133 131.043C145.133 133.686 147.275 135.828 149.918 135.828Z" fill="#C8DDFF"/>
<path d="M86.8125 146.298L108.347 127.156L128.983 151.083L150.217 131.344" stroke="#C8DDFF" stroke-width="4.48617" stroke-linecap="round" stroke-linejoin="round"/>
<g filter="url(#filter2_d_3866_85117)">
<path d="M154.667 87.9987C170.868 87.9987 184.001 74.8657 184.001 58.6654C184.001 42.465 170.868 29.332 154.667 29.332C138.467 29.332 125.334 42.465 125.334 58.6654C125.334 74.8657 138.467 87.9987 154.667 87.9987Z" fill="url(#paint3_linear_3866_85117)"/>
<path d="M154.668 29.332C160.469 29.332 166.141 31.0524 170.965 34.2754C175.789 37.4987 179.548 42.08 181.769 47.44C183.989 52.8 184.569 58.698 183.438 64.388C182.306 70.078 179.512 75.3047 175.41 79.4074L154.668 58.6654V29.332Z" fill="url(#paint4_linear_3866_85117)"/>
</g>
<defs>
<filter id="filter0_d_3866_85117" x="6.36164" y="54.1818" width="112.452" height="85.5345" filterUnits="userSpaceOnUse" color-interpolation-filters="sRGB">
<feFlood flood-opacity="0" result="BackgroundImageFix"/>
<feColorMatrix in="SourceAlpha" type="matrix" values="0 0 0 0 0 0 0 0 0 0 0 0 0 0 0 0 0 0 127 0" result="hardAlpha"/>
<feOffset dy="4.48617"/>
<feGaussianBlur stdDeviation="4.48617"/>
<feComposite in2="hardAlpha" operator="out"/>
<feColorMatrix type="matrix" values="0 0 0 0 0.383333 0 0 0 0 0.618254 0 0 0 0 1 0 0 0 0.15 0"/>
<feBlend mode="normal" in2="BackgroundImageFix" result="effect1_dropShadow_3866_85117"/>
<feBlend mode="normal" in="SourceGraphic" in2="effect1_dropShadow_3866_85117" result="shape"/>
</filter>
<filter id="filter1_d_3866_85117" x="63.0355" y="98.2951" width="112.753" height="85.8353" filterUnits="userSpaceOnUse" color-interpolation-filters="sRGB">
<feFlood flood-opacity="0" result="BackgroundImageFix"/>
<feColorMatrix in="SourceAlpha" type="matrix" values="0 0 0 0 0 0 0 0 0 0 0 0 0 0 0 0 0 0 127 0" result="hardAlpha"/>
<feOffset dy="4.48617"/>
<feGaussianBlur stdDeviation="4.48617"/>
<feComposite in2="hardAlpha" operator="out"/>
<feColorMatrix type="matrix" values="0 0 0 0 0.383333 0 0 0 0 0.618254 0 0 0 0 1 0 0 0 0.15 0"/>
<feBlend mode="normal" in2="BackgroundImageFix" result="effect1_dropShadow_3866_85117"/>
<feBlend mode="normal" in="SourceGraphic" in2="effect1_dropShadow_3866_85117" result="shape"/>
</filter>
<filter id="filter2_d_3866_85117" x="115.334" y="24.332" width="78.668" height="78.668" filterUnits="userSpaceOnUse" color-interpolation-filters="sRGB">
<feFlood flood-opacity="0" result="BackgroundImageFix"/>
<feColorMatrix in="SourceAlpha" type="matrix" values="0 0 0 0 0 0 0 0 0 0 0 0 0 0 0 0 0 0 127 0" result="hardAlpha"/>
<feOffset dy="5"/>
<feGaussianBlur stdDeviation="5"/>
<feComposite in2="hardAlpha" operator="out"/>
<feColorMatrix type="matrix" values="0 0 0 0 0.383333 0 0 0 0 0.618254 0 0 0 0 1 0 0 0 0.15 0"/>
<feBlend mode="normal" in2="BackgroundImageFix" result="effect1_dropShadow_3866_85117"/>
<feBlend mode="normal" in="SourceGraphic" in2="effect1_dropShadow_3866_85117" result="shape"/>
</filter>
<linearGradient id="paint0_linear_3866_85117" x1="48.8306" y1="58.668" x2="104.16" y2="135.531" gradientUnits="userSpaceOnUse">
<stop stop-color="#FBFCFF"/>
<stop offset="1" stop-color="#F0F6FF"/>
</linearGradient>
<linearGradient id="paint1_linear_3866_85117" x1="62.2886" y1="68.8359" x2="81.9893" y2="120.071" gradientUnits="userSpaceOnUse">
<stop stop-color="#C9DDFF"/>
<stop offset="1" stop-color="#ABCBFF"/>
</linearGradient>
<linearGradient id="paint2_linear_3866_85117" x1="105.655" y1="102.93" x2="160.984" y2="179.792" gradientUnits="userSpaceOnUse">
<stop stop-color="#FBFCFF"/>
<stop offset="1" stop-color="#F0F6FF"/>
</linearGradient>
<linearGradient id="paint3_linear_3866_85117" x1="154.667" y1="29.332" x2="184.579" y2="86.7674" gradientUnits="userSpaceOnUse">
<stop stop-color="#C9DDFF"/>
<stop offset="1" stop-color="#ABCBFF"/>
</linearGradient>
<linearGradient id="paint4_linear_3866_85117" x1="146.128" y1="29.332" x2="196.769" y2="79.6454" gradientUnits="userSpaceOnUse">
<stop stop-color="#FBFCFF"/>
<stop offset="1" stop-color="#F0F6FF"/>
</linearGradient>
</defs>
</svg>
