<svg width="24" height="24" viewBox="0 0 24 24" fill="none" xmlns="http://www.w3.org/2000/svg">
<path fill-rule="evenodd" clip-rule="evenodd" d="M12.5 4.25581C12.0632 4.25581 11.7297 4.61107 11.7297 5.02326V11.0698C11.7297 11.4166 11.4575 11.6977 11.1216 11.6977C10.7858 11.6977 10.5135 11.4166 10.5135 11.0698V5.95349C10.5135 5.54131 10.1801 5.18605 9.74324 5.18605C9.30643 5.18605 8.97297 5.54131 8.97297 5.95349V13.8605C8.97297 14.2072 8.70071 14.4884 8.36486 14.4884C8.02902 14.4884 7.75676 14.2072 7.75676 13.8605V11.5349C7.75676 11.1227 7.4233 10.7674 6.98649 10.7674C6.54967 10.7674 6.21622 11.1227 6.21622 11.5349V13.3953C6.21622 16.8901 9.01815 19.7442 12.5 19.7442C15.9818 19.7442 18.7838 16.8901 18.7838 13.3953V8.74419C18.7838 8.332 18.4503 7.97674 18.0135 7.97674C17.5767 7.97674 17.2432 8.332 17.2432 8.74419V11.0698C17.2432 11.4166 16.971 11.6977 16.6351 11.6977C16.2993 11.6977 16.027 11.4166 16.027 11.0698V5.95349C16.027 5.54131 15.6936 5.18605 15.2568 5.18605C14.8199 5.18605 14.4865 5.54131 14.4865 5.95349V11.0698C14.4865 11.4166 14.2142 11.6977 13.8784 11.6977C13.5425 11.6977 13.2703 11.4166 13.2703 11.0698V5.02326C13.2703 4.61107 12.9368 4.25581 12.5 4.25581ZM14.3055 4.1773C13.9894 3.47844 13.2942 3 12.5 3C11.7058 3 11.0106 3.47844 10.6945 4.1773C10.4109 4.01952 10.0863 3.93023 9.74324 3.93023C8.65755 3.93023 7.75676 4.82441 7.75676 5.95349V9.66978C7.51913 9.56781 7.25862 9.51163 6.98649 9.51163C5.90079 9.51163 5 10.4058 5 11.5349V13.3953C5 17.6069 8.36927 21 12.5 21C16.6307 21 20 17.6069 20 13.3953V8.74419C20 7.61511 19.0992 6.72093 18.0135 6.72093C17.7414 6.72093 17.4809 6.77711 17.2432 6.87908V5.95349C17.2432 4.82441 16.3425 3.93023 15.2568 3.93023C14.9137 3.93023 14.5891 4.01952 14.3055 4.1773Z" fill="#4687F1"/>
</svg>
