<svg width="16" height="16" viewBox="0 0 16 16" fill="none" xmlns="http://www.w3.org/2000/svg">
<path d="M8.7173 3.69361C8.43407 3.69361 8.20448 3.46401 8.20448 3.18079C8.20448 2.89757 8.43407 2.66797 8.7173 2.66797H12.8199C13.1031 2.66797 13.3327 2.89757 13.3327 3.18079V7.28335C13.3327 7.56658 13.1031 7.79617 12.8199 7.79617C12.5366 7.79617 12.307 7.56658 12.307 7.28335V3.69361H8.7173Z" fill="#4687F1"/>
<path d="M3.17884 8.20643C3.46206 8.20643 3.69166 8.43603 3.69166 8.71925V12.309H7.2814C7.56462 12.309 7.79422 12.5386 7.79422 12.8218C7.79422 13.105 7.56462 13.3346 7.2814 13.3346H3.17884C3.04283 13.3346 2.91239 13.2806 2.81622 13.1844C2.72004 13.0883 2.66602 12.9578 2.66602 12.8218V8.71925C2.66602 8.43603 2.89561 8.20643 3.17884 8.20643Z" fill="#4687F1"/>
</svg>
