<svg width="16" height="16" viewBox="0 0 16 16" fill="none" xmlns="http://www.w3.org/2000/svg">
<path d="M9.3634 7.6679C9.3634 8.22015 8.90251 8.66783 8.33398 8.66783C7.76546 8.66783 7.30457 8.22015 7.30457 7.6679C7.30457 7.11565 7.76546 6.66797 8.33398 6.66797C8.90251 6.66797 9.3634 7.11565 9.3634 7.6679Z" fill="#4687F1"/>
<path d="M5.39281 7.66804C5.39281 8.22028 4.93192 8.66797 4.3634 8.66797C3.79487 8.66797 3.33398 8.22028 3.33398 7.66804C3.33398 7.11579 3.79487 6.66811 4.3634 6.66811C4.93192 6.66811 5.39281 7.11579 5.39281 7.66804Z" fill="#4687F1"/>
<path d="M13.334 7.66804C13.334 8.22028 12.8731 8.66797 12.3046 8.66797C11.736 8.66797 11.2752 8.22028 11.2752 7.66804C11.2752 7.11579 11.736 6.66811 12.3046 6.66811C12.8731 6.66811 13.334 7.11579 13.334 7.66804Z" fill="#4687F1"/>
</svg>
