<svg width="24" height="24" viewBox="0 0 24 24" fill="none" xmlns="http://www.w3.org/2000/svg">
<path fill-rule="evenodd" clip-rule="evenodd" d="M11.728 6.16797C8.65621 6.16797 6.16602 8.65817 6.16602 11.73C6.16602 14.8018 8.65621 17.292 11.728 17.292C13.1175 17.292 14.3879 16.7825 15.3627 15.9402L17.1379 17.7154C17.2969 17.8744 17.5545 17.8744 17.7135 17.7154C17.8724 17.5565 17.8724 17.2988 17.7135 17.1399L15.9383 15.3647C16.7806 14.3898 17.29 13.1194 17.29 11.73C17.29 8.65816 14.7998 6.16797 11.728 6.16797ZM6.97997 11.73C6.97997 9.1077 9.10575 6.98192 11.728 6.98192C14.3503 6.98192 16.4761 9.1077 16.4761 11.73C16.4761 14.3523 14.3503 16.478 11.728 16.478C9.10575 16.478 6.97997 14.3523 6.97997 11.73Z" fill="#4687F1"/>
</svg>
