<svg width="16" height="16" viewBox="0 0 16 16" fill="none" xmlns="http://www.w3.org/2000/svg">
<path d="M7.99981 14C8.16772 14 8.31324 13.9328 8.41958 13.8265C8.52592 13.7202 8.59868 13.569 8.59309 13.4067V8.59562L13.4067 8.59562C13.7313 8.59562 14 8.32697 14 8.00234C14 7.83443 13.9328 7.68891 13.8265 7.58257C13.7202 7.47623 13.569 7.40347 13.4067 7.40906H8.59309V2.59328C8.59309 2.26865 8.32443 1.99999 7.99981 2C7.67518 2 7.40653 2.26866 7.40653 2.59328L7.40653 7.40906H2.59328C2.26865 7.40906 1.99999 7.67772 2 8.00234C2 8.32697 2.26866 8.59562 2.59328 8.59562L7.40653 8.59562V13.4067C7.40653 13.7313 7.67518 14 7.99981 14Z" fill="#4687F1"/>
</svg>
    