<svg xmlns="http://www.w3.org/2000/svg" width="52" height="52" viewBox="0 0 52 52"><g transform="translate(-382 -570)"><circle cx="26" cy="26" r="26" transform="translate(382 570)" fill="rgba(70,135,241,0.15)"/><path d="M4.219-16.875H-4.219a1.41,1.41,0,0,0-1.406,1.406v8.438A1.41,1.41,0,0,0-4.219-5.625H4.219A1.41,1.41,0,0,0,5.625-7.031v-8.437A1.41,1.41,0,0,0,4.219-16.875ZM0-26.25a15,15,0,0,0-15,15,15,15,0,0,0,15,15,15,15,0,0,0,15-15A15,15,0,0,0,0-26.25ZM0,.938A12.2,12.2,0,0,1-12.187-11.25,12.2,12.2,0,0,1,0-23.437,12.2,12.2,0,0,1,12.188-11.25,12.2,12.2,0,0,1,0,.938Z" transform="translate(408 607)" fill="#4687f1"/><path d="M0,0H36V36H0Z" transform="translate(390 578)" fill="none"/></g></svg>